<svg version="1.1" xmlns="http://www.w3.org/2000/svg" viewBox="-46.000001000000005 -17.51310826641211 92.00000200000001 34.076474305856394" fill="none" stroke="black" stroke-width="0.6%" vector-effect="non-scaling-stroke">
    <path d="M -31.81981 -14.25613 A 45 7.70581 360 0 1 45 -8.8073 A 45 7.70581 360 0 1 -45 -8.8073 A 45 7.70581 360 0 1 -31.81981 -14.25613 Z" />
    <path d="M -45 -4.86638 A 45 7.70581 180 0 0 45 -4.86638" />
    <path d="M -10.96016 -7.29374 L -10.72869 -7.32944 L -10.47929 -7.36045 L -10.21735 -7.38609 L -9.94854 -7.4058 L -9.67867 -7.41916 L -9.41357 -7.42588 L -9.15898 -7.42581 L -8.92041 -7.41896 L -8.70301 -7.40547 L -8.51149 -7.38564 L -8.34999 -7.35989 L -8.222 -7.32878 L -8.13029 -7.29299 L -8.07684 -7.25329 L -8.06452 -7.23118 L -8.06314 -7.20837 L -8.0727 -7.18498 L -8.09314 -7.16116 L -8.12435 -7.13705 L -8.16613 -7.11279 L -8.21823 -7.08852 L -8.28036 -7.0644 L -8.35212 -7.04056 L -8.43311 -7.01714 L -8.52283 -6.99429 L -8.62076 -6.97215 L -8.7263 -6.95083 L -8.83883 -6.93048 L -9.0703 -6.89477 L -9.3197 -6.86377 L -9.58164 -6.83813 L -9.85045 -6.81842 L -10.12032 -6.80506 L -10.38542 -6.79834 L -10.64001 -6.79841 L -10.87858 -6.80526 L -11.09598 -6.81875 L -11.2875 -6.83858 L -11.449 -6.86433 L -11.57699 -6.89543 L -11.6687 -6.93123 L -11.72215 -6.97093 L -11.73447 -6.99304 L -11.73585 -7.01585 L -11.72629 -7.03923 L -11.70585 -7.06306 L -11.67464 -7.08717 L -11.63286 -7.11143 L -11.58076 -7.1357 L -11.51863 -7.15982 L -11.44687 -7.18366 L -11.36588 -7.20708 L -11.27616 -7.22992 L -11.17823 -7.25207 L -11.07269 -7.27338 L -10.96016 -7.29374 Z" />
    <path d="M 22.54163 -7.36897 L 22.76815 -7.39857 L 23.04022 -7.41793 L 23.3481 -7.42635 L 23.6808 -7.42352 L 24.02639 -7.40956 L 24.37253 -7.38497 L 24.70684 -7.35061 L 25.01736 -7.30772 L 25.29297 -7.25784 L 25.52383 -7.20274 L 25.70167 -7.1444 L 25.82015 -7.08491 L 25.875 -7.02639 L 25.86429 -6.97093 L 25.85512 -6.96118 L 25.84374 -6.95162 L 25.83015 -6.94225 L 25.81436 -6.93309 L 25.79641 -6.92415 L 25.77631 -6.91544 L 25.75408 -6.90697 L 25.72976 -6.89875 L 25.70337 -6.89079 L 25.67495 -6.8831 L 25.64452 -6.8757 L 25.61213 -6.86858 L 25.57782 -6.86176 L 25.54163 -6.85525 L 25.31511 -6.82565 L 25.04304 -6.80629 L 24.73516 -6.79787 L 24.40247 -6.80069 L 24.05687 -6.81465 L 23.71073 -6.83925 L 23.37642 -6.87361 L 23.06591 -6.9165 L 22.79029 -6.96638 L 22.55943 -7.02148 L 22.38159 -7.07982 L 22.26312 -7.13931 L 22.20826 -7.19783 L 22.21897 -7.25329 L 22.22814 -7.26304 L 22.23952 -7.2726 L 22.25312 -7.28197 L 22.2689 -7.29113 L 22.28685 -7.30007 L 22.30695 -7.30878 L 22.32918 -7.31725 L 22.3535 -7.32547 L 22.37989 -7.33343 L 22.40832 -7.34111 L 22.43874 -7.34852 L 22.47113 -7.35564 L 22.50544 -7.36246 L 22.54163 -7.36897 Z" />
    <path d="M 19.74874 9.22389 A 5 0.8562 180 0 0 29.74874 9.22389" />
    <path d="M -29.63029 0.93319 A 5 0.8562 180 0 0 -24.45141 1.60262" />
    <path d="M 26.5165 15.43798 A 2.5 0.4281 180 0 0 27.24874 15.13526 L 27.24874 9.96538" />
    <path d="M 22.24874 15.13526 A 2.5 0.4281 180 0 0 26.5165 15.43798" />
    <path d="M -22.98097 6.96202 A 2.5 0.4281 180 0 0 -22.24874 6.65931 L -22.24874 1.8317" />
    <path d="M -27.24874 6.65931 A 2.5 0.4281 180 0 0 -22.98097 6.96202" />
    <path d="M -45 -8.8073 L -45 -4.86638" />
    <path d="M 45 -8.8073 L 45 -4.86638" />
    <path d="M 19.74874 2.05771 L 19.74874 9.22389" />
    <path d="M 29.74874 0.91538 L 29.74874 9.22389" />
    <path d="M 22.24874 15.13526 L 22.24874 9.96538" />
    <path d="M -27.24874 6.65931 L -27.24874 1.48942" />
</svg>