<svg version="1.1" xmlns="http://www.w3.org/2000/svg" viewBox="-46.000001000000005 -17.725797893811837 92.00000200000001 33.411100682617146" fill="none" stroke="black" stroke-width="0.6%" vector-effect="non-scaling-stroke">
    <path d="M -31.81981 -14.59615 A 45 7.27107 360 0 1 45 -9.45473 A 45 7.27107 360 0 1 -45 -9.45473 A 45 7.27107 360 0 1 -31.81981 -14.59615 Z" />
    <path d="M -45 -5.50729 A 45 7.27107 180 0 0 45 -5.50729" />
    <path d="M -10.96016 -8.02655 L -10.72777 -8.06037 L -10.47735 -8.08971 L -10.21432 -8.11394 L -9.94444 -8.13253 L -9.67358 -8.14508 L -9.40764 -8.15131 L -9.15242 -8.15109 L -8.91348 -8.14442 L -8.69603 -8.13144 L -8.5048 -8.11245 L -8.34396 -8.08785 L -8.21702 -8.05818 L -8.12674 -8.02408 L -8.0751 -7.98631 L -8.06393 -7.96553 L -8.06354 -7.94411 L -8.07393 -7.92216 L -8.09504 -7.89982 L -8.12675 -7.87722 L -8.16886 -7.85449 L -8.22114 -7.83176 L -8.28327 -7.80917 L -8.35489 -7.78685 L -8.43558 -7.76493 L -8.52487 -7.74354 L -8.62223 -7.72281 L -8.72709 -7.70285 L -8.83883 -7.68379 L -9.07122 -7.64998 L -9.32164 -7.62064 L -9.58467 -7.59641 L -9.85455 -7.57781 L -10.12541 -7.56526 L -10.39135 -7.55903 L -10.64657 -7.55926 L -10.88551 -7.56593 L -11.10296 -7.5789 L -11.29419 -7.5979 L -11.45503 -7.6225 L -11.58197 -7.65217 L -11.67225 -7.68626 L -11.72389 -7.72404 L -11.73506 -7.74481 L -11.73545 -7.76624 L -11.72506 -7.78818 L -11.70395 -7.81052 L -11.67224 -7.83313 L -11.63013 -7.85586 L -11.57785 -7.87858 L -11.51572 -7.90117 L -11.4441 -7.92349 L -11.36341 -7.94541 L -11.27412 -7.9668 L -11.17676 -7.98753 L -11.0719 -8.00749 L -10.96016 -8.02655 Z" />
    <path d="M 1.77803 -9.16743 L 1.97616 -9.19416 L 2.20112 -9.21482 L 2.44625 -9.2288 L 2.70429 -9.23567 L 2.96762 -9.23525 L 3.22844 -9.22753 L 3.47902 -9.21275 L 3.71196 -9.19135 L 3.92036 -9.16396 L 4.09806 -9.1314 L 4.23979 -9.09461 L 4.34136 -9.0547 L 4.39977 -9.01284 L 4.41329 -8.97027 L 4.40843 -8.95743 L 4.39942 -8.94468 L 4.38628 -8.93205 L 4.36906 -8.91957 L 4.34779 -8.90728 L 4.32253 -8.89521 L 4.29336 -8.8834 L 4.26036 -8.87187 L 4.2236 -8.86066 L 4.1832 -8.8498 L 4.13926 -8.83932 L 4.0919 -8.82925 L 4.04126 -8.81961 L 3.98746 -8.81043 L 3.78933 -8.7837 L 3.56437 -8.76305 L 3.31924 -8.74907 L 3.06119 -8.7422 L 2.79787 -8.74262 L 2.53705 -8.75034 L 2.28647 -8.76511 L 2.05352 -8.78651 L 1.84512 -8.8139 L 1.66743 -8.84647 L 1.5257 -8.88326 L 1.42412 -8.92317 L 1.36572 -8.96503 L 1.3522 -9.0076 L 1.35706 -9.02043 L 1.36607 -9.03319 L 1.37921 -9.04582 L 1.39643 -9.0583 L 1.4177 -9.07059 L 1.44295 -9.08266 L 1.47212 -9.09447 L 1.50513 -9.106 L 1.54188 -9.1172 L 1.58229 -9.12806 L 1.62623 -9.13854 L 1.67358 -9.14862 L 1.72423 -9.15826 L 1.77803 -9.16743 Z" />
    <path d="M 19.74874 8.3602 A 5 0.8079 180 0 0 29.74874 8.3602" />
    <path d="M -29.74874 0.36243 A 5 0.8079 180 0 0 -21.10054 0.91489" />
    <path d="M 26.5165 14.56699 A 2.5 0.40395 180 0 0 27.24874 14.28135 L 27.24874 9.05985" />
    <path d="M 22.24874 14.28135 A 2.5 0.40395 180 0 0 26.5165 14.56699" />
    <path d="M -22.98097 6.56922 A 2.5 0.40395 180 0 0 -22.24874 6.28358 L -22.24874 1.06208" />
    <path d="M -27.24874 6.28358 A 2.5 0.40395 180 0 0 -22.98097 6.56922" />
    <path d="M -45 -9.45473 L -45 -5.50729" />
    <path d="M 45 -9.45473 L 45 -5.50729" />
    <path d="M 19.74874 1.02617 L 19.74874 8.3602" />
    <path d="M 29.74874 -0.05171 L 29.74874 8.3602" />
    <path d="M -29.74874 -0.05171 L -29.74874 0.36243" />
    <path d="M 22.24874 14.28135 L 22.24874 9.05985" />
    <path d="M -27.24874 6.28358 L -27.24874 1.06208" />
</svg>