<svg version="1.1" xmlns="http://www.w3.org/2000/svg" viewBox="-46.000001000000005 -17.4584521134181 92.00000200000001 34.24616856396991" fill="none" stroke="black" stroke-width="0.6%" vector-effect="non-scaling-stroke">
    <path d="M -31.81981 -14.16894 A 45 7.81689 360 0 1 45 -8.64157 A 45 7.81689 360 0 1 -45 -8.64157 A 45 7.81689 360 0 1 -31.81981 -14.16894 Z" />
    <path d="M -45 -4.70238 A 45 7.81689 180 0 0 45 -4.70238" />
    <path d="M -2.06255 -5.66532 L -1.89357 -5.72862 L -1.6888 -5.78267 L -1.45498 -5.82567 L -1.19978 -5.85623 L -0.93159 -5.87333 L -0.65923 -5.87641 L -0.39164 -5.86538 L -0.13763 -5.84059 L 0.09447 -5.80286 L 0.29703 -5.75343 L 0.46339 -5.69392 L 0.58808 -5.62629 L 0.667 -5.55276 L 0.69757 -5.47575 L 0.66716 -5.37952 L 0.56296 -5.28665 L 0.39018 -5.20182 L 0.15749 -5.12928 L -0.12343 -5.07265 L -0.43851 -5.03479 L -0.77195 -5.01758 L -1.10702 -5.0219 L -1.42692 -5.04752 L -1.71562 -5.09317 L -1.95863 -5.15654 L -2.14377 -5.23447 L -2.26176 -5.32305 L -2.30667 -5.41783 L -2.30669 -5.43625 L -2.30395 -5.4547 L -2.29845 -5.47312 L -2.2902 -5.4915 L -2.27923 -5.5098 L -2.26554 -5.52798 L -2.24917 -5.54601 L -2.23015 -5.56386 L -2.20851 -5.58149 L -2.18428 -5.59888 L -2.15752 -5.61598 L -2.12828 -5.63278 L -2.0966 -5.64923 L -2.06255 -5.66532 Z" />
    <path d="M 1.40405 -5.67413 L 1.55859 -5.73995 L 1.76148 -5.79373 L 2.00475 -5.83337 L 2.27887 -5.8573 L 2.57306 -5.86459 L 2.87579 -5.85496 L 3.17517 -5.82877 L 3.45946 -5.78707 L 3.71748 -5.73147 L 3.93912 -5.66418 L 4.11568 -5.58782 L 4.24023 -5.5054 L 4.30788 -5.42015 L 4.31597 -5.33541 L 4.25307 -5.24439 L 4.11682 -5.16284 L 3.91407 -5.09485 L 3.65497 -5.04383 L 3.35253 -5.01234 L 3.0219 -5.00196 L 2.67967 -5.01321 L 2.343 -5.04553 L 2.02876 -5.09729 L 1.75272 -5.16589 L 1.52872 -5.24791 L 1.36799 -5.33922 L 1.27859 -5.43525 L 1.265 -5.53118 L 1.26839 -5.54205 L 1.2728 -5.55285 L 1.27824 -5.56357 L 1.2847 -5.5742 L 1.29217 -5.58474 L 1.30066 -5.59517 L 1.31014 -5.60549 L 1.32063 -5.6157 L 1.3321 -5.62579 L 1.34456 -5.63574 L 1.358 -5.64556 L 1.37239 -5.65524 L 1.38775 -5.66476 L 1.40405 -5.67413 Z" />
    <path d="M -5.67535 -7.54527 L -5.47581 -7.57943 L -5.25394 -7.60795 L -5.01546 -7.63009 L -4.76648 -7.64528 L -4.51341 -7.65314 L -4.26274 -7.65345 L -4.02092 -7.64622 L -3.79417 -7.63163 L -3.5883 -7.61004 L -3.40861 -7.58203 L -3.25972 -7.5483 L -3.14545 -7.50973 L -3.06873 -7.4673 L -3.03155 -7.42211 L -3.04745 -7.35649 L -3.14156 -7.29103 L -3.30916 -7.22902 L -3.54185 -7.17356 L -3.82795 -7.12743 L -4.15312 -7.09295 L -4.50106 -7.07185 L -4.85432 -7.06518 L -5.19518 -7.07328 L -5.50655 -7.09574 L -5.77282 -7.13144 L -5.98064 -7.17859 L -6.11958 -7.23481 L -6.18268 -7.2973 L -6.18624 -7.31582 L -6.18334 -7.33452 L -6.17401 -7.35332 L -6.15827 -7.37214 L -6.13619 -7.39092 L -6.10787 -7.40957 L -6.07341 -7.42801 L -6.03297 -7.44618 L -5.9867 -7.46399 L -5.93479 -7.48138 L -5.87745 -7.49826 L -5.81493 -7.51459 L -5.74747 -7.53028 L -5.67535 -7.54527 Z" />
    <path d="M -2.78005 -7.2578 L -2.60661 -7.29346 L -2.40981 -7.32343 L -2.19451 -7.34697 L -1.96605 -7.36349 L -1.73009 -7.37259 L -1.49249 -7.37404 L -1.25911 -7.36781 L -1.03575 -7.35404 L -0.82793 -7.33309 L -0.64081 -7.30546 L -0.47902 -7.27185 L -0.34657 -7.23309 L -0.24675 -7.19013 L -0.18201 -7.14404 L -0.07289 -7.1365 L 0.03301 -7.12714 L 0.13506 -7.11603 L 0.23265 -7.10324 L 0.3252 -7.08883 L 0.41218 -7.0729 L 0.49306 -7.05553 L 0.56737 -7.03684 L 0.63466 -7.01692 L 0.69455 -6.99591 L 0.74667 -6.97392 L 0.79071 -6.95108 L 0.82642 -6.92754 L 0.85359 -6.90342 L 0.85417 -6.86492 L 0.85473 -6.82613 L 0.85527 -6.78705 L 0.85579 -6.74768 L 0.85629 -6.70801 L 0.85677 -6.66806 L 0.85723 -6.62781 L 0.85766 -6.58728 L 0.85807 -6.54646 L 0.85847 -6.50536 L 0.85884 -6.46397 L 0.85919 -6.4223 L 0.85952 -6.38034 L 0.85983 -6.33811" />
    <path d="M -2.09258 -6.76098 L -2.22049 -6.76837 L -2.34392 -6.77813 L -2.4619 -6.79018 L -2.57346 -6.80443 L -2.67771 -6.82076 L -2.77383 -6.83904 L -2.86103 -6.85913 L -2.93861 -6.88086 L -3.00596 -6.90406 L -3.06253 -6.92854 L -3.10786 -6.95411 L -3.1416 -6.98056 L -3.16348 -7.00767 L -3.17331 -7.03524 L -3.17335 -7.05221 L -3.16887 -7.06922 L -3.15987 -7.08621 L -3.14638 -7.10313 L -3.12845 -7.11994 L -3.10612 -7.13658 L -3.07947 -7.153 L -3.04857 -7.16915 L -3.01352 -7.18498 L -2.97442 -7.20046 L -2.93139 -7.21552 L -2.88455 -7.23013 L -2.83406 -7.24424 L -2.78005 -7.2578" />
    <path d="M 0.2094 -6.56458 L 0.02607 -6.54117 L -0.16992 -6.52345 L -0.37472 -6.51176 L -0.58431 -6.50635 L -0.79456 -6.50732 L -1.00135 -6.51464 L -1.20061 -6.52818 L -1.38842 -6.54767 L -1.5611 -6.57272 L -1.71524 -6.60284 L -1.84783 -6.63744 L -1.95625 -6.67585 L -2.03837 -6.7173 L -2.09258 -6.76098" />
    <path d="M 0.85359 -6.90342 L 1.05979 -6.9256 L 1.28137 -6.94001 L 1.51291 -6.94628 L 1.74876 -6.94427 L 1.98318 -6.93402 L 2.21043 -6.91579 L 2.42497 -6.89002 L 2.62156 -6.85734 L 2.79542 -6.81854 L 2.94228 -6.77457 L 3.05858 -6.72651 L 3.14147 -6.67553 L 3.18892 -6.62288 L 3.19979 -6.56983 L 3.15732 -6.50098 L 3.05176 -6.43668 L 2.88766 -6.3797 L 2.67205 -6.33248 L 2.41422 -6.29705 L 2.12525 -6.27494 L 1.81755 -6.2671 L 1.50436 -6.27385 L 1.19913 -6.29492 L 0.91499 -6.3294 L 0.66415 -6.3758 L 0.45739 -6.43214 L 0.3036 -6.49598 L 0.2094 -6.56458" />
    <path d="M -10.96016 -7.10618 L -10.72893 -7.14237 L -10.47979 -7.17381 L -10.21813 -7.1998 L -9.9496 -7.2198 L -9.67998 -7.23337 L -9.4151 -7.24021 L -9.16068 -7.24019 L -8.9222 -7.23329 L -8.70482 -7.21968 L -8.51322 -7.19964 L -8.35155 -7.1736 L -8.22329 -7.14214 L -8.13121 -7.10592 L -8.0773 -7.06572 L -8.06469 -7.04328 L -8.06305 -7.02011 L -8.0724 -6.99635 L -8.09266 -6.97215 L -8.12374 -6.94765 L -8.16543 -6.92299 L -8.21749 -6.89833 L -8.27961 -6.87381 L -8.35141 -6.84958 L -8.43247 -6.82578 L -8.52231 -6.80255 L -8.62038 -6.78004 L -8.7261 -6.75838 L -8.83883 -6.73769 L -9.07006 -6.7015 L -9.3192 -6.67007 L -9.58086 -6.64408 L -9.84939 -6.62408 L -10.11901 -6.61051 L -10.38389 -6.60367 L -10.63831 -6.60369 L -10.87679 -6.61058 L -11.09417 -6.6242 L -11.28577 -6.64424 L -11.44744 -6.67027 L -11.5757 -6.70174 L -11.66778 -6.73796 L -11.72169 -6.77815 L -11.7343 -6.8006 L -11.73594 -6.82377 L -11.72659 -6.84752 L -11.70633 -6.87173 L -11.67525 -6.89623 L -11.63356 -6.92088 L -11.5815 -6.94555 L -11.51938 -6.97007 L -11.44758 -6.9943 L -11.36652 -7.0181 L -11.27668 -7.04132 L -11.17861 -7.06384 L -11.07289 -7.0855 L -10.96016 -7.10618 Z" />
    <path d="M 4.24921 -6.72755 L 4.43132 -6.77103 L 4.65921 -6.80373 L 4.92433 -6.82443 L 5.21673 -6.83235 L 5.52542 -6.82719 L 5.83881 -6.80915 L 6.14514 -6.77891 L 6.4329 -6.73759 L 6.69129 -6.68676 L 6.9106 -6.62832 L 7.0826 -6.56446 L 7.20083 -6.49758 L 7.26085 -6.4302 L 7.26041 -6.36484 L 7.18466 -6.29501 L 7.032 -6.23465 L 6.81007 -6.18681 L 6.53 -6.15388 L 6.20584 -6.1375 L 5.85384 -6.13851 L 5.49166 -6.15684 L 5.13744 -6.19158 L 4.80896 -6.241 L 4.52269 -6.3026 L 4.29298 -6.3733 L 4.13135 -6.44957 L 4.0459 -6.52756 L 4.04093 -6.60337 L 4.04649 -6.61324 L 4.05352 -6.62298 L 4.06202 -6.6326 L 4.07198 -6.64208 L 4.08339 -6.65142 L 4.09624 -6.6606 L 4.11052 -6.66962 L 4.12622 -6.67847 L 4.14332 -6.68714 L 4.1618 -6.69563 L 4.18164 -6.70392 L 4.20284 -6.71201 L 4.22537 -6.71989 L 4.24921 -6.72755 Z" />
    <path d="M 4.42226 -7.71859 L 4.58792 -7.74415 L 4.77716 -7.76443 L 4.98585 -7.77898 L 5.20943 -7.7875 L 5.44304 -7.78978 L 5.68156 -7.78579 L 5.9198 -7.77561 L 6.15256 -7.75947 L 6.37476 -7.7377 L 6.58155 -7.7108 L 6.76842 -7.67934 L 6.93129 -7.64401 L 7.06661 -7.60559 L 7.17142 -7.56491 L 7.15385 -7.53035 L 7.13622 -7.4957 L 7.11853 -7.46093 L 7.10078 -7.42607 L 7.08297 -7.3911 L 7.06511 -7.35603 L 7.04718 -7.32085 L 7.0292 -7.28557 L 7.01116 -7.25019 L 6.99307 -7.21471 L 6.97491 -7.17913 L 6.9567 -7.14345 L 6.93844 -7.10766 L 6.92011 -7.07178" />
    <path d="M 4.05564 -7.52464 L 4.05425 -7.52789 L 4.05306 -7.53115 L 4.05209 -7.5344 L 4.05132 -7.53764 L 4.05076 -7.54088 L 4.05041 -7.54412 L 4.05027 -7.54735 L 4.05034 -7.55058 L 4.05061 -7.5538 L 4.0511 -7.55701 L 4.05179 -7.56021 L 4.0527 -7.56341 L 4.05381 -7.5666 L 4.05513 -7.56978 L 4.06218 -7.58198 L 4.07232 -7.59403 L 4.08553 -7.6059 L 4.10179 -7.61757 L 4.12107 -7.62902 L 4.14332 -7.64022 L 4.16851 -7.65116 L 4.19658 -7.66181 L 4.22749 -7.67215 L 4.26117 -7.68217 L 4.29756 -7.69184 L 4.33659 -7.70115 L 4.37818 -7.71007 L 4.42226 -7.71859" />
    <path d="M 6.56813 -7.14034 L 6.34382 -7.1228 L 6.1003 -7.11265 L 5.84401 -7.11016 L 5.58173 -7.1154 L 5.32038 -7.12822 L 5.06687 -7.1483 L 4.8279 -7.17509 L 4.60979 -7.20788 L 4.4183 -7.24583 L 4.25849 -7.28791 L 4.1346 -7.33302 L 4.04988 -7.37997 L 4.00658 -7.42751 L 4.00585 -7.47439 L 4.00764 -7.47807 L 4.00971 -7.48175 L 4.01204 -7.48541 L 4.01465 -7.48906 L 4.01754 -7.4927 L 4.02069 -7.49631 L 4.02412 -7.49992 L 4.02781 -7.5035 L 4.03178 -7.50707 L 4.03602 -7.51062 L 4.04052 -7.51415 L 4.04529 -7.51767 L 4.05033 -7.52116 L 4.05564 -7.52464 L 4.05233 -7.51732 L 4.04902 -7.51 L 4.04572 -7.50268 L 4.04241 -7.49536 L 4.0391 -7.48805 L 4.0358 -7.48073 L 4.03249 -7.47341 L 4.02918 -7.46609 L 4.02587 -7.45877 L 4.02257 -7.45145 L 4.01926 -7.44413 L 4.01595 -7.43681 L 4.01264 -7.42949 L 4.00934 -7.42218" />
    <path d="M 7.53076 -7.00218 L 7.4512 -7.0087 L 7.37263 -7.01582 L 7.29523 -7.02351 L 7.21917 -7.03177 L 7.14463 -7.04056 L 7.07176 -7.04987 L 7.00074 -7.05968 L 6.93173 -7.06997 L 6.86488 -7.08071 L 6.80034 -7.09188 L 6.73826 -7.10346 L 6.67878 -7.11541 L 6.62202 -7.12771 L 6.56813 -7.14034" />
    <path d="M 7.05648 -6.94066 L 7.08333 -6.94655 L 7.11136 -6.95223 L 7.14055 -6.95768 L 7.17088 -6.96292 L 7.20231 -6.96792 L 7.23483 -6.9727 L 7.26841 -6.97724 L 7.30303 -6.98155 L 7.33864 -6.98561 L 7.37523 -6.98942 L 7.41277 -6.99299 L 7.45123 -6.99631 L 7.49057 -6.99937 L 7.53076 -7.00218 L 7.50324 -6.97508 L 7.47547 -6.94757 L 7.44745 -6.91965 L 7.41917 -6.89132 L 7.39064 -6.86258 L 7.36186 -6.83343 L 7.33283 -6.80388 L 7.30355 -6.77392 L 7.27402 -6.74355 L 7.24424 -6.71278 L 7.21422 -6.68161 L 7.18396 -6.65004 L 7.15344 -6.61806 L 7.12269 -6.58569" />
    <path d="M 8.74527 -6.9833 L 8.94123 -6.96513 L 9.13219 -6.94334 L 9.31573 -6.91819 L 9.48949 -6.89001 L 9.65125 -6.85915 L 9.79894 -6.82603 L 9.93067 -6.79104 L 10.04476 -6.75466 L 10.13976 -6.71733 L 10.21444 -6.67954 L 10.26785 -6.64176 L 10.29931 -6.6045 L 10.30842 -6.5682 L 10.29505 -6.53336 L 10.20301 -6.47023 L 10.02811 -6.41768 L 9.77914 -6.37834 L 9.46858 -6.35417 L 9.112 -6.3464 L 8.72729 -6.35541 L 8.33372 -6.38076 L 7.95105 -6.42116 L 7.59845 -6.47459 L 7.29361 -6.53838 L 7.05181 -6.60932 L 6.88519 -6.68387 L 6.80208 -6.75827 L 6.80667 -6.8288 L 6.81417 -6.83796 L 6.82331 -6.84698 L 6.83409 -6.85584 L 6.84649 -6.86453 L 6.86051 -6.87305 L 6.87612 -6.88139 L 6.89331 -6.88954 L 6.91208 -6.8975 L 6.93239 -6.90524 L 6.95424 -6.91278 L 6.97759 -6.9201 L 7.00243 -6.92719 L 7.02874 -6.93405 L 7.05648 -6.94066" />
    <path d="M 7.17142 -7.56491 L 7.41394 -7.56992 L 7.66719 -7.56819 L 7.92547 -7.55975 L 8.18295 -7.54479 L 8.43381 -7.52366 L 8.67239 -7.49683 L 8.89332 -7.46489 L 9.0916 -7.42859 L 9.26275 -7.38873 L 9.40292 -7.34621 L 9.50894 -7.30199 L 9.57843 -7.25708 L 9.6098 -7.21248 L 9.60235 -7.1692 L 9.58636 -7.15043 L 9.56261 -7.13221 L 9.53121 -7.11462 L 9.4923 -7.09775 L 9.44607 -7.08167 L 9.39272 -7.06645 L 9.3325 -7.05218 L 9.26568 -7.0389 L 9.19257 -7.02668 L 9.1135 -7.01558 L 9.02884 -7.00565 L 8.93897 -6.99694 L 8.8443 -6.98947 L 8.74527 -6.9833" />
    <path d="M -0.18201 -7.14404 L -0.17663 -7.10045 L -0.17125 -7.05679 L -0.16587 -7.01307 L -0.16049 -6.9693 L -0.15511 -6.92547 L -0.14972 -6.88158 L -0.14434 -6.83764 L -0.13895 -6.79363 L -0.13357 -6.74957 L -0.12818 -6.70546 L -0.1228 -6.66128 L -0.11741 -6.61705 L -0.11202 -6.57277 L -0.10663 -6.52843" />
    <path d="M 6.51864 -6.15296 L 6.56955 -6.19606 L 6.61697 -6.23314 L 6.66088 -6.26417 L 6.70125 -6.28914 L 6.73806 -6.30804 L 6.77129 -6.32086 L 6.80093 -6.32759 L 6.82696 -6.32822 L 6.84936 -6.32277 L 6.86812 -6.31122 L 6.88324 -6.29359 L 6.8947 -6.26988 L 6.9025 -6.24012 L 6.90663 -6.2043" />
    <path d="M 6.86745 -6.31179 L 6.85878 -6.30235 L 6.8501 -6.29287 L 6.84141 -6.28337 L 6.8327 -6.27384 L 6.82397 -6.26428 L 6.81522 -6.2547 L 6.80646 -6.24509 L 6.79769 -6.23545 L 6.78889 -6.22579 L 6.78008 -6.21609 L 6.77126 -6.20638 L 6.76242 -6.19663 L 6.75356 -6.18686 L 6.74469 -6.17706" />
    <path d="M 8.51266 -6.36726 L 8.53305 -6.41643 L 8.55288 -6.46481 L 8.57212 -6.51241 L 8.59078 -6.55922 L 8.60886 -6.60524 L 8.62636 -6.65047 L 8.64328 -6.6949 L 8.65961 -6.73852 L 8.67536 -6.78134 L 8.69052 -6.82336 L 8.70509 -6.86457 L 8.71907 -6.90496 L 8.73246 -6.94454 L 8.74527 -6.9833" />
    <path d="M 19.74874 9.44466 A 5 0.86854 180 0 0 29.74874 9.44466" />
    <path d="M -29.1828 1.24791 A 5 0.86854 180 0 0 -25.8785 1.69261" />
    <path d="M 26.5165 15.66052 A 2.5 0.43427 180 0 0 27.24874 15.35344 L 27.24874 10.19684" />
    <path d="M 22.24874 15.35344 A 2.5 0.43427 180 0 0 26.5165 15.66052" />
    <path d="M -22.98097 7.06238 A 2.5 0.43427 180 0 0 -22.24874 6.75531 L -22.24874 2.09226" />
    <path d="M -27.24874 6.75531 A 2.5 0.43427 180 0 0 -22.98097 7.06238" />
    <path d="M -45 -8.64157 L -45 -4.70238" />
    <path d="M 45 -8.64157 L 45 -4.70238" />
    <path d="M 19.74874 2.32152 L 19.74874 9.44466" />
    <path d="M 29.74874 1.16273 L 29.74874 9.44466" />
    <path d="M 22.24874 15.35344 L 22.24874 10.19684" />
    <path d="M -27.24874 6.75531 L -27.24874 1.59871" />
</svg>