<svg version="1.1" xmlns="http://www.w3.org/2000/svg" viewBox="-46.000001000000005 -17.864394911213797 92.00000200000001 32.97315490426383" fill="none" stroke="black" stroke-width="0.6%" vector-effect="non-scaling-stroke">
    <path d="M -31.81981 -14.81835 A 45 6.98562 360 0 1 45 -9.87877 A 45 6.98562 360 0 1 -45 -9.87877 A 45 6.98562 360 0 1 -31.81981 -14.81835 Z" />
    <path d="M -45 -5.92726 A 45 6.98562 180 0 0 45 -5.92726" />
    <path d="M -10.96016 -8.50667 L -10.72718 -8.53923 L -10.47608 -8.56747 L -10.21236 -8.59078 L -9.94178 -8.60863 L -9.67028 -8.62065 L -9.40379 -8.62657 L -9.14817 -8.62626 L -8.90899 -8.61972 L -8.69151 -8.6071 L -8.50047 -8.58868 L -8.34008 -8.56485 L -8.21383 -8.53615 L -8.12449 -8.50319 L -8.07402 -8.4667 L -8.06359 -8.44679 L -8.06384 -8.42628 L -8.07476 -8.40527 L -8.0963 -8.38389 L -8.12833 -8.36227 L -8.17066 -8.34053 L -8.22304 -8.3188 L -8.28517 -8.29721 L -8.3567 -8.27587 L -8.4372 -8.25492 L -8.5262 -8.23448 L -8.62319 -8.21466 L -8.7276 -8.19559 L -8.83883 -8.17736 L -9.07181 -8.1448 L -9.32291 -8.11656 L -9.58663 -8.09326 L -9.85721 -8.0754 L -10.12871 -8.06338 L -10.3952 -8.05746 L -10.65082 -8.05778 L -10.89 -8.06431 L -11.10748 -8.07693 L -11.29852 -8.09536 L -11.45891 -8.11918 L -11.58516 -8.14789 L -11.6745 -8.18084 L -11.72497 -8.21733 L -11.7354 -8.23724 L -11.73515 -8.25776 L -11.72423 -8.27877 L -11.70269 -8.30014 L -11.67066 -8.32176 L -11.62833 -8.3435 L -11.57595 -8.36523 L -11.51382 -8.38682 L -11.44229 -8.40816 L -11.36179 -8.42911 L -11.27279 -8.44955 L -11.1758 -8.46937 L -11.07139 -8.48844 L -10.96016 -8.50667 Z" />
    <path d="M 8.39949 -8.57487 L 8.6248 -8.6016 L 8.89525 -8.61913 L 9.20127 -8.62685 L 9.53203 -8.62447 L 9.8758 -8.6121 L 10.22041 -8.59015 L 10.55366 -8.55942 L 10.86373 -8.52099 L 11.13965 -8.47621 L 11.37164 -8.42669 L 11.55149 -8.37416 L 11.67282 -8.3205 L 11.73133 -8.26759 L 11.72497 -8.21733 L 11.71637 -8.2082 L 11.70543 -8.19924 L 11.69217 -8.19047 L 11.67659 -8.18189 L 11.65872 -8.17352 L 11.63858 -8.16537 L 11.6162 -8.15744 L 11.5916 -8.14976 L 11.56482 -8.14232 L 11.5359 -8.13513 L 11.50486 -8.12822 L 11.47175 -8.12158 L 11.43661 -8.11522 L 11.39949 -8.10916 L 11.17419 -8.08244 L 10.90374 -8.0649 L 10.59772 -8.05719 L 10.26696 -8.05956 L 9.92319 -8.07194 L 9.57858 -8.09388 L 9.24533 -8.12461 L 8.93526 -8.16305 L 8.65934 -8.20782 L 8.42735 -8.25735 L 8.2475 -8.30987 L 8.12617 -8.36354 L 8.06766 -8.41644 L 8.07402 -8.4667 L 8.08262 -8.47583 L 8.09355 -8.48479 L 8.10682 -8.49356 L 8.1224 -8.50214 L 8.14027 -8.51051 L 8.16041 -8.51866 L 8.18279 -8.52659 L 8.20739 -8.53428 L 8.23417 -8.54172 L 8.26309 -8.5489 L 8.29413 -8.55581 L 8.32724 -8.56245 L 8.36238 -8.56881 L 8.39949 -8.57487 Z" />
    <path d="M 19.74874 7.7934 A 5 0.77618 180 0 0 29.74874 7.7934" />
    <path d="M -29.74874 0.10961 A 5 0.77618 180 0 0 -19.96122 0.33348" />
    <path d="M 26.5165 13.99509 A 2.5 0.38809 180 0 0 27.24874 13.72067 L 27.24874 8.4656" />
    <path d="M 22.24874 13.72067 A 2.5 0.38809 180 0 0 26.5165 13.99509" />
    <path d="M -22.98097 6.3113 A 2.5 0.38809 180 0 0 -22.24874 6.03688 L -22.24874 0.78181" />
    <path d="M -27.24874 6.03688 A 2.5 0.38809 180 0 0 -22.98097 6.3113" />
    <path d="M -45 -9.87877 L -45 -5.92726" />
    <path d="M 45 -9.87877 L 45 -5.92726" />
    <path d="M 19.74874 0.3497 L 19.74874 7.7934" />
    <path d="M 29.74874 -0.68587 L 29.74874 7.7934" />
    <path d="M -29.74874 -0.68587 L -29.74874 0.10961" />
    <path d="M 22.24874 13.72067 L 22.24874 8.4656" />
    <path d="M -27.24874 6.03688 L -27.24874 0.78181" />
</svg>