<svg version="1.1" xmlns="http://www.w3.org/2000/svg" viewBox="-46.000001 -17.496526668279245 92.000002 34.12801152252699" fill="none" stroke="black" stroke-width="0.6%" vector-effect="non-scaling-stroke">
    <path d="M -31.81981 -14.22967 A 45 7.73953 360 0 1 45 -8.75699 A 45 7.73953 360 0 1 -45 -8.75699 A 45 7.73953 360 0 1 -31.81981 -14.22967 Z" />
    <path d="M -45 -4.8166 A 45 7.73953 180 0 0 45 -4.8166" />
    <path d="M -15.37678 -5.50848 L -15.35481 -5.50317 L -15.33394 -5.49773 L -15.31418 -5.49215 L -15.29555 -5.48645 L -15.27807 -5.48062 L -15.26173 -5.47467 L -15.24656 -5.46861 L -15.23255 -5.46243 L -15.21973 -5.45614 L -15.2081 -5.44975 L -15.19766 -5.44326 L -15.18842 -5.43667 L -15.1804 -5.42999 L -15.17358 -5.42322 L -15.16678 -5.3599 L -15.25605 -5.29316 L -15.43691 -5.22634 L -15.7003 -5.16279 L -16.03301 -5.1057 L -16.41836 -5.05794 L -16.83701 -5.02189 L -17.26799 -4.99937 L -17.68968 -4.9915 L -18.08093 -4.99869 L -18.42212 -5.02056 L -18.69615 -5.05602 L -18.88928 -5.1033 L -18.99181 -5.16002 L -19.00268 -5.21598 L -18.93767 -5.27493 L -18.79933 -5.33454 L -18.59314 -5.39245 L -18.32724 -5.44638 L -18.01216 -5.49419 L -17.66034 -5.53399 L -17.28568 -5.56421 L -16.903 -5.58366 L -16.52743 -5.59157 L -16.1738 -5.58762 L -15.85609 -5.57197 L -15.58688 -5.54523 L -15.37678 -5.50848 Z" />
    <path d="M -8.29059 -5.24538 L -8.19774 -5.23798 L -8.10904 -5.22904 L -8.0249 -5.2186 L -7.9457 -5.20672 L -7.87181 -5.19345 L -7.80359 -5.17884 L -7.74134 -5.16298 L -7.68536 -5.14592 L -7.6359 -5.12776 L -7.5932 -5.10857 L -7.55745 -5.08845 L -7.52883 -5.06748 L -7.50745 -5.04577 L -7.49343 -5.02342 L -7.49976 -4.94663 L -7.58579 -4.86788 L -7.74719 -4.79111 L -7.97587 -4.72016 L -8.26038 -4.65861 L -8.58643 -4.60953 L -8.93768 -4.57538 L -9.29652 -4.55788 L -9.64496 -4.5579 L -9.96551 -4.57545 L -10.24212 -4.60964 L -10.4609 -4.65876 L -10.61089 -4.72034 L -10.68456 -4.79131 L -10.68868 -4.84437 L -10.65384 -4.89896 L -10.5809 -4.95376 L -10.47164 -5.00743 L -10.3287 -5.05866 L -10.15558 -5.10621 L -9.95649 -5.14891 L -9.73628 -5.18574 L -9.50031 -5.21578 L -9.25432 -5.23832 L -9.00431 -5.2528 L -8.75635 -5.25886 L -8.5165 -5.25637 L -8.29059 -5.24538 Z" />
    <path d="M 16.35536 -4.5739 L 16.49684 -4.60432 L 16.67563 -4.62959 L 16.88767 -4.64914 L 17.12816 -4.66254 L 17.39166 -4.66948 L 17.67218 -4.6698 L 17.96337 -4.6635 L 18.25863 -4.65072 L 18.55128 -4.63174 L 18.83467 -4.607 L 19.10238 -4.57706 L 19.34836 -4.5426 L 19.56702 -4.5044 L 19.75341 -4.46332 A 5 0.85995 180 0 0 19.84887 -4.32922 A 5 0.85995 180 0 0 20.03099 -4.21562 L 19.87494 -4.16747 L 19.63994 -4.12888 L 19.3367 -4.10163 L 18.97905 -4.08696 L 18.58329 -4.08553 L 18.16746 -4.0974 L 17.75052 -4.12205 L 17.35147 -4.15834 L 16.98851 -4.20461 L 16.67817 -4.25877 L 16.4346 -4.31834 L 16.26891 -4.38061 L 16.18866 -4.44273 L 16.19749 -4.50188 L 16.20322 -4.50747 L 16.20983 -4.51299 L 16.2173 -4.51846 L 16.22563 -4.52386 L 16.23482 -4.5292 L 16.24486 -4.53447 L 16.25576 -4.53967 L 16.2675 -4.5448 L 16.28008 -4.54985 L 16.29349 -4.55482 L 16.30773 -4.55972 L 16.3228 -4.56453 L 16.33867 -4.56926 L 16.35536 -4.5739 Z" />
    <path d="M 13.57947 -6.84852 L 13.72863 -6.84424 L 13.87425 -6.83632 L 14.01486 -6.82484 L 14.14904 -6.80992 L 14.27542 -6.79171 L 14.39272 -6.77039 L 14.49976 -6.74618 L 14.59544 -6.71933 L 14.6788 -6.6901 L 14.749 -6.6588 L 14.80531 -6.62574 L 14.84718 -6.59126 L 14.87417 -6.5557 L 14.88602 -6.51942 L 14.85757 -6.43792 L 14.75504 -6.35879 L 14.58356 -6.286 L 14.35172 -6.22321 L 14.07116 -6.17356 L 13.75593 -6.13954 L 13.42186 -6.12286 L 13.08568 -6.12435 L 12.76427 -6.14394 L 12.47372 -6.18064 L 12.22862 -6.23263 L 12.04126 -6.29728 L 11.92102 -6.37136 L 11.87394 -6.45115 L 11.88028 -6.49612 L 11.90952 -6.54093 L 11.96123 -6.58488 L 12.03461 -6.62731 L 12.12854 -6.66758 L 12.24158 -6.70505 L 12.37201 -6.73918 L 12.51784 -6.76942 L 12.67684 -6.79532 L 12.84658 -6.81649 L 13.02447 -6.8326 L 13.20779 -6.8434 L 13.39373 -6.84874 L 13.57947 -6.84852 Z" />
    <path d="M 8.39949 -7.31237 L 8.62607 -7.3421 L 8.89822 -7.36155 L 9.20619 -7.37 L 9.53897 -7.36715 L 9.88466 -7.35312 L 10.23087 -7.32839 L 10.56523 -7.29386 L 10.87576 -7.25076 L 11.15136 -7.20064 L 11.38217 -7.14528 L 11.55992 -7.08666 L 11.67825 -7.0269 L 11.73293 -6.96811 L 11.72201 -6.91241 L 11.62488 -6.85316 L 11.44123 -6.804 L 11.18027 -6.76739 L 10.85509 -6.74517 L 10.48199 -6.73846 L 10.07968 -6.74759 L 9.66834 -6.77211 L 9.26859 -6.81077 L 8.90047 -6.86166 L 8.58245 -6.9222 L 8.33047 -6.98938 L 8.15717 -7.05981 L 8.07124 -7.12998 L 8.07698 -7.19635 L 8.08617 -7.20613 L 8.09757 -7.21572 L 8.11118 -7.22511 L 8.12697 -7.2343 L 8.14493 -7.24327 L 8.16503 -7.252 L 8.18725 -7.2605 L 8.21155 -7.26874 L 8.23793 -7.27672 L 8.26633 -7.28443 L 8.29672 -7.29186 L 8.32908 -7.29899 L 8.36335 -7.30583 L 8.39949 -7.31237 Z" />
    <path d="M -3.43373 -7.52312 L -3.58303 -7.52826 L -3.72807 -7.53706 L -3.86735 -7.54944 L -3.99944 -7.56527 L -4.12297 -7.58439 L -4.23669 -7.60659 L -4.33942 -7.63166 L -4.43011 -7.65934 L -4.50783 -7.68933 L -4.57177 -7.72134 L -4.62128 -7.75503 L -4.65584 -7.79006 L -4.67512 -7.82606 L -4.6789 -7.86267 L -4.63225 -7.94394 L -4.51216 -8.02226 L -4.32465 -8.09371 L -4.07913 -8.15469 L -3.7879 -8.20215 L -3.46556 -8.23372 L -3.12829 -8.2478 L -2.793 -8.24369 L -2.47649 -8.2216 L -2.19464 -8.18264 L -1.96158 -8.12876 L -1.789 -8.06266 L -1.68555 -7.98765 L -1.65642 -7.9075 L -1.67266 -7.86284 L -1.71148 -7.81851 L -1.7723 -7.77519 L -1.85419 -7.73353 L -1.95592 -7.69416 L -2.07596 -7.65767 L -2.21248 -7.62461 L -2.36343 -7.5955 L -2.52653 -7.57075 L -2.69931 -7.55075 L -2.87917 -7.53581 L -3.06338 -7.52613 L -3.24917 -7.52188 L -3.43373 -7.52312 Z" />
    <path d="M 8.95413 -7.91724 L 8.98566 -7.91104 L 9.01556 -7.90459 L 9.0438 -7.8979 L 9.07035 -7.89098 L 9.09519 -7.88384 L 9.11829 -7.87648 L 9.13963 -7.86891 L 9.15918 -7.86114 L 9.17692 -7.85318 L 9.19284 -7.84502 L 9.20692 -7.8367 L 9.21915 -7.8282 L 9.22951 -7.81954 L 9.23799 -7.81073 L 9.24418 -7.74534 L 9.15733 -7.67622 L 8.9818 -7.60684 L 8.7264 -7.54068 L 8.40393 -7.48105 L 8.03056 -7.43095 L 7.62501 -7.39288 L 7.20762 -7.36876 L 6.79932 -7.35979 L 6.42058 -7.36643 L 6.09039 -7.38834 L 5.82532 -7.42442 L 5.63865 -7.47287 L 5.53974 -7.53125 L 5.52871 -7.58703 L 5.58638 -7.64591 L 5.7106 -7.70571 L 5.89681 -7.76423 L 6.13811 -7.81931 L 6.4256 -7.86891 L 6.74866 -7.91121 L 7.09536 -7.94463 L 7.4529 -7.96795 L 7.80808 -7.9803 L 8.14777 -7.98123 L 8.45944 -7.9707 L 8.73158 -7.94911 L 8.95413 -7.91724 Z" />
    <path d="M -0.60258 -8.59193 L -0.40993 -8.59335 L -0.21581 -8.5888 L -0.02341 -8.57834 L 0.1641 -8.56216 L 0.34364 -8.54051 L 0.51225 -8.51376 L 0.66716 -8.48235 L 0.80582 -8.44679 L 0.92594 -8.40767 L 1.02555 -8.36562 L 1.10301 -8.32136 L 1.15704 -8.27559 L 1.18676 -8.22908 L 1.19167 -8.18259 L 1.14068 -8.10366 L 1.01642 -8.03109 L 0.82513 -7.9685 L 0.57639 -7.91905 L 0.28269 -7.8852 L -0.04125 -7.86866 L -0.37919 -7.87025 L -0.71419 -7.88991 L -1.02943 -7.92663 L -1.30913 -7.97858 L -1.53924 -8.04315 L -1.70824 -8.11711 L -1.80764 -8.19675 L -1.83247 -8.27807 L -1.81986 -8.31238 L -1.79345 -8.34592 L -1.75345 -8.37841 L -1.70026 -8.40953 L -1.63435 -8.43899 L -1.55633 -8.46654 L -1.46693 -8.4919 L -1.36696 -8.51486 L -1.25735 -8.5352 L -1.13911 -8.55273 L -1.01333 -8.56728 L -0.88116 -8.57874 L -0.74382 -8.58698 L -0.60258 -8.59193 Z" />
    <path d="M -23.04307 -5.51554 L -23.03233 -5.51187 L -23.02206 -5.50815 L -23.01228 -5.5044 L -23.00298 -5.5006 L -22.99417 -5.49677 L -22.98586 -5.4929 L -22.97803 -5.48899 L -22.97071 -5.48504 L -22.96387 -5.48106 L -22.95754 -5.47705 L -22.95171 -5.47301 L -22.94638 -5.46893 L -22.94155 -5.46482 L -22.93723 -5.46068 L -22.93029 -5.39987 L -23.02347 -5.33646 L -23.21212 -5.27362 L -23.48675 -5.2145 L -23.83361 -5.16206 L -24.23531 -5.11895 L -24.67169 -5.08731 L -25.12087 -5.06874 L -25.56034 -5.06416 L -25.96806 -5.07381 L -26.32357 -5.0972 L -26.60906 -5.13316 L -26.81021 -5.17989 L -26.91693 -5.23504 L -26.92671 -5.2914 L -26.8499 -5.35021 L -26.68984 -5.40892 L -26.45345 -5.46498 L -26.15097 -5.51597 L -25.7955 -5.55969 L -25.40243 -5.59423 L -24.98877 -5.6181 L -24.57245 -5.63027 L -24.17148 -5.63022 L -23.80322 -5.61794 L -23.48363 -5.59396 L -23.22654 -5.55933 L -23.04307 -5.51554 Z" />
    <path d="M -25.43511 -7.202 L -25.5259 -7.15038 L -25.70347 -7.10331 L -25.96014 -7.06281 L -26.28483 -7.03063 L -26.6635 -7.00818 L -27.07978 -6.99641 L -27.51567 -6.99584 L -27.95233 -7.00649 L -28.3709 -7.0279 L -28.75326 -7.05915 L -29.08291 -7.09888 L -29.34558 -7.14538 L -29.52992 -7.19664 L -29.62797 -7.25043 L -29.63226 -7.30857 L -29.53131 -7.36404 L -29.33018 -7.41406 L -29.03897 -7.45613 L -28.67226 -7.48814 L -28.24846 -7.50848 L -27.78881 -7.51612 L -27.31636 -7.5107 L -26.8548 -7.49248 L -26.42727 -7.46237 L -26.05522 -7.42188 L -25.7573 -7.37305 L -25.54845 -7.31832 L -25.43914 -7.26044 L -25.4353 -7.25623 L -25.432 -7.25203 L -25.42925 -7.24783 L -25.42705 -7.24363 L -25.42539 -7.23944 L -25.42428 -7.23525 L -25.42372 -7.23106 L -25.4237 -7.22688 L -25.42424 -7.22271 L -25.42532 -7.21855 L -25.42695 -7.21439 L -25.42912 -7.21025 L -25.43185 -7.20612 L -25.43511 -7.202 Z" />
    <path d="M -15.72296 -6.01552 L -15.71907 -6.01355 L -15.7153 -6.01157 L -15.71167 -6.00958 L -15.70817 -6.00758 L -15.7048 -6.00557 L -15.70157 -6.00356 L -15.69846 -6.00154 L -15.69549 -5.99951 L -15.69266 -5.99748 L -15.68995 -5.99544 L -15.68738 -5.9934 L -15.68494 -5.99134 L -15.68264 -5.98928 L -15.68047 -5.98722 L -15.6739 -5.92803 L -15.77033 -5.86726 L -15.96493 -5.80795 L -16.24794 -5.75307 L -16.60516 -5.70538 L -17.01869 -5.66727 L -17.46778 -5.64065 L -17.92992 -5.62685 L -18.38194 -5.62656 L -18.80116 -5.63981 L -19.16657 -5.66592 L -19.45985 -5.70359 L -19.66628 -5.75092 L -19.77552 -5.80555 L -19.78326 -5.8144 L -19.78856 -5.82335 L -19.79143 -5.83238 L -19.79186 -5.84149 L -19.78984 -5.85067 L -19.78538 -5.8599 L -19.77849 -5.86917 L -19.76917 -5.87847 L -19.75744 -5.8878 L -19.7433 -5.89713 L -19.72678 -5.90647 L -19.7079 -5.91579 L -19.68667 -5.92509 L -19.66312 -5.93435 L -19.87354 -5.92354 L -20.09278 -5.92037 L -20.31616 -5.92491 L -20.53891 -5.93706 L -20.75626 -5.95657 L -20.96358 -5.98301 L -21.15644 -6.01583 L -21.33072 -6.05432 L -21.48269 -6.09766 L -21.60911 -6.14492 L -21.70729 -6.1951 L -21.77512 -6.24712 L -21.81116 -6.29987 L -21.81463 -6.35223 L -21.80104 -6.38296 L -21.77581 -6.41291 L -21.73915 -6.44185 L -21.69132 -6.46955 L -21.6327 -6.49581 L -21.56374 -6.52043 L -21.48496 -6.5432 L -21.39698 -6.56397 L -21.30046 -6.58256 L -21.19616 -6.59884 L -21.08486 -6.61269 L -20.96744 -6.62398 L -20.84478 -6.63265 L -20.71783 -6.63861 L -20.60465 -6.64157 L -20.48963 -6.64244 L -20.37342 -6.6412 L -20.25671 -6.63787 L -20.14017 -6.63247 L -20.02448 -6.62503 L -19.91031 -6.61559 L -19.79834 -6.6042 L -19.6892 -6.59094 L -19.58353 -6.57587 L -19.48196 -6.5591 L -19.38506 -6.54071 L -19.2934 -6.52081 L -19.20752 -6.49952 L -19.00393 -6.54242 L -18.74682 -6.5811 L -18.44448 -6.61428 L -18.10666 -6.64092 L -17.74427 -6.66014 L -17.36901 -6.67133 L -16.99296 -6.67412 L -16.62828 -6.66843 L -16.28671 -6.65444 L -15.9793 -6.6326 L -15.71594 -6.60361 L -15.50515 -6.56842 L -15.35372 -6.52815 L -15.26653 -6.48411 L -15.26614 -6.48378 L -15.26575 -6.48345 L -15.26537 -6.48312 L -15.26499 -6.48278 L -15.26461 -6.48245 L -15.26424 -6.48212 L -15.26387 -6.48179 L -15.2635 -6.48146 L -15.26314 -6.48113 L -15.26278 -6.4808 L -15.26243 -6.48046 L -15.26208 -6.48013 L -15.26173 -6.4798 L -15.26139 -6.47947 L -15.24535 -6.45203 L -15.25319 -6.42412 L -15.28482 -6.39607 L -15.33987 -6.36818 L -15.41772 -6.34079 L -15.51748 -6.31419 L -15.63803 -6.2887 L -15.77799 -6.2646 L -15.93576 -6.24217 L -16.10956 -6.22166 L -16.29741 -6.2033 L -16.49717 -6.18731 L -16.70657 -6.17386 L -16.92323 -6.16311 L -16.79875 -6.1592 L -16.67838 -6.15412 L -16.56264 -6.1479 L -16.45206 -6.14057 L -16.34711 -6.13217 L -16.24826 -6.12272 L -16.15594 -6.11227 L -16.07057 -6.10087 L -15.99252 -6.08857 L -15.92214 -6.07541 L -15.85974 -6.06147 L -15.80559 -6.0468 L -15.75993 -6.03146 L -15.72296 -6.01552 Z" />
    <path d="M -17.21978 -7.52497 L -17.42668 -7.49881 L -17.66984 -7.48115 L -17.94218 -7.47249 L -18.23576 -7.47311 L -18.54205 -7.48296 L -18.85214 -7.50178 L -19.157 -7.529 L -19.44776 -7.56385 L -19.71596 -7.6053 L -19.95381 -7.65214 L -20.15437 -7.70303 L -20.31181 -7.75646 L -20.42155 -7.8109 L -20.4804 -7.86475 L -20.47769 -7.932 L -20.38446 -7.99217 L -20.20538 -8.04224 L -19.94944 -8.07971 L -19.62947 -8.10269 L -19.26151 -8.11004 L -18.86401 -8.10137 L -18.45691 -8.07714 L -18.06063 -8.03855 L -17.69502 -7.98753 L -17.37843 -7.92666 L -17.12673 -7.85897 L -16.95254 -7.78787 L -16.86459 -7.71691 L -16.85693 -7.70038 L -16.85448 -7.6841 L -16.85726 -7.66813 L -16.86525 -7.65252 L -16.87844 -7.6373 L -16.89678 -7.62252 L -16.92022 -7.60823 L -16.94871 -7.59446 L -16.98214 -7.58126 L -17.02043 -7.56865 L -17.06347 -7.55669 L -17.11114 -7.5454 L -17.16329 -7.53482 L -17.21978 -7.52497 Z" />
    <path d="M -27.29587 -8.76289 L -27.29229 -8.76102 L -27.28883 -8.75915 L -27.28549 -8.75727 L -27.28227 -8.75538 L -27.27916 -8.75349 L -27.27617 -8.75159 L -27.2733 -8.74969 L -27.27054 -8.74778 L -27.26791 -8.74586 L -27.26539 -8.74394 L -27.26299 -8.74201 L -27.26071 -8.74008 L -27.25855 -8.73814 L -27.25651 -8.7362 L -27.24997 -8.67709 L -27.34659 -8.61647 L -27.5415 -8.55737 L -27.82495 -8.50275 L -28.18271 -8.45536 L -28.59685 -8.41757 L -29.0466 -8.39128 L -29.50941 -8.3778 L -29.96206 -8.37781 L -30.38187 -8.39131 L -30.74778 -8.41763 L -31.04145 -8.45543 L -31.24814 -8.50284 L -31.35749 -8.55746 L -31.36551 -8.61452 L -31.27716 -8.67309 L -31.09659 -8.73043 L -30.83225 -8.78385 L -30.49651 -8.83087 L -30.10508 -8.86926 L -29.6763 -8.89725 L -29.23023 -8.91351 L -28.78775 -8.91729 L -28.36958 -8.90841 L -27.99529 -8.88728 L -27.68241 -8.8549 L -27.44557 -8.81278 L -27.29587 -8.76289 Z" />
    <path d="M -10.96016 -7.2368 L -10.72876 -7.27266 L -10.47944 -7.30379 L -10.21759 -7.32954 L -9.94886 -7.34934 L -9.67907 -7.36276 L -9.41403 -7.36952 L -9.1595 -7.36946 L -8.92095 -7.3626 L -8.70356 -7.34907 L -8.51202 -7.32918 L -8.35046 -7.30334 L -8.22239 -7.27212 L -8.13057 -7.2362 L -8.07698 -7.19635 L -8.06457 -7.17414 L -8.06312 -7.15122 L -8.07261 -7.12772 L -8.093 -7.10379 L -8.12416 -7.07955 L -8.16591 -7.05517 L -8.21801 -7.03079 L -8.28013 -7.00654 L -8.35191 -6.98258 L -8.43292 -6.95905 L -8.52268 -6.93609 L -8.62064 -6.91383 L -8.72624 -6.89241 L -8.83883 -6.87196 L -9.07023 -6.8361 L -9.31955 -6.80497 L -9.5814 -6.77922 L -9.85013 -6.75942 L -10.11992 -6.746 L -10.38496 -6.73924 L -10.63949 -6.7393 L -10.87804 -6.74616 L -11.09543 -6.75969 L -11.28697 -6.77959 L -11.44853 -6.80542 L -11.5766 -6.83664 L -11.66842 -6.87256 L -11.72201 -6.91241 L -11.73442 -6.93462 L -11.73587 -6.95754 L -11.72638 -6.98104 L -11.70599 -7.00498 L -11.67483 -7.02921 L -11.63308 -7.05359 L -11.58098 -7.07798 L -11.51886 -7.10222 L -11.44708 -7.12618 L -11.36607 -7.14971 L -11.27631 -7.17267 L -11.17835 -7.19493 L -11.07275 -7.21635 L -10.96016 -7.2368 Z" />
    <path d="M -20.02401 -9.21755 L -19.95598 -9.20995 L -19.89132 -9.20146 L -19.83022 -9.19209 L -19.77287 -9.18189 L -19.71942 -9.17088 L -19.67004 -9.15908 L -19.62488 -9.14654 L -19.58405 -9.1333 L -19.54768 -9.11938 L -19.51589 -9.10484 L -19.48875 -9.0897 L -19.46635 -9.07403 L -19.44876 -9.05786 L -19.43602 -9.04124 L -19.43564 -8.96855 L -19.51925 -8.89263 L -19.68266 -8.81729 L -19.91766 -8.7463 L -20.21248 -8.68324 L -20.55233 -8.63125 L -20.92018 -8.59295 L -21.29757 -8.57026 L -21.66558 -8.56431 L -22.00576 -8.57541 L -22.30105 -8.60299 L -22.53664 -8.64568 L -22.70073 -8.70133 L -22.78507 -8.76715 L -22.79311 -8.82189 L -22.75245 -8.87901 L -22.66427 -8.93686 L -22.53112 -8.99377 L -22.35685 -9.04808 L -22.14652 -9.09823 L -21.9062 -9.14277 L -21.64285 -9.18039 L -21.36409 -9.21003 L -21.078 -9.23081 L -20.79285 -9.24214 L -20.51689 -9.24369 L -20.25812 -9.23541 L -20.02401 -9.21755 Z" />
    <path d="M -19.49257 -9.72119 L -19.67533 -9.7204 L -19.85886 -9.72499 L -20.04046 -9.73488 L -20.21743 -9.74994 L -20.38715 -9.76995 L -20.54712 -9.79459 L -20.69496 -9.82352 L -20.82848 -9.8563 L -20.94572 -9.89244 L -21.04493 -9.93142 L -21.12464 -9.97265 L -21.18369 -10.01553 L -21.22118 -10.05942 L -21.23658 -10.10366 L -21.2065 -10.18398 L -21.10227 -10.25927 L -20.92913 -10.32576 L -20.69574 -10.38012 L -20.41381 -10.41962 L -20.09749 -10.44228 L -19.76262 -10.44696 L -19.42601 -10.43343 L -19.10453 -10.40237 L -18.81431 -10.35533 L -18.56989 -10.29468 L -18.38353 -10.22345 L -18.26458 -10.14522 L -18.219 -10.0639 L -18.22337 -10.02679 L -18.24359 -9.99027 L -18.27944 -9.95474 L -18.33055 -9.92056 L -18.39637 -9.88811 L -18.47621 -9.85772 L -18.56923 -9.8297 L -18.67446 -9.80437 L -18.79078 -9.78197 L -18.91697 -9.76276 L -19.05169 -9.74693 L -19.19354 -9.73464 L -19.34102 -9.72603 L -19.49257 -9.72119 Z" />
    <path d="M -10.54999 -10.46407 L -10.73534 -10.42881 L -10.97319 -10.40172 L -11.25552 -10.38373 L -11.57282 -10.37543 L -11.91441 -10.37711 L -12.26879 -10.38871 L -12.62402 -10.40984 L -12.96816 -10.43979 L -13.2896 -10.47754 L -13.57752 -10.52184 L -13.82223 -10.57118 L -14.0155 -10.6239 L -14.15081 -10.67824 L -14.2236 -10.73236 L -14.22432 -10.7955 L -14.12826 -10.85243 L -13.94022 -10.9003 L -13.66966 -10.93671 L -13.33012 -10.95984 L -12.93864 -10.96851 L -12.51484 -10.9623 L -12.07998 -10.94153 L -11.65587 -10.90722 L -11.26376 -10.8611 L -10.92333 -10.80549 L -10.65163 -10.74317 L -10.46231 -10.67727 L -10.36484 -10.61109 L -10.35747 -10.59933 L -10.3533 -10.58769 L -10.35233 -10.57619 L -10.35457 -10.56485 L -10.36002 -10.55369 L -10.36866 -10.54272 L -10.38048 -10.53196 L -10.39546 -10.52144 L -10.41358 -10.51116 L -10.4348 -10.50115 L -10.4591 -10.49142 L -10.48643 -10.48198 L -10.51674 -10.47286 L -10.54999 -10.46407 Z" />
    <path d="M -23.2285 -10.314 L -23.40987 -10.31354 L -23.59169 -10.31838 L -23.7713 -10.32844 L -23.94608 -10.34359 L -24.11349 -10.36359 L -24.2711 -10.38815 L -24.4166 -10.41693 L -24.54788 -10.4495 L -24.66301 -10.48538 L -24.76034 -10.52405 L -24.83842 -10.56495 L -24.89614 -10.60749 L -24.93265 -10.65103 L -24.94741 -10.69496 L -24.9166 -10.7754 L -24.81177 -10.8509 L -24.63817 -10.91768 L -24.4045 -10.9724 L -24.12247 -11.0123 L -23.80624 -11.0354 L -23.47166 -11.04052 L -23.13551 -11.02741 L -22.81464 -10.99674 L -22.52514 -10.95003 L -22.28152 -10.88964 L -22.09602 -10.81858 L -21.97792 -10.74042 L -21.93315 -10.65909 L -21.93799 -10.62159 L -21.95894 -10.58468 L -21.99578 -10.54877 L -22.04812 -10.51423 L -22.1154 -10.48143 L -22.19688 -10.45074 L -22.29171 -10.42247 L -22.39885 -10.39693 L -22.51717 -10.3744 L -22.64539 -10.35511 L -22.78213 -10.33928 L -22.92594 -10.32707 L -23.07526 -10.31861 L -23.2285 -10.314 Z" />
    <path d="M -19.22985 -11.29167 L -19.22766 -11.23369 L -19.32999 -11.17563 L -19.53173 -11.12038 L -19.82282 -11.0707 L -20.18873 -11.02908 L -20.61122 -10.99758 L -21.0692 -10.97778 L -21.53982 -10.97067 L -21.99961 -10.97659 L -22.42563 -10.99526 L -22.79663 -11.02575 L -23.09409 -11.06652 L -23.30317 -11.11556 L -23.41345 -11.17041 L -23.4193 -11.22848 L -23.32002 -11.28673 L -23.12059 -11.34224 L -22.831 -11.39223 L -22.46577 -11.43418 L -22.04323 -11.466 L -21.58455 -11.48609 L -21.11274 -11.49344 L -20.65146 -11.48768 L -20.22384 -11.46911 L -19.85131 -11.43865 L -19.55257 -11.39782 L -19.34259 -11.34869 L -19.23189 -11.29371 L -19.23174 -11.29356 L -19.23159 -11.29342 L -19.23144 -11.29327 L -19.2313 -11.29313 L -19.23115 -11.29298 L -19.231 -11.29283 L -19.23086 -11.29269 L -19.23071 -11.29254 L -19.23057 -11.2924 L -19.23042 -11.29225 L -19.23028 -11.2921 L -19.23014 -11.29196 L -19.23 -11.29181 L -19.22985 -11.29167 Z" />
    <path d="M 3.75588 -9.55839 L 3.7564 -9.55912 L 3.75693 -9.55986 L 3.75749 -9.56059 L 3.75806 -9.56133 L 3.75864 -9.56207 L 3.75925 -9.5628 L 3.75987 -9.56353 L 3.76051 -9.56427 L 3.76117 -9.565 L 3.76184 -9.56574 L 3.76253 -9.56647 L 3.76324 -9.5672 L 3.76397 -9.56793 L 3.76471 -9.56866 L 3.87554 -9.6239 L 4.08598 -9.67369 L 4.38551 -9.71554 L 4.75909 -9.74736 L 5.188 -9.76753 L 5.65072 -9.77506 L 6.12405 -9.76957 L 6.58427 -9.75133 L 7.00828 -9.72125 L 7.37483 -9.68085 L 7.66555 -9.63215 L 7.86584 -9.57759 L 7.96568 -9.51991 L 7.96004 -9.462 L 7.85129 -9.40744 L 7.64533 -9.35815 L 7.35224 -9.31655 L 6.98634 -9.28466 L 6.5655 -9.26405 L 6.1103 -9.25571 L 5.64299 -9.26007 L 5.18639 -9.2769 L 4.76284 -9.30538 L 4.39302 -9.34412 L 4.09501 -9.39123 L 3.88338 -9.44441 L 3.76846 -9.50105 L 3.75588 -9.55839 Z" />
    <path d="M 16.45462 -9.16741 L 16.44586 -9.17333 L 16.43811 -9.17933 L 16.43138 -9.1854 L 16.42568 -9.19153 L 16.421 -9.19774 L 16.41735 -9.204 L 16.41473 -9.21033 L 16.41315 -9.2167 L 16.41259 -9.22314 L 16.41307 -9.22962 L 16.41459 -9.23614 L 16.41713 -9.24271 L 16.42071 -9.24931 L 16.42532 -9.25595 L 16.52341 -9.32178 L 16.71376 -9.38727 L 16.98682 -9.44914 L 17.3289 -9.50428 L 17.72284 -9.54993 L 18.1489 -9.5838 L 18.58571 -9.60419 L 19.01137 -9.61009 L 19.40452 -9.60118 L 19.74546 -9.57793 L 20.01709 -9.54149 L 20.20579 -9.4937 L 20.3021 -9.43695 L 20.30119 -9.37408 L 20.2686 -9.34443 L 20.21634 -9.31447 L 20.14494 -9.28452 L 20.05515 -9.25488 L 19.94788 -9.22586 L 19.82424 -9.19777 L 19.68552 -9.17089 L 19.53315 -9.14549 L 19.36869 -9.12184 L 19.19385 -9.10019 L 19.01043 -9.08076 L 18.82033 -9.06375 L 18.6255 -9.04933 L 18.42797 -9.03766 C 18.39 -8.98 18.35 -8.91 18.30517 -8.85197" />
    <path d="M 15.2601 -8.60316 L 15.19946 -8.61308 L 15.14337 -8.62383 L 15.09199 -8.63536 L 15.0455 -8.64765 L 15.00403 -8.66065 L 14.96772 -8.67433 L 14.93668 -8.68863 L 14.911 -8.70353 L 14.89077 -8.71896 L 14.87604 -8.73489 L 14.86687 -8.75125 L 14.86328 -8.76801 L 14.86528 -8.78511 L 14.87287 -8.8025 L 14.89914 -8.83312 L 14.94183 -8.86415 L 15.00054 -8.8953 L 15.07473 -8.92628 L 15.16371 -8.95681 L 15.26664 -8.98659 L 15.38257 -9.01535 L 15.51041 -9.04283 L 15.64897 -9.06876 L 15.79697 -9.0929 L 15.95301 -9.11503 L 16.11566 -9.13495 L 16.28338 -9.15246 L 16.45462 -9.16741 C 16.42 -9.12 16.39 -9.07 16.35107 -9.01484 C 16.32 -8.96 16.28 -8.91 16.24816 -8.86183 C 16.21 -8.81 16.18 -8.76 16.1459 -8.70839 C 16.11 -8.66 16.08 -8.61 16.04434 -8.55456" />
    <path d="M 18.42797 -9.03766 L 18.43432 -9.03189 L 18.43992 -9.02605 L 18.44477 -9.02015 L 18.44887 -9.01419 L 18.45222 -9.00818 L 18.45482 -9.00211 L 18.45667 -8.99598 L 18.45776 -8.98981 L 18.45809 -8.98359 L 18.45767 -8.97732 L 18.4565 -8.97101 L 18.45457 -8.96467 L 18.45188 -8.95828 L 18.44845 -8.95186 L 18.39188 -8.89813 L 18.28622 -8.84381 L 18.13446 -8.79043 L 17.94089 -8.73951 L 17.71102 -8.69249 L 17.45135 -8.65072 L 17.16926 -8.61536 L 16.87275 -8.58744 L 16.57022 -8.56773 L 16.27025 -8.55679 L 15.98136 -8.55495 L 15.71173 -8.56224 L 15.46902 -8.57846 L 15.2601 -8.60316" />
    <path d="M 7.40737 -9.68678 L 7.28963 -9.69503 L 7.17763 -9.7057 L 7.07216 -9.71871 L 6.97398 -9.73397 L 6.8838 -9.75137 L 6.80226 -9.77079 L 6.72995 -9.79207 L 6.66738 -9.81509 L 6.615 -9.83965 L 6.5732 -9.8656 L 6.54226 -9.89275 L 6.52241 -9.9209 L 6.5138 -9.94984 L 6.51648 -9.97938 L 6.57779 -10.05888 L 6.71487 -10.13706 L 6.92085 -10.20998 L 7.1854 -10.27399 L 7.49526 -10.32588 L 7.83489 -10.36304 L 8.18726 -10.38363 L 8.5347 -10.38659 L 8.85978 -10.37179 L 9.14621 -10.33996 L 9.37963 -10.2927 L 9.54832 -10.23239 L 9.64383 -10.16204 L 9.66138 -10.08519 L 9.63237 -10.03575 L 9.57329 -9.98625 L 9.48529 -9.93764 L 9.37008 -9.89088 L 9.22992 -9.84687 L 9.06753 -9.80647 L 8.88607 -9.77048 L 8.68908 -9.73958 L 8.4804 -9.71439 L 8.26409 -9.69539 L 8.04437 -9.68295 L 7.82551 -9.67732 L 7.61179 -9.6786 L 7.40737 -9.68678 Z" />
    <path d="M 35.10179 -8.36922 L 35.22086 -8.42319 L 35.43677 -8.47081 L 35.73882 -8.50972 L 36.11209 -8.538 L 36.5381 -8.55424 L 36.99578 -8.55764 L 37.4625 -8.54803 L 37.91516 -8.52589 L 38.33138 -8.49232 L 38.69057 -8.44897 L 38.97495 -8.39799 L 39.17047 -8.3419 L 39.26744 -8.28348 L 39.26108 -8.22561 L 39.1506 -8.1708 L 38.94123 -8.12221 L 38.64346 -8.08226 L 38.27222 -8.05297 L 37.84614 -8.0358 L 37.38657 -8.03161 L 36.91657 -8.04062 L 36.45969 -8.06236 L 36.03885 -8.09576 L 35.67515 -8.13913 L 35.38683 -8.1903 L 35.18835 -8.24671 L 35.08966 -8.30552 L 35.0957 -8.36379 L 35.09611 -8.36418 L 35.09651 -8.36457 L 35.09693 -8.36496 L 35.09734 -8.36534 L 35.09777 -8.36573 L 35.09819 -8.36612 L 35.09863 -8.36651 L 35.09906 -8.36689 L 35.0995 -8.36728 L 35.09995 -8.36767 L 35.1004 -8.36806 L 35.10086 -8.36844 L 35.10132 -8.36883 L 35.10179 -8.36922 Z" />
    <path d="M 7.0923 -11.10069 L 6.99962 -11.11026 L 6.9126 -11.12146 L 6.8317 -11.13422 L 6.75733 -11.14848 L 6.68988 -11.16416 L 6.6297 -11.18118 L 6.5771 -11.19945 L 6.53235 -11.21888 L 6.49569 -11.23937 L 6.46731 -11.26081 L 6.44736 -11.28308 L 6.43593 -11.30609 L 6.43309 -11.32969 L 6.43885 -11.35378 L 6.51133 -11.43052 L 6.66301 -11.50685 L 6.88629 -11.57897 L 7.16996 -11.64324 L 7.49982 -11.69644 L 7.85931 -11.73592 L 8.23041 -11.75968 L 8.59451 -11.76654 L 8.93336 -11.75615 L 9.22995 -11.72903 L 9.46943 -11.68655 L 9.63978 -11.63083 L 9.73246 -11.56467 L 9.74282 -11.49139 L 9.7025 -11.43943 L 9.62485 -11.38709 L 9.51167 -11.33557 L 9.36556 -11.28606 L 9.18993 -11.23972 L 8.98884 -11.19761 L 8.76695 -11.16071 L 8.52939 -11.12988 L 8.28168 -11.10584 L 8.02954 -11.08912 L 7.77882 -11.08014 L 7.53533 -11.07908 L 7.30471 -11.08599 L 7.0923 -11.10069 Z" />
    <path d="M 5.09623 -11.57081 L 4.96902 -11.57831 L 4.84732 -11.58857 L 4.73211 -11.60152 L 4.62431 -11.61704 L 4.52478 -11.63501 L 4.43433 -11.65529 L 4.35367 -11.67772 L 4.28346 -11.70211 L 4.22426 -11.72827 L 4.17654 -11.75599 L 4.14069 -11.78504 L 4.11699 -11.81521 L 4.10564 -11.84623 L 4.10672 -11.87787 L 4.1637 -11.95813 L 4.29551 -12.03661 L 4.49553 -12.10938 L 4.75374 -12.17279 L 5.05718 -12.22367 L 5.39065 -12.25945 L 5.73742 -12.27835 L 6.08011 -12.27941 L 6.40152 -12.26259 L 6.68554 -12.22873 L 6.91793 -12.17952 L 7.08704 -12.11744 L 7.18439 -12.04559 L 7.20509 -11.96758 L 7.18008 -11.91938 L 7.12741 -11.87124 L 7.04804 -11.82403 L 6.94341 -11.77861 L 6.81541 -11.73581 L 6.66638 -11.6964 L 6.499 -11.6611 L 6.31633 -11.63054 L 6.12168 -11.60529 L 5.91857 -11.58579 L 5.7107 -11.57241 L 5.50183 -11.56539 L 5.29576 -11.56485 L 5.09623 -11.57081 Z" />
    <path d="M 3.33537 -12.334 L 3.17064 -12.33685 L 3.00849 -12.3441 L 2.85088 -12.35566 L 2.69975 -12.37138 L 2.55691 -12.39108 L 2.4241 -12.41452 L 2.30295 -12.44141 L 2.19491 -12.47143 L 2.1013 -12.5042 L 2.02327 -12.53934 L 1.96175 -12.57642 L 1.91749 -12.61498 L 1.89104 -12.65456 L 1.88271 -12.69468 L 1.89159 -12.73265 L 1.91665 -12.77026 L 1.95764 -12.80709 L 2.01409 -12.84274 L 2.08541 -12.87683 L 2.17081 -12.90899 L 2.26936 -12.93887 L 2.38001 -12.96614 L 2.50154 -12.9905 L 2.63264 -13.0117 L 2.77188 -13.02951 L 2.91776 -13.04372 L 3.06869 -13.05419 L 3.22303 -13.06081 C 3.22 -12.97 3.22 -12.88 3.22273 -12.79576 C 3.22 -12.64 3.22 -12.49 3.22221 -12.33548" />
    <path d="M 4.69823 -12.87939 L 4.7235 -12.8678 L 4.74703 -12.85599 L 4.76876 -12.84397 L 4.78868 -12.83176 L 4.80675 -12.81938 L 4.82296 -12.80684 L 4.83728 -12.79416 L 4.8497 -12.78135 L 4.86019 -12.76843 L 4.86875 -12.75543 L 4.87536 -12.74235 L 4.88001 -12.72921 L 4.8827 -12.71603 L 4.88343 -12.70283 L 4.87286 -12.66126 L 4.84291 -12.62018 L 4.79396 -12.58012 L 4.72665 -12.5416 L 4.64186 -12.50513 L 4.54068 -12.47118 L 4.42445 -12.44019 L 4.29466 -12.41257 L 4.15301 -12.38866 L 4.00135 -12.3688 L 3.84164 -12.35323 L 3.67596 -12.34215 L 3.50647 -12.33571 L 3.33537 -12.334" />
    <path d="M 3.22303 -13.06081 L 3.19632 -13.07268 L 3.17145 -13.08478 L 3.14843 -13.0971 L 3.12731 -13.10962 L 3.10811 -13.12232 L 3.09086 -13.13518 L 3.07558 -13.14819 L 3.06229 -13.16133 L 3.05102 -13.17458 L 3.04178 -13.18793 L 3.03457 -13.20134 L 3.02942 -13.21482 L 3.02632 -13.22833 L 3.02529 -13.24185 L 3.06288 -13.32304 L 3.1738 -13.40015 L 3.3525 -13.46932 L 3.59 -13.52709 L 3.8744 -13.57054 L 4.19144 -13.59752 L 4.52522 -13.60666 L 4.859 -13.5975 L 5.17605 -13.57051 L 5.46047 -13.52703 L 5.69799 -13.46926 L 5.87671 -13.40007 L 5.98767 -13.32296 L 6.02529 -13.24177 L 6.0172 -13.20391 L 5.99301 -13.16646 L 5.95296 -13.12983 L 5.89751 -13.0944 L 5.82724 -13.06057 L 5.74292 -13.02869 L 5.64545 -12.99912 L 5.53589 -12.97216 L 5.41542 -12.94811 L 5.28533 -12.92724 L 5.14705 -12.90976 L 5.00205 -12.89587 L 4.8519 -12.88571 L 4.69823 -12.87939 C 4.7 -12.76 4.69 -12.64 4.69179 -12.52543" />
    <path d="M 12.84274 -14.12474 L 12.76383 -14.13465 L 12.69022 -14.14582 L 12.62223 -14.15818 L 12.56014 -14.17169 L 12.50422 -14.1863 L 12.45469 -14.20193 L 12.41178 -14.21852 L 12.37567 -14.23601 L 12.3465 -14.25431 L 12.3244 -14.27336 L 12.30947 -14.29306 L 12.30176 -14.31334 L 12.30132 -14.33412 L 12.30814 -14.35529 L 12.3866 -14.43006 L 12.54666 -14.50477 L 12.78031 -14.57568 L 13.07583 -14.63923 L 13.4184 -14.69223 L 13.79084 -14.73203 L 14.17447 -14.75663 L 14.55007 -14.76479 L 14.89878 -14.75612 L 15.20314 -14.73104 L 15.44788 -14.6908 L 15.62072 -14.63744 L 15.713 -14.57362 L 15.72009 -14.50254 L 15.67306 -14.44963 L 15.58404 -14.3962 L 15.45529 -14.3436 L 15.29005 -14.29315 L 15.09251 -14.24615 L 14.86767 -14.20377 L 14.62123 -14.16708 L 14.35942 -14.13703 L 14.08887 -14.11437 L 13.81643 -14.09966 L 13.54899 -14.0933 L 13.29332 -14.09542 L 13.0559 -14.10599 L 12.84274 -14.12474 Z" />
    <path d="M 4.10038 -14.17373 L 3.98975 -14.18245 L 3.88491 -14.19335 L 3.78657 -14.20635 L 3.69536 -14.22137 L 3.61189 -14.23831 L 3.5367 -14.25706 L 3.47029 -14.2775 L 3.41309 -14.29949 L 3.36549 -14.32288 L 3.32779 -14.34753 L 3.30024 -14.37327 L 3.28302 -14.39993 L 3.27624 -14.42733 L 3.27996 -14.45531 L 3.34447 -14.53414 L 3.4856 -14.61194 L 3.69626 -14.68481 L 3.9659 -14.74909 L 4.281 -14.80156 L 4.62574 -14.83959 L 4.98286 -14.86127 L 5.33443 -14.86551 L 5.66284 -14.85211 L 5.95161 -14.82173 L 6.18626 -14.77589 L 6.35502 -14.7169 L 6.44944 -14.64772 L 6.46478 -14.5718 L 6.43268 -14.52155 L 6.36859 -14.47113 L 6.27382 -14.42157 L 6.15032 -14.37391 L 6.00061 -14.32911 L 5.82778 -14.28809 L 5.63536 -14.25169 L 5.42729 -14.22066 L 5.20785 -14.19564 L 4.98153 -14.17713 L 4.75297 -14.16552 L 4.52686 -14.16105 L 4.30784 -14.1638 L 4.10038 -14.17373 Z" />
    <path d="M 19.98636 -4.21285 C 19.99 -4.21 19.99 -4.21 19.99349 -4.207 C 20 -4.21 20 -4.2 19.99925 -4.20258" />
    <path d="M -16.35795 -5.73648 C -16.37 -5.75 -16.39 -5.76 -16.40604 -5.77366 C -16.42 -5.79 -16.44 -5.8 -16.45418 -5.81073 C -16.47 -5.82 -16.49 -5.84 -16.50237 -5.84769 C -16.52 -5.86 -16.53 -5.87 -16.55058 -5.88452 C -16.57 -5.9 -16.58 -5.91 -16.59882 -5.92119 C -16.61 -5.93 -16.63 -5.95 -16.64706 -5.95771 C -16.66 -5.97 -16.68 -5.98 -16.69528 -5.99403 C -16.71 -6.01 -16.73 -6.02 -16.74347 -6.03015 C -16.76 -6.04 -16.77 -6.05 -16.78837 -6.06363 C -16.8 -6.07 -16.82 -6.09 -16.83327 -6.09693 C -16.85 -6.11 -16.86 -6.12 -16.87821 -6.13009 C -16.89 -6.14 -16.91 -6.15 -16.92323 -6.16311" />
    <path d="M -18.90734 -6.08092 C -18.91 -6.07 -18.92 -6.06 -18.92866 -6.05595 C -18.94 -6.05 -18.94 -6.04 -18.95046 -6.03251 C -18.96 -6.02 -18.97 -6.02 -18.97271 -6.01063 C -18.98 -6 -18.99 -6 -18.99537 -5.99032 C -19 -5.98 -19.01 -5.98 -19.01837 -5.9716 C -19.03 -5.97 -19.03 -5.96 -19.04167 -5.95446 C -19.05 -5.95 -19.06 -5.94 -19.0652 -5.9389 C -19.07 -5.93 -19.08 -5.93 -19.08891 -5.92489 C -19.1 -5.92 -19.1 -5.92 -19.11271 -5.91243 C -19.12 -5.91 -19.13 -5.9 -19.13654 -5.90146 C -19.14 -5.9 -19.15 -5.89 -19.16033 -5.89194 C -19.17 -5.89 -19.18 -5.89 -19.18397 -5.88383 C -19.19 -5.88 -19.2 -5.88 -19.20739 -5.87705 C -19.22 -5.88 -19.22 -5.87 -19.23049 -5.87154 C -19.24 -5.87 -19.25 -5.87 -19.25317 -5.86721 C -19.26 -5.87 -19.27 -5.86 -19.2753 -5.86397 C -19.28 -5.86 -19.29 -5.86 -19.30073 -5.86142 C -19.31 -5.86 -19.32 -5.86 -19.32602 -5.86005 C -19.33 -5.86 -19.34 -5.86 -19.35117 -5.85982 C -19.36 -5.86 -19.37 -5.86 -19.37616 -5.86064 C -19.38 -5.86 -19.39 -5.86 -19.40099 -5.86246 C -19.41 -5.86 -19.42 -5.86 -19.42565 -5.86523 C -19.43 -5.87 -19.44 -5.87 -19.45014 -5.86888 C -19.46 -5.87 -19.47 -5.87 -19.47446 -5.87337 C -19.48 -5.87 -19.49 -5.88 -19.4986 -5.87864 C -19.51 -5.88 -19.51 -5.88 -19.52257 -5.88467 C -19.53 -5.89 -19.54 -5.89 -19.54637 -5.89139 C -19.55 -5.89 -19.56 -5.9 -19.57001 -5.89878 C -19.59 -5.9 -19.6 -5.91 -19.61683 -5.91542 C -19.63 -5.92 -19.65 -5.93 -19.66312 -5.93435" />
    <path d="M -18.90734 -6.08092 L -18.84846 -6.08765 L -18.78825 -6.09415 L -18.72679 -6.10042 L -18.66416 -6.10645 L -18.60042 -6.11222 L -18.53564 -6.11775 L -18.46992 -6.12301 L -18.40332 -6.12801 L -18.33592 -6.13273 L -18.2678 -6.13717 L -18.19905 -6.14133 L -18.12974 -6.1452 L -18.05996 -6.14878 L -17.98978 -6.15205 L -18.05082 -6.15358 L -18.11119 -6.15534 L -18.17084 -6.15735 L -18.22971 -6.1596 L -18.28775 -6.16208 L -18.3449 -6.1648 L -18.4011 -6.16775 L -18.45632 -6.17093 L -18.51048 -6.17433 L -18.56355 -6.17796 L -18.61547 -6.18181 L -18.66619 -6.18587 L -18.71567 -6.19015 L -18.76385 -6.19464 L -18.7682 -6.186 L -18.77347 -6.17743 L -18.77967 -6.16891 L -18.78679 -6.16047 L -18.79482 -6.1521 L -18.80376 -6.14381 L -18.81361 -6.1356 L -18.82436 -6.12749 L -18.836 -6.11946 L -18.84853 -6.11154 L -18.86194 -6.10372 L -18.87622 -6.096 L -18.89135 -6.0884 L -18.90734 -6.08092 Z" />
    <path d="M -17.98978 -6.15205 C -17.98 -6.14 -17.98 -6.13 -17.96755 -6.11916 C -17.96 -6.11 -17.95 -6.1 -17.94508 -6.08627 C -17.94 -6.08 -17.93 -6.06 -17.92239 -6.05342 C -17.91 -6.04 -17.91 -6.03 -17.89953 -6.02062 C -17.89 -6.01 -17.88 -6 -17.87651 -5.9879 C -17.87 -5.98 -17.86 -5.97 -17.85336 -5.95527 C -17.85 -5.94 -17.84 -5.93 -17.83009 -5.92273 C -17.82 -5.91 -17.81 -5.9 -17.80673 -5.89031 C -17.8 -5.88 -17.79 -5.87 -17.78328 -5.85799 C -17.78 -5.85 -17.77 -5.84 -17.75976 -5.82579 C -17.75 -5.82 -17.74 -5.8 -17.73617 -5.79371 C -17.73 -5.78 -17.72 -5.77 -17.71252 -5.76173 C -17.7 -5.75 -17.7 -5.74 -17.6888 -5.72986 C -17.68 -5.72 -17.67 -5.71 -17.66503 -5.69807 C -17.66 -5.69 -17.65 -5.68 -17.64119 -5.66637 C -17.63 -5.66 -17.63 -5.65 -17.61727 -5.63472" />
    <path d="M -18.96571 -6.0173 C -18.97 -6.02 -18.97 -6.03 -18.97403 -6.03766 C -18.98 -6.04 -18.98 -6.05 -18.98273 -6.05861 C -18.99 -6.07 -18.99 -6.08 -18.99339 -6.08377 C -19 -6.09 -19 -6.1 -19.00453 -6.1095 C -19.01 -6.12 -19.01 -6.13 -19.01615 -6.13573 C -19.02 -6.14 -19.02 -6.15 -19.02822 -6.16236 C -19.03 -6.17 -19.04 -6.18 -19.04073 -6.18931 C -19.04 -6.2 -19.05 -6.21 -19.05365 -6.21651 C -19.06 -6.23 -19.06 -6.23 -19.06695 -6.24386 C -19.07 -6.25 -19.08 -6.26 -19.08061 -6.27129 C -19.08 -6.28 -19.09 -6.29 -19.09346 -6.29651 C -19.1 -6.3 -19.1 -6.31 -19.10659 -6.32174 C -19.11 -6.33 -19.12 -6.34 -19.11999 -6.34693 C -19.12 -6.36 -19.13 -6.36 -19.13366 -6.37208 C -19.14 -6.38 -19.14 -6.39 -19.14757 -6.39715 C -19.15 -6.41 -19.16 -6.41 -19.16172 -6.42212 C -19.17 -6.43 -19.17 -6.44 -19.17611 -6.44698 C -19.18 -6.46 -19.19 -6.46 -19.19073 -6.47171 C -19.2 -6.48 -19.2 -6.49 -19.20752 -6.49952" />
    <path d="M 7.36685 -9.542 C 7.36 -9.55 7.36 -9.55 7.35954 -9.55977 C 7.36 -9.57 7.35 -9.57 7.35102 -9.57708 C 7.35 -9.58 7.34 -9.59 7.34121 -9.59382 C 7.34 -9.6 7.33 -9.6 7.33002 -9.60986 C 7.33 -9.61 7.33 -9.61 7.32445 -9.6169 C 7.32 -9.62 7.32 -9.62 7.31857 -9.62375 C 7.32 -9.63 7.31 -9.63 7.31239 -9.63038 C 7.31 -9.63 7.31 -9.63 7.3059 -9.63678 C 7.3 -9.64 7.3 -9.64 7.29739 -9.64441 C 7.29 -9.65 7.29 -9.65 7.2884 -9.65162 C 7.29 -9.65 7.28 -9.66 7.2787 -9.65855 C 7.28 -9.66 7.27 -9.66 7.26853 -9.66496 C 7.27 -9.67 7.26 -9.67 7.25792 -9.67082 C 7.25 -9.67 7.25 -9.67 7.2469 -9.6761 C 7.24 -9.68 7.24 -9.68 7.23848 -9.67964 C 7.24 -9.68 7.23 -9.68 7.22986 -9.68284 C 7.23 -9.68 7.22 -9.68 7.22108 -9.68569 C 7.22 -9.69 7.22 -9.69 7.21214 -9.6882 C 7.21 -9.69 7.21 -9.69 7.20305 -9.69037 C 7.2 -9.69 7.2 -9.69 7.19385 -9.69219 C 7.19 -9.69 7.19 -9.69 7.18454 -9.69368 C 7.18 -9.69 7.18 -9.69 7.17515 -9.69482 C 7.17 -9.7 7.17 -9.7 7.16542 -9.69566 C 7.16 -9.7 7.16 -9.7 7.15562 -9.69616 C 7.15 -9.7 7.15 -9.7 7.14578 -9.69632 C 7.14 -9.7 7.14 -9.7 7.13592 -9.69617 C 7.12 -9.7 7.11 -9.69 7.09395 -9.69218 C 7.08 -9.69 7.07 -9.69 7.0524 -9.68344 C 7.01 -9.67 6.96 -9.65 6.91892 -9.62817 C 6.76 -9.54 6.64 -9.41 6.52999 -9.26292" />
    <path d="M 7.38536 -9.32034 C 7.39 -9.33 7.39 -9.33 7.38768 -9.34158 C 7.39 -9.35 7.39 -9.36 7.38931 -9.36278 C 7.39 -9.37 7.39 -9.38 7.3902 -9.38389 C 7.39 -9.39 7.39 -9.4 7.39033 -9.40488 C 7.39 -9.41 7.39 -9.42 7.38981 -9.42233 C 7.39 -9.43 7.39 -9.43 7.38869 -9.43974 C 7.39 -9.45 7.39 -9.45 7.38692 -9.4571 C 7.39 -9.46 7.39 -9.47 7.38447 -9.47437 C 7.38 -9.48 7.38 -9.49 7.38129 -9.49154 C 7.38 -9.5 7.38 -9.5 7.37733 -9.50857 C 7.38 -9.51 7.37 -9.52 7.37253 -9.5254 C 7.37 -9.53 7.37 -9.54 7.36685 -9.542" />
    <path d="M 19.74874 9.29092 A 5 0.85995 180 0 0 29.74874 9.29092" />
    <path d="M -29.54427 1.02127 A 5 0.85995 180 0 0 -24.83367 1.63769" />
    <path d="M 26.5165 15.50555 A 2.5 0.42997 180 0 0 27.24874 15.20151 L 27.24874 10.03565" />
    <path d="M 22.24874 15.20151 A 2.5 0.42997 180 0 0 26.5165 15.50555" />
    <path d="M -22.98097 6.99249 A 2.5 0.42997 180 0 0 -22.24874 6.68846 L -22.24874 1.9108" />
    <path d="M -27.24874 6.68846 A 2.5 0.42997 180 0 0 -22.98097 6.99249" />
    <path d="M -45 -8.75699 L -45 -4.8166" />
    <path d="M 45 -8.75699 L 45 -4.8166" />
    <path d="M 19.98636 -4.21285 L 19.84887 -4.32922" />
    <path d="M 19.74874 2.1378 L 19.74874 9.29092" />
    <path d="M 29.74874 0.99047 L 29.74874 9.29092" />
    <path d="M 22.24874 15.20151 L 22.24874 10.03565" />
    <path d="M -27.24874 6.68846 L -27.24874 1.5226" />
</svg>