<svg version="1.1" xmlns="http://www.w3.org/2000/svg" viewBox="-46.000001000000005 -17.51310826641211 92.00000200000001 34.076474305856394" fill="none" stroke="black" stroke-width="0.6%" vector-effect="non-scaling-stroke">
    <path d="M -31.81981 -14.25613 A 45 7.70581 360 0 1 45 -8.8073 A 45 7.70581 360 0 1 -45 -8.8073 A 45 7.70581 360 0 1 -31.81981 -14.25613 Z" />
    <path d="M -45 -4.86638 A 45 7.70581 180 0 0 45 -4.86638" />
    <path d="M -10.96016 -7.29374 L -10.72869 -7.32944 L -10.47929 -7.36045 L -10.21735 -7.38609 L -9.94854 -7.4058 L -9.67867 -7.41916 L -9.41357 -7.42588 L -9.15898 -7.42581 L -8.92041 -7.41896 L -8.70301 -7.40547 L -8.51149 -7.38564 L -8.34999 -7.35989 L -8.222 -7.32878 L -8.13029 -7.29299 L -8.07684 -7.25329 L -8.06452 -7.23118 L -8.06314 -7.20837 L -8.0727 -7.18498 L -8.09314 -7.16116 L -8.12435 -7.13705 L -8.16613 -7.11279 L -8.21823 -7.08852 L -8.28036 -7.0644 L -8.35212 -7.04056 L -8.43311 -7.01714 L -8.52283 -6.99429 L -8.62076 -6.97215 L -8.7263 -6.95083 L -8.83883 -6.93048 L -9.0703 -6.89477 L -9.3197 -6.86377 L -9.58164 -6.83813 L -9.85045 -6.81842 L -10.12032 -6.80506 L -10.38542 -6.79834 L -10.64001 -6.79841 L -10.87858 -6.80526 L -11.09598 -6.81875 L -11.2875 -6.83858 L -11.449 -6.86433 L -11.57699 -6.89543 L -11.6687 -6.93123 L -11.72215 -6.97093 L -11.73447 -6.99304 L -11.73585 -7.01585 L -11.72629 -7.03923 L -11.70585 -7.06306 L -11.67464 -7.08717 L -11.63286 -7.11143 L -11.58076 -7.1357 L -11.51863 -7.15982 L -11.44687 -7.18366 L -11.36588 -7.20708 L -11.27616 -7.22992 L -11.17823 -7.25207 L -11.07269 -7.27338 L -10.96016 -7.29374 Z" />
    <path d="M 8.39949 -7.36897 L 8.62601 -7.39857 L 8.89808 -7.41793 L 9.20597 -7.42635 L 9.53866 -7.42352 L 9.88426 -7.40956 L 10.2304 -7.38497 L 10.56471 -7.35061 L 10.87522 -7.30772 L 11.15084 -7.25784 L 11.38169 -7.20274 L 11.55954 -7.1444 L 11.67801 -7.08491 L 11.73287 -7.02639 L 11.72215 -6.97093 L 11.71299 -6.96118 L 11.7016 -6.95162 L 11.68801 -6.94225 L 11.67223 -6.93309 L 11.65428 -6.92415 L 11.63417 -6.91544 L 11.61195 -6.90697 L 11.58762 -6.89875 L 11.56123 -6.89079 L 11.53281 -6.8831 L 11.50239 -6.8757 L 11.47 -6.86858 L 11.43569 -6.86176 L 11.39949 -6.85525 L 11.17298 -6.82565 L 10.90091 -6.80629 L 10.59302 -6.79787 L 10.26033 -6.80069 L 9.91473 -6.81465 L 9.56859 -6.83925 L 9.23428 -6.87361 L 8.92377 -6.9165 L 8.64815 -6.96638 L 8.4173 -7.02148 L 8.23945 -7.07982 L 8.12098 -7.13931 L 8.06612 -7.19783 L 8.07684 -7.25329 L 8.086 -7.26304 L 8.09739 -7.2726 L 8.11098 -7.28197 L 8.12676 -7.29113 L 8.14471 -7.30007 L 8.16482 -7.30878 L 8.18704 -7.31725 L 8.21136 -7.32547 L 8.23775 -7.33343 L 8.26618 -7.34111 L 8.2966 -7.34852 L 8.32899 -7.35564 L 8.3633 -7.36246 L 8.39949 -7.36897 Z" />
    <path d="M 19.74874 9.22389 A 5 0.8562 180 0 0 29.74874 9.22389" />
    <path d="M -29.63029 0.93319 A 5 0.8562 180 0 0 -24.45141 1.60262" />
    <path d="M 26.5165 15.43798 A 2.5 0.4281 180 0 0 27.24874 15.13526 L 27.24874 9.96538" />
    <path d="M 22.24874 15.13526 A 2.5 0.4281 180 0 0 26.5165 15.43798" />
    <path d="M -22.98097 6.96202 A 2.5 0.4281 180 0 0 -22.24874 6.65931 L -22.24874 1.8317" />
    <path d="M -27.24874 6.65931 A 2.5 0.4281 180 0 0 -22.98097 6.96202" />
    <path d="M -45 -8.8073 L -45 -4.86638" />
    <path d="M 45 -8.8073 L 45 -4.86638" />
    <path d="M 19.74874 2.05771 L 19.74874 9.22389" />
    <path d="M 29.74874 0.91538 L 29.74874 9.22389" />
    <path d="M 22.24874 15.13526 L 22.24874 9.96538" />
    <path d="M -27.24874 6.65931 L -27.24874 1.48942" />
</svg>