<svg version="1.1" xmlns="http://www.w3.org/2000/svg" viewBox="-46.000001000000005 -17.64946659996651 92.00000200000001 33.65081953369331" fill="none" stroke="black" stroke-width="0.6%" vector-effect="non-scaling-stroke">
    <path d="M -31.81981 -14.47399 A 45 7.42755 360 0 1 45 -9.22192 A 45 7.42755 360 0 1 -45 -9.22192 A 45 7.42755 360 0 1 -31.81981 -14.47399 Z" />
    <path d="M -45 -5.27678 A 45 7.42755 180 0 0 45 -5.27678" />
    <path d="M -10.96016 -7.76301 L -10.7281 -7.7975 L -10.47804 -7.82745 L -10.21541 -7.85218 L -9.94591 -7.87118 L -9.6754 -7.88402 L -9.40977 -7.89042 L -9.15477 -7.89025 L -8.91596 -7.88352 L -8.69853 -7.87035 L -8.50719 -7.85105 L -8.34611 -7.82604 L -8.21879 -7.79584 L -8.128 -7.76113 L -8.07571 -7.72266 L -8.06413 -7.7014 L -8.06339 -7.67948 L -8.07348 -7.65702 L -8.09435 -7.63415 L -8.12588 -7.611 L -8.16788 -7.58772 L -8.22009 -7.56445 L -8.28222 -7.54131 L -8.3539 -7.51844 L -8.4347 -7.49599 L -8.52414 -7.47407 L -8.6217 -7.45284 L -8.72681 -7.43239 L -8.83883 -7.41287 L -9.07089 -7.37837 L -9.32095 -7.34843 L -9.58358 -7.32369 L -9.85308 -7.3047 L -10.12359 -7.29186 L -10.38922 -7.28545 L -10.64422 -7.28562 L -10.88303 -7.29236 L -11.10046 -7.30552 L -11.2918 -7.32482 L -11.45288 -7.34984 L -11.5802 -7.38003 L -11.67099 -7.41474 L -11.72328 -7.45322 L -11.73486 -7.47447 L -11.7356 -7.49639 L -11.72551 -7.51886 L -11.70464 -7.54173 L -11.67311 -7.56487 L -11.63111 -7.58815 L -11.5789 -7.61143 L -11.51677 -7.63457 L -11.44509 -7.65744 L -11.36429 -7.67989 L -11.27485 -7.7018 L -11.17729 -7.72304 L -11.07218 -7.74348 L -10.96016 -7.76301 Z" />
    <path d="M 3.58161 -8.63075 L 3.78583 -8.65844 L 4.02018 -8.67925 L 4.27741 -8.69254 L 4.54955 -8.69789 L 4.82816 -8.69515 L 5.10461 -8.68439 L 5.37033 -8.66595 L 5.61709 -8.6404 L 5.83724 -8.60854 L 6.02397 -8.57134 L 6.17148 -8.52996 L 6.27521 -8.48569 L 6.33194 -8.43989 L 6.33991 -8.39399 L 6.33354 -8.38163 L 6.32352 -8.36939 L 6.30988 -8.3573 L 6.29264 -8.3454 L 6.27184 -8.33371 L 6.24754 -8.32226 L 6.21979 -8.31107 L 6.18865 -8.30017 L 6.15419 -8.28959 L 6.11651 -8.27935 L 6.07567 -8.26948 L 6.03179 -8.25999 L 5.98495 -8.25091 L 5.93527 -8.24226 L 5.73106 -8.21457 L 5.4967 -8.19376 L 5.23947 -8.18047 L 4.96734 -8.17511 L 4.68873 -8.17786 L 4.41228 -8.18862 L 4.14656 -8.20705 L 3.89979 -8.2326 L 3.67964 -8.26447 L 3.49291 -8.30167 L 3.3454 -8.34304 L 3.24167 -8.38732 L 3.18494 -8.43311 L 3.17697 -8.47901 L 3.18334 -8.49138 L 3.19336 -8.50362 L 3.20701 -8.51571 L 3.22425 -8.52761 L 3.24504 -8.5393 L 3.26935 -8.55075 L 3.2971 -8.56194 L 3.32824 -8.57283 L 3.36269 -8.58341 L 3.40038 -8.59365 L 3.44121 -8.60353 L 3.4851 -8.61302 L 3.53193 -8.6221 L 3.58161 -8.63075 Z" />
    <path d="M 19.74874 8.67101 A 5 0.82528 180 0 0 29.74874 8.67101" />
    <path d="M -29.74874 0.50112 A 5 0.82528 180 0 0 -22.06069 1.19699" />
    <path d="M 26.5165 14.88049 A 2.5 0.41264 180 0 0 27.24874 14.58871 L 27.24874 9.38572" />
    <path d="M 22.24874 14.58871 A 2.5 0.41264 180 0 0 26.5165 14.88049" />
    <path d="M -22.98097 6.7106 A 2.5 0.41264 180 0 0 -22.24874 6.41882 L -22.24874 1.21583" />
    <path d="M -27.24874 6.41882 A 2.5 0.41264 180 0 0 -22.98097 6.7106" />
    <path d="M -45 -9.22192 L -45 -5.27678" />
    <path d="M 45 -9.22192 L 45 -5.27678" />
    <path d="M 19.74874 1.39728 L 19.74874 8.67101" />
    <path d="M 29.74874 0.29621 L 29.74874 8.67101" />
    <path d="M -29.74874 0.29621 L -29.74874 0.50112" />
    <path d="M 22.24874 14.58871 L 22.24874 9.38572" />
    <path d="M -27.24874 6.41882 L -27.24874 1.21583" />
</svg>