<svg version="1.1" xmlns="http://www.w3.org/2000/svg" viewBox="-10.341481881119835 -20.27191101017634 20.68296376223967 39.941872191664174" fill="none" stroke="black" stroke-width="0.6%" vector-effect="non-scaling-stroke">
    <path d="M 4.96169 2.76276 A 5 1.2039 180 0 0 9.34148 1.56815 L 9.34148 -1.34358 A 5 1.2039 360 0 1 4.96169 -0.14898 A 5 1.2039 360 0 1 -0.65852 -1.34358 A 5 1.2039 360 0 1 9.34148 -1.34358" />
    <path d="M -0.65852 1.56815 A 5 1.2039 180 0 0 4.96169 2.76276" />
    <path d="M 4.65159 4.10662 A 2.5 0.60195 180 0 0 6.84148 3.50931 L 6.84148 2.61076" />
    <path d="M 1.84148 3.50931 A 2.5 0.60195 180 0 0 4.65159 4.10662" />
    <path d="M 7.29972 2.53873 A 5 1.2039 360 0 1 9.34148 3.50931 A 5 1.2039 360 0 1 -0.65852 3.50931 A 5 1.2039 360 0 1 1.38324 2.53873" />
    <path d="M -0.65852 13.21511 A 5 1.2039 180 0 0 9.34148 13.21511" />
    <path d="M 4.65159 18.66531 A 2.5 0.60195 180 0 0 6.84148 18.06801 L 6.84148 14.25772" />
    <path d="M 1.84148 18.06801 A 2.5 0.60195 180 0 0 4.65159 18.66531" />
    <path d="M -3.72127 -13.96167 A 5 1.2039 180 0 0 0.65852 -15.15627 L 0.65852 -18.06801 A 5 1.2039 360 0 1 -3.72127 -16.87341 A 5 1.2039 360 0 1 -9.34148 -18.06801 A 5 1.2039 360 0 1 0.65852 -18.06801" />
    <path d="M -9.34148 -15.15627 A 5 1.2039 180 0 0 -3.72127 -13.96167" />
    <path d="M -4.03138 -12.61781 A 2.5 0.60195 180 0 0 -1.84148 -13.21511 L -1.84148 -14.11366" />
    <path d="M -6.84148 -13.21511 A 2.5 0.60195 180 0 0 -4.03138 -12.61781" />
    <path d="M -1.38324 -14.18569 A 5 1.2039 360 0 1 0.65852 -13.21511 L 0.65852 -3.50931" />
    <path d="M 0.65852 -13.21511 A 5 1.2039 360 0 1 -9.34148 -13.21511 L -9.34148 -3.50931 A 5 1.2039 180 0 0 0.65852 -3.50931" />
    <path d="M -9.34148 -13.21511 A 5 1.2039 360 0 1 -7.29972 -14.18569" />
    <path d="M -4.03138 1.94089 A 2.5 0.60195 180 0 0 -1.84148 1.34358 L -1.84148 -2.46671" />
    <path d="M -6.84148 1.34358 A 2.5 0.60195 180 0 0 -4.03138 1.94089" />
    <path d="M -0.65852 1.56815 L -0.65852 -1.34358" />
    <path d="M 1.84148 3.50931 L 1.84148 2.61076" />
    <path d="M -0.65852 3.50931 L -0.65852 13.21511" />
    <path d="M 9.34148 3.50931 L 9.34148 13.21511" />
    <path d="M 1.84148 18.06801 L 1.84148 14.25772" />
    <path d="M -9.34148 -15.15627 L -9.34148 -18.06801" />
    <path d="M -6.84148 -13.21511 L -6.84148 -14.11366" />
    <path d="M -6.84148 1.34358 L -6.84148 -2.46671" />
</svg>