<svg version="1.1" xmlns="http://www.w3.org/2000/svg" viewBox="-46.00000100000001 -17.513527168980236 92.00000200000002 34.07578343082153" fill="none" stroke="black" stroke-width="0.6%" vector-effect="non-scaling-stroke">
    <path d="M -31.81981 -14.25668 A 45 7.70536 360 0 1 45 -8.80817 A 45 7.70536 360 0 1 -45 -8.80817 A 45 7.70536 360 0 1 -31.81981 -14.25668 Z" />
    <path d="M -45 -4.86725 A 45 7.70536 180 0 0 45 -4.86725" />
    <path d="M -17.06342 -5.85568 L -16.95064 -5.85612 L -16.83759 -5.85451 L -16.7249 -5.85086 L -16.61322 -5.84519 L -16.50318 -5.83754 L -16.39539 -5.82794 L -16.29047 -5.81645 L -16.18901 -5.80314 L -16.09157 -5.78808 L -15.99872 -5.77136 L -15.91098 -5.75307 L -15.82884 -5.73331 L -15.75276 -5.7122 L -15.68318 -5.68985 L -15.4214 -5.70143 L -15.15137 -5.70888 L -14.87759 -5.71208 L -14.60465 -5.71097 L -14.33711 -5.70557 L -14.07946 -5.69596 L -13.83601 -5.68232 L -13.61082 -5.66486 L -13.40768 -5.64389 L -13.22997 -5.61975 L -13.08068 -5.59284 L -12.96229 -5.56362 L -12.8768 -5.53258 L -12.82563 -5.50023 L -12.8244 -5.499 L -12.82322 -5.49777 L -12.82208 -5.49654 L -12.82099 -5.49531 L -12.81996 -5.49408 L -12.81897 -5.49284 L -12.81803 -5.49161 L -12.81714 -5.49037 L -12.8163 -5.48914 L -12.81551 -5.4879 L -12.81477 -5.48667 L -12.81408 -5.48543 L -12.81344 -5.48419 L -12.81285 -5.48295 L -12.81888 -5.44464 L -12.8716 -5.40655 L -12.96984 -5.36952 L -13.11144 -5.33438 L -13.29325 -5.3019 L -13.51125 -5.2728 L -13.76062 -5.24772 L -14.03582 -5.22722 L -14.33077 -5.21176 L -14.63894 -5.20168 L -14.9535 -5.19719 L -15.26749 -5.1984 L -15.57396 -5.20529 L -15.86612 -5.21769 L -16.06311 -5.18217 L -16.28378 -5.15542 L -16.5219 -5.1382 L -16.77075 -5.13099 L -17.02333 -5.13401 L -17.2725 -5.14716 L -17.51125 -5.17007 L -17.73285 -5.2021 L -17.93105 -5.24235 L -18.10025 -5.28968 L -18.2357 -5.34275 L -18.33357 -5.40007 L -18.3911 -5.46003 L -18.40667 -5.52092 L -18.39525 -5.55795 L -18.36802 -5.5943 L -18.32527 -5.62957 L -18.26746 -5.66341 L -18.19519 -5.69544 L -18.10924 -5.72534 L -18.0105 -5.75278 L -17.90004 -5.77747 L -17.77901 -5.79916 L -17.6487 -5.81761 L -17.51049 -5.83263 L -17.36584 -5.84405 L -17.21629 -5.85176 L -17.06342 -5.85568 Z" />
    <path d="M -10.96881 -5.80684 L -10.73539 -5.82355 L -10.47907 -5.83085 L -10.20708 -5.82855 L -9.92712 -5.81669 L -9.64709 -5.79563 L -9.3749 -5.76596 L -9.11824 -5.7285 L -8.88437 -5.68433 L -8.67987 -5.63469 L -8.51055 -5.58098 L -8.38116 -5.52472 L -8.29538 -5.46749 L -8.25563 -5.41092 L -8.26302 -5.3566 L -8.34568 -5.29031 L -8.50752 -5.23406 L -8.74042 -5.19068 L -9.03271 -5.16234 L -9.36973 -5.15046 L -9.73457 -5.15564 L -10.10895 -5.17763 L -10.47408 -5.2153 L -10.81167 -5.26679 L -11.10478 -5.3295 L -11.33872 -5.40029 L -11.50175 -5.47561 L -11.5857 -5.55169 L -11.58636 -5.62471 L -11.5734 -5.64206 L -11.55525 -5.65893 L -11.53197 -5.67527 L -11.50363 -5.69103 L -11.47031 -5.70616 L -11.43212 -5.72062 L -11.38918 -5.73434 L -11.34163 -5.7473 L -11.28962 -5.75945 L -11.23331 -5.77076 L -11.17288 -5.78118 L -11.10851 -5.79069 L -11.04042 -5.79925 L -10.96881 -5.80684 Z" />
    <path d="M 8.84801 -5.52045 L 9.01654 -5.56698 L 9.26509 -5.60498 L 9.5825 -5.63274 L 9.95449 -5.64902 L 10.36436 -5.65308 L 10.79368 -5.64474 L 11.22317 -5.62438 L 11.63351 -5.5929 L 12.00628 -5.55173 L 12.32472 -5.50272 L 12.57452 -5.44807 L 12.74445 -5.39022 L 12.82689 -5.33179 L 12.81812 -5.2754 L 12.71026 -5.22084 L 12.50648 -5.17411 L 12.21699 -5.13757 L 11.85631 -5.11304 L 11.44253 -5.10175 L 10.99639 -5.10428 L 10.54027 -5.12048 L 10.09703 -5.14956 L 9.68891 -5.19005 L 9.33637 -5.23992 L 9.05708 -5.29668 L 8.86506 -5.35747 L 8.76992 -5.41925 L 8.77645 -5.47891 L 8.77968 -5.48199 L 8.7832 -5.48505 L 8.78702 -5.4881 L 8.79113 -5.49113 L 8.79552 -5.49414 L 8.80021 -5.49714 L 8.80518 -5.50012 L 8.81044 -5.50308 L 8.81599 -5.50602 L 8.82183 -5.50895 L 8.82795 -5.51185 L 8.83435 -5.51474 L 8.84104 -5.51761 L 8.84801 -5.52045 Z" />
    <path d="M 4.90559 -5.92183 L 4.97219 -5.91427 L 5.03546 -5.90585 L 5.09523 -5.8966 L 5.15133 -5.88654 L 5.20361 -5.87571 L 5.25191 -5.86412 L 5.29609 -5.85182 L 5.33604 -5.83884 L 5.37163 -5.82522 L 5.40277 -5.81099 L 5.42937 -5.79619 L 5.45136 -5.78087 L 5.46866 -5.76507 L 5.48124 -5.74884 L 5.48222 -5.67761 L 5.40087 -5.60315 L 5.24117 -5.52911 L 5.01094 -5.45911 L 4.72146 -5.39659 L 4.38689 -5.34461 L 4.02363 -5.3057 L 3.64947 -5.28179 L 3.28272 -5.27403 L 2.94135 -5.2828 L 2.64207 -5.30769 L 2.39954 -5.34746 L 2.22564 -5.40018 L 2.12888 -5.46325 L 1.86391 -5.45887 L 1.58322 -5.4622 L 1.29375 -5.47317 L 1.00267 -5.49151 L 0.71717 -5.51675 L 0.44433 -5.54829 L 0.19089 -5.58533 L -0.03688 -5.62695 L -0.23334 -5.67214 L -0.39363 -5.71977 L -0.51378 -5.76866 L -0.59082 -5.81761 L -0.62285 -5.8654 L -0.60906 -5.91084 L -0.60029 -5.92005 L -0.58949 -5.92909 L -0.57667 -5.93795 L -0.56185 -5.94663 L -0.54505 -5.95511 L -0.52628 -5.96339 L -0.50556 -5.97145 L -0.48292 -5.9793 L -0.45838 -5.98691 L -0.43197 -5.99428 L -0.40372 -6.0014 L -0.37366 -6.00827 L -0.34183 -6.01488 L -0.30825 -6.02121 L -0.14123 -6.04564 L 0.05501 -6.06421 L 0.27628 -6.07652 L 0.51786 -6.08231 L 0.77461 -6.08146 L 1.04103 -6.07397 L 1.31146 -6.06002 L 1.58011 -6.0399 L 1.84126 -6.01404 L 2.08934 -5.98299 L 2.31905 -5.94741 L 2.5255 -5.90807 L 2.70428 -5.8658 L 2.85158 -5.8215 L 2.98627 -5.84527 L 3.12807 -5.86701 L 3.27573 -5.88652 L 3.42797 -5.90363 L 3.58347 -5.9182 L 3.74086 -5.9301 L 3.89877 -5.93922 L 4.05583 -5.94548 L 4.21067 -5.94884 L 4.36194 -5.94925 L 4.50831 -5.94672 L 4.64851 -5.94127 L 4.78133 -5.93295 L 4.90559 -5.92183 Z" />
    <path d="M -27.27098 -7.11276 L -27.24941 -7.10752 L -27.22893 -7.10215 L -27.20953 -7.09664 L -27.19125 -7.09102 L -27.17408 -7.08527 L -27.15804 -7.07941 L -27.14314 -7.07343 L -27.12939 -7.06735 L -27.11679 -7.06116 L -27.10536 -7.05487 L -27.0951 -7.04848 L -27.08601 -7.042 L -27.07811 -7.03543 L -27.0714 -7.02877 L -27.06485 -6.96581 L -27.1545 -6.89948 L -27.33588 -6.83309 L -27.59988 -6.76998 L -27.93327 -6.71331 L -28.31933 -6.66592 L -28.7387 -6.63019 L -29.17035 -6.60792 L -29.59264 -6.6002 L -29.98438 -6.60745 L -30.32595 -6.62928 L -30.60021 -6.66461 L -30.7934 -6.71167 L -30.89584 -6.76809 L -30.90647 -6.82381 L -30.84087 -6.88249 L -30.70165 -6.94181 L -30.49433 -6.9994 L -30.22712 -7.05299 L -29.91063 -7.10045 L -29.55739 -7.13991 L -29.1814 -7.16979 L -28.79758 -7.18892 L -28.42112 -7.19653 L -28.06697 -7.19233 L -27.74915 -7.17647 L -27.48027 -7.1496 L -27.27098 -7.11276 Z" />
    <path d="M -27.20615 -8.27978 L -27.25849 -8.22504 L -27.40621 -8.17301 L -27.6425 -8.12608 L -27.95646 -8.08641 L -28.33363 -8.05584 L -28.75661 -8.03578 L -29.2059 -8.02714 L -29.66079 -8.03033 L -30.10031 -8.0452 L -30.5042 -8.07107 L -30.85382 -8.10674 L -31.13307 -8.15056 L -31.32908 -8.20053 L -31.43279 -8.25432 L -31.43753 -8.31184 L -31.33645 -8.36795 L -31.13463 -8.41983 L -30.84218 -8.46488 L -30.47377 -8.50085 L -30.04787 -8.52593 L -29.58585 -8.53886 L -29.11086 -8.539 L -28.64673 -8.52633 L -28.21672 -8.5015 L -27.84241 -8.46574 L -27.54256 -8.42086 L -27.33221 -8.36909 L -27.2219 -8.31305 L -27.21959 -8.31068 L -27.21747 -8.30831 L -27.21552 -8.30594 L -27.21376 -8.30357 L -27.21218 -8.30119 L -27.21078 -8.29882 L -27.20957 -8.29644 L -27.20853 -8.29406 L -27.20768 -8.29168 L -27.20701 -8.2893 L -27.20652 -8.28692 L -27.20621 -8.28454 L -27.20609 -8.28216 L -27.20615 -8.27978 Z" />
    <path d="M -10.96016 -7.2947 L -10.72869 -7.3304 L -10.47929 -7.36141 L -10.21735 -7.38704 L -9.94854 -7.40675 L -9.67866 -7.42011 L -9.41356 -7.42683 L -9.15898 -7.42676 L -8.9204 -7.41991 L -8.703 -7.40642 L -8.51148 -7.38659 L -8.34998 -7.36085 L -8.22199 -7.32974 L -8.13028 -7.29395 L -8.07684 -7.25425 L -8.06452 -7.23214 L -8.06314 -7.20933 L -8.0727 -7.18595 L -8.09315 -7.16213 L -8.12435 -7.13802 L -8.16613 -7.11376 L -8.21824 -7.08949 L -8.28036 -7.06537 L -8.35213 -7.04153 L -8.43311 -7.01812 L -8.52284 -6.99527 L -8.62076 -6.97312 L -8.7263 -6.95181 L -8.83883 -6.93146 L -9.0703 -6.89576 L -9.3197 -6.86475 L -9.58164 -6.83911 L -9.85045 -6.8194 L -10.12033 -6.80605 L -10.38543 -6.79933 L -10.64001 -6.79939 L -10.87859 -6.80625 L -11.09598 -6.81973 L -11.28751 -6.83957 L -11.44901 -6.86531 L -11.577 -6.89642 L -11.66871 -6.93221 L -11.72215 -6.97191 L -11.73447 -6.99401 L -11.73585 -7.01683 L -11.72629 -7.04021 L -11.70584 -7.06403 L -11.67464 -7.08814 L -11.63286 -7.1124 L -11.58075 -7.13667 L -11.51863 -7.16079 L -11.44686 -7.18463 L -11.36588 -7.20804 L -11.27615 -7.23089 L -11.17823 -7.25303 L -11.07269 -7.27435 L -10.96016 -7.2947 Z" />
    <path d="M -9.72734 -8.46346 L -9.68077 -8.4564 L -9.63662 -8.44887 L -9.59496 -8.44089 L -9.55586 -8.43247 L -9.51939 -8.42362 L -9.48562 -8.41437 L -9.45459 -8.40471 L -9.42637 -8.39468 L -9.401 -8.38429 L -9.37853 -8.37356 L -9.35899 -8.3625 L -9.34242 -8.35113 L -9.32884 -8.33948 L -9.31829 -8.32756 L -9.30514 -8.29597 L -9.31205 -8.26312 L -9.33894 -8.22938 L -9.38551 -8.19515 L -9.45123 -8.16079 L -9.53537 -8.1267 L -9.63697 -8.09326 L -9.75489 -8.06085 L -9.8878 -8.02983 L -10.03421 -8.00056 L -10.19247 -7.97335 L -10.3608 -7.94853 L -10.53729 -7.92636 L -10.71997 -7.9071 L -10.63282 -7.89621 L -10.54991 -7.88482 L -10.47149 -7.87297 L -10.3978 -7.86068 L -10.32905 -7.84801 L -10.26546 -7.83497 L -10.20721 -7.82162 L -10.15449 -7.808 L -10.10744 -7.79414 L -10.06622 -7.78008 L -10.03093 -7.76588 L -10.0017 -7.75156 L -9.97861 -7.73718 L -9.96172 -7.72278 L -9.95721 -7.71765 L -9.9535 -7.71252 L -9.95059 -7.7074 L -9.94848 -7.70229 L -9.94717 -7.69719 L -9.94665 -7.6921 L -9.94694 -7.68703 L -9.94804 -7.68197 L -9.94993 -7.67693 L -9.95262 -7.67191 L -9.95611 -7.66692 L -9.9604 -7.66194 L -9.96549 -7.657 L -9.97136 -7.65208 L -10.07999 -7.60266 L -10.27073 -7.55857 L -10.5356 -7.52164 L -10.86353 -7.49341 L -11.24081 -7.47506 L -11.65165 -7.46737 L -12.07888 -7.47066 L -12.50463 -7.48478 L -12.9111 -7.50915 L -13.28129 -7.54274 L -13.59972 -7.58416 L -13.85308 -7.63167 L -14.03077 -7.68328 L -14.12535 -7.73684 L -14.13979 -7.76179 L -14.13521 -7.78645 L -14.11165 -7.8106 L -14.06932 -7.83401 L -14.00862 -7.85648 L -13.93009 -7.8778 L -13.83444 -7.89777 L -13.72254 -7.91622 L -13.59541 -7.93298 L -13.4542 -7.9479 L -13.3002 -7.96084 L -13.13479 -7.97168 L -12.95948 -7.98033 L -12.77585 -7.9867 L -12.78374 -7.99038 L -12.79128 -7.9941 L -12.79847 -7.99786 L -12.80532 -8.00165 L -12.81181 -8.00549 L -12.81796 -8.00936 L -12.82375 -8.01326 L -12.82918 -8.0172 L -12.83426 -8.02117 L -12.83899 -8.02518 L -12.84336 -8.02922 L -12.84736 -8.03329 L -12.85102 -8.03739 L -12.85431 -8.04153 L -12.86446 -8.09677 L -12.81528 -8.15494 L -12.70838 -8.2141 L -12.54735 -8.27227 L -12.33756 -8.32752 L -12.086 -8.37799 L -11.80108 -8.42201 L -11.49231 -8.4581 L -11.16998 -8.48506 L -10.84486 -8.502 L -10.5278 -8.50833 L -10.22938 -8.50386 L -9.95956 -8.48873 L -9.72734 -8.46346 Z" />
    <path d="M -12.50399 -10.52969 L -12.4357 -10.52212 L -12.3708 -10.51365 L -12.30948 -10.50431 L -12.25191 -10.49413 L -12.19828 -10.48313 L -12.14873 -10.47136 L -12.10341 -10.45883 L -12.06246 -10.4456 L -12.02599 -10.4317 L -11.99411 -10.41716 L -11.96692 -10.40204 L -11.9445 -10.38638 L -11.9269 -10.37022 L -11.91419 -10.35361 L -11.91408 -10.28119 L -11.9979 -10.20557 L -12.16147 -10.13055 L -12.39657 -10.05989 L -12.69141 -9.99713 L -13.03122 -9.94542 L -13.39895 -9.90735 L -13.77617 -9.88483 L -14.14395 -9.87899 L -14.48385 -9.89013 L -14.77884 -9.91767 L -15.01412 -9.96026 L -15.17789 -10.01574 L -15.26194 -10.08133 L -15.26979 -10.13582 L -15.22905 -10.19266 L -15.14091 -10.25023 L -15.00791 -10.30684 L -14.83388 -10.36088 L -14.62387 -10.41077 L -14.38394 -10.45507 L -14.12101 -10.49252 L -13.84269 -10.52202 L -13.55701 -10.54271 L -13.27223 -10.55402 L -12.99657 -10.5556 L -12.738 -10.54741 L -12.50399 -10.52969 Z" />
    <path d="M -21.84402 -11.68745 L -21.96062 -11.63903 L -22.15705 -11.59628 L -22.42521 -11.56095 L -22.75409 -11.53449 L -23.13013 -11.51799 L -23.53787 -11.51213 L -23.96054 -11.51716 L -24.38073 -11.53286 L -24.78115 -11.5586 L -25.14534 -11.5933 L -25.4583 -11.63554 L -25.70716 -11.68359 L -25.88167 -11.73547 L -25.97466 -11.78904 L -25.97813 -11.84751 L -25.87742 -11.90242 L -25.67757 -11.95103 L -25.38861 -11.99089 L -25.02503 -12.02001 L -24.60506 -12.03691 L -24.14976 -12.04077 L -23.68195 -12.03138 L -23.2251 -12.00921 L -22.80212 -11.97538 L -22.43421 -11.93158 L -22.13983 -11.88001 L -21.93373 -11.82325 L -21.82625 -11.76415 L -21.82143 -11.75856 L -21.81755 -11.75297 L -21.8146 -11.74739 L -21.81259 -11.74183 L -21.81152 -11.73628 L -21.81138 -11.73075 L -21.81219 -11.72524 L -21.81393 -11.71975 L -21.81661 -11.71429 L -21.82023 -11.70885 L -21.82478 -11.70345 L -21.83026 -11.69808 L -21.83668 -11.69274 L -21.84402 -11.68745 Z" />
    <path d="M 19.21105 -6.47806 L 19.20638 -6.48263 L 19.20239 -6.48722 L 19.19909 -6.49182 L 19.19646 -6.49645 L 19.19452 -6.50108 L 19.19327 -6.50574 L 19.1927 -6.5104 L 19.19281 -6.51508 L 19.19361 -6.51977 L 19.19509 -6.52446 L 19.19726 -6.52917 L 19.20011 -6.53387 L 19.20364 -6.53859 L 19.20786 -6.5433 L 19.31638 -6.60147 L 19.52415 -6.65682 L 19.82075 -6.70658 L 20.19132 -6.74826 L 20.61726 -6.77975 L 21.07723 -6.79949 L 21.54816 -6.80647 L 22.00643 -6.80036 L 22.42906 -6.78146 L 22.79486 -6.75072 L 23.08549 -6.70968 L 23.28638 -6.66039 L 23.38744 -6.60533 L 23.38362 -6.54725 L 23.28761 -6.49369 L 23.10708 -6.44232 L 22.8497 -6.39532 L 22.52638 -6.35468 L 22.15085 -6.32213 L 21.73904 -6.29905 L 21.30841 -6.28641 L 20.87725 -6.28476 L 20.46384 -6.29416 L 20.08574 -6.31421 L 19.75897 -6.34407 L 19.49741 -6.38247 L 19.31215 -6.42777 L 19.21105 -6.47806 Z" />
    <path d="M 26.94357 -6.81716 L 27.09489 -6.8131 L 27.24279 -6.80531 L 27.38575 -6.79388 L 27.52226 -6.77893 L 27.65091 -6.76062 L 27.77037 -6.73912 L 27.87938 -6.71468 L 27.97683 -6.68753 L 28.06168 -6.65797 L 28.13307 -6.6263 L 28.19025 -6.59285 L 28.23262 -6.55797 L 28.25974 -6.52202 L 28.27133 -6.48537 L 28.26783 -6.45018 L 28.25016 -6.41503 L 28.21849 -6.38026 L 28.17313 -6.34619 L 28.1145 -6.31316 L 28.04316 -6.28146 L 27.95977 -6.25141 L 27.86513 -6.22327 L 27.76013 -6.19733 L 27.64575 -6.17381 L 27.52308 -6.15296 L 27.39327 -6.13495 L 27.25755 -6.11996 L 27.1172 -6.10814 C 27.11 -6.1 27.09 -6.09 27.08324 -6.08852 C 27.07 -6.08 27.06 -6.08 27.04861 -6.06985 C 27.04 -6.07 27.03 -6.06 27.02377 -6.05728 C 27.02 -6.05 27.01 -6.05 26.99859 -6.04523 C 26.99 -6.04 26.98 -6.04 26.97304 -6.03372 C 26.96 -6.03 26.96 -6.03 26.94714 -6.02278 C 26.94 -6.02 26.93 -6.02 26.92087 -6.01243 C 26.91 -6.01 26.9 -6.01 26.89422 -6.00271 C 26.89 -6 26.88 -6 26.8672 -5.99365 C 26.86 -5.99 26.85 -5.99 26.8398 -5.9853 C 26.83 -5.98 26.82 -5.98 26.81169 -5.97759 C 26.8 -5.98 26.79 -5.97 26.78319 -5.97068 C 26.77 -5.97 26.76 -5.97 26.75429 -5.96461 C 26.74 -5.96 26.73 -5.96 26.72501 -5.95945 C 26.72 -5.96 26.71 -5.96 26.69536 -5.95523 C 26.69 -5.95 26.68 -5.95 26.66536 -5.95202 C 26.66 -5.95 26.65 -5.95 26.63502 -5.94989 C 26.62 -5.95 26.61 -5.95 26.60436 -5.94888 C 26.6 -5.95 26.59 -5.95 26.58705 -5.94883 C 26.58 -5.95 26.58 -5.95 26.56963 -5.94917 C 26.56 -5.95 26.56 -5.95 26.55212 -5.94991 C 26.55 -5.95 26.54 -5.95 26.53455 -5.95105 C 26.53 -5.95 26.52 -5.95 26.51694 -5.95262 C 26.51 -5.95 26.51 -5.95 26.4993 -5.95461 C 26.49 -5.96 26.49 -5.96 26.48167 -5.95704 C 26.48 -5.96 26.47 -5.96 26.46405 -5.9599 C 26.45 -5.96 26.44 -5.96 26.42896 -5.96696 C 26.42 -5.97 26.41 -5.97 26.39416 -5.97579 C 26.37 -5.98 26.35 -5.99 26.326 -5.99876 C 26.25 -6.03 26.18 -6.07 26.12522 -6.11866 L 26.01975 -6.13036 L 25.91894 -6.14409 L 25.82342 -6.15976 L 25.73378 -6.17727 L 25.65058 -6.19652 L 25.57435 -6.21738 L 25.50555 -6.23972 L 25.44462 -6.26341 L 25.39194 -6.28829 L 25.34783 -6.31422 L 25.31257 -6.34102 L 25.28639 -6.36854 L 25.26943 -6.3966 L 25.26182 -6.42502 L 25.26855 -6.46936 L 25.29769 -6.51348 L 25.34881 -6.55673 L 25.42112 -6.59846 L 25.51356 -6.63805 L 25.62475 -6.67491 L 25.75301 -6.70848 L 25.89643 -6.73826 L 26.05286 -6.7638 L 26.21997 -6.78473 L 26.39526 -6.80074 L 26.57609 -6.81157 L 26.75978 -6.81707 L 26.94357 -6.81716 Z" />
    <path d="M 24.59872 -5.92329 L 24.59876 -5.92332 L 24.59879 -5.92336 L 24.59882 -5.92339 L 24.59886 -5.92342 L 24.59889 -5.92345 L 24.59893 -5.92349 L 24.59896 -5.92352 L 24.59899 -5.92355 L 24.59903 -5.92359 L 24.59906 -5.92362 L 24.59909 -5.92365 L 24.59913 -5.92368 L 24.59916 -5.92372 L 24.5992 -5.92375 L 24.62843 -5.94475 L 24.67219 -5.96515 L 24.73016 -5.98483 L 24.80193 -6.00363 L 24.88701 -6.02143 L 24.98479 -6.03809 L 25.09458 -6.05351 L 25.2156 -6.06757 L 25.34701 -6.08018 L 25.48788 -6.09124 L 25.63721 -6.10068 L 25.79396 -6.10843 L 25.95701 -6.11444 L 26.12522 -6.11866" />
    <path d="M 27.1172 -6.10814 L 27.33378 -6.09793 L 27.54306 -6.08505 L 27.74267 -6.06964 L 27.93035 -6.05186 L 28.10399 -6.03192 L 28.2616 -6.01005 L 28.40142 -5.9865 L 28.52186 -5.96153 L 28.62155 -5.93542 L 28.69937 -5.90846 L 28.75444 -5.88098 L 28.78613 -5.85326 L 28.79408 -5.82564 L 28.77821 -5.79841 L 28.66791 -5.74373 L 28.45847 -5.69493 L 28.1604 -5.65445 L 27.78861 -5.62431 L 27.36173 -5.60604 L 26.90114 -5.60054 L 26.42991 -5.60809 L 25.97165 -5.62831 L 25.5493 -5.66019 L 25.18401 -5.70213 L 24.89409 -5.75204 L 24.69406 -5.8074 L 24.59393 -5.86545 L 24.59872 -5.92329" />
    <path d="M 8.39949 -7.36992 L 8.62601 -7.39952 L 8.89808 -7.41888 L 9.20597 -7.4273 L 9.53866 -7.42448 L 9.88425 -7.41052 L 10.23039 -7.38592 L 10.5647 -7.35157 L 10.87521 -7.30868 L 11.15083 -7.2588 L 11.38169 -7.20371 L 11.55953 -7.14537 L 11.67801 -7.08588 L 11.73287 -7.02736 L 11.72215 -6.97191 L 11.62527 -6.9129 L 11.44185 -6.86392 L 11.18109 -6.82744 L 10.85606 -6.80528 L 10.48307 -6.79855 L 10.08081 -6.8076 L 9.66947 -6.83196 L 9.26965 -6.87042 L 8.90142 -6.92105 L 8.58324 -6.98131 L 8.33106 -7.04817 L 8.15753 -7.11829 L 8.07135 -7.18815 L 8.07684 -7.25425 L 8.086 -7.26399 L 8.09738 -7.27356 L 8.11098 -7.28293 L 8.12676 -7.29209 L 8.14471 -7.30103 L 8.16481 -7.30974 L 8.18704 -7.31821 L 8.21136 -7.32643 L 8.23775 -7.33439 L 8.26618 -7.34207 L 8.2966 -7.34948 L 8.32899 -7.35659 L 8.3633 -7.36341 L 8.39949 -7.36992 Z" />
    <path d="M 3.94208 -7.19255 L 3.9153 -7.20076 L 3.891 -7.2092 L 3.86921 -7.21787 L 3.84996 -7.22675 L 3.83328 -7.23584 L 3.81919 -7.24511 L 3.8077 -7.25457 L 3.79883 -7.26419 L 3.7926 -7.27396 L 3.78902 -7.28387 L 3.78808 -7.2939 L 3.78979 -7.30405 L 3.79414 -7.3143 L 3.80114 -7.32463 L 3.90098 -7.38903 L 4.09436 -7.45286 L 4.37159 -7.51294 L 4.71877 -7.56624 L 5.11848 -7.6101 L 5.55069 -7.64232 L 5.99372 -7.66127 L 6.42535 -7.66602 L 6.82395 -7.65632 L 7.16952 -7.63265 L 7.44474 -7.59622 L 7.6358 -7.54883 L 7.73313 -7.49287 L 7.73184 -7.43115 L 7.65486 -7.3773 L 7.51147 -7.32348 L 7.30671 -7.27157 L 7.04779 -7.22339 L 6.74381 -7.18065 L 6.40545 -7.14485 L 6.04463 -7.11724 L 5.67403 -7.0988 L 5.30667 -7.09018 L 4.95549 -7.09167 L 4.63283 -7.10322 L 4.35004 -7.12444 L 4.11706 -7.15457 L 3.94208 -7.19255 Z" />
    <path d="M 5.30162 -8.65427 L 5.15748 -8.60995 L 4.94247 -8.57241 L 4.66491 -8.5431 L 4.33551 -8.52315 L 3.967 -8.51333 L 3.57362 -8.51402 L 3.17057 -8.5252 L 2.77342 -8.54643 L 2.39753 -8.5769 L 2.0574 -8.61542 L 1.76619 -8.66051 L 1.53514 -8.71042 L 1.37318 -8.76324 L 1.28658 -8.8169 L 1.28485 -8.81891 L 1.28323 -8.8209 L 1.28172 -8.8229 L 1.28033 -8.8249 L 1.27905 -8.82689 L 1.27788 -8.82888 L 1.27681 -8.83087 L 1.27587 -8.83286 L 1.27503 -8.83484 L 1.2743 -8.83682 L 1.27369 -8.8388 L 1.27319 -8.84078 L 1.2728 -8.84275 L 1.27252 -8.84472 C 1.28 -8.84 1.29 -8.83 1.3046 -8.81843 C 1.31 -8.81 1.32 -8.81 1.33011 -8.79968 C 1.34 -8.79 1.35 -8.79 1.35597 -8.78264 C 1.36 -8.78 1.37 -8.77 1.38216 -8.76744 C 1.39 -8.76 1.4 -8.76 1.40869 -8.75418 C 1.42 -8.75 1.43 -8.75 1.43553 -8.74297 C 1.44 -8.74 1.45 -8.74 1.46268 -8.73391 C 1.47 -8.73 1.48 -8.73 1.49011 -8.72707 C 1.5 -8.73 1.51 -8.72 1.51783 -8.72256 C 1.52 -8.72 1.53 -8.72 1.53349 -8.72106 C 1.54 -8.72 1.54 -8.72 1.54922 -8.72034 C 1.55 -8.72 1.56 -8.72 1.565 -8.72038 C 1.57 -8.72 1.58 -8.72 1.58083 -8.72121 C 1.59 -8.72 1.59 -8.72 1.59669 -8.72283 C 1.6 -8.72 1.61 -8.72 1.61258 -8.72523 C 1.62 -8.73 1.62 -8.73 1.62849 -8.72842 C 1.63 -8.73 1.64 -8.73 1.6444 -8.7324 C 1.65 -8.73 1.66 -8.74 1.67031 -8.74056 C 1.68 -8.74 1.69 -8.75 1.69616 -8.75076 C 1.7 -8.75 1.71 -8.76 1.72191 -8.76297 C 1.73 -8.77 1.74 -8.77 1.74754 -8.77712 C 1.76 -8.78 1.76 -8.79 1.77302 -8.79316 C 1.78 -8.8 1.79 -8.8 1.7983 -8.811 C 1.81 -8.82 1.82 -8.82 1.82336 -8.83056 C 1.83 -8.84 1.84 -8.84 1.84816 -8.85173 C 1.86 -8.86 1.87 -8.87 1.88403 -8.88549 C 1.9 -8.9 1.91 -8.91 1.92 -8.92301 C 1.93 -8.94 1.94 -8.95 1.95533 -8.96331 C 1.96 -8.97 1.97 -8.98 1.98198 -8.9959 C 1.99 -9.01 2 -9.02 2.00824 -9.0298 L 2.26433 -9.04554 L 2.54531 -9.05518 L 2.84459 -9.05847 L 3.15513 -9.05533 L 3.46962 -9.04586 L 3.78067 -9.03026 L 4.08097 -9.0089 L 4.36345 -8.98228 L 4.62148 -8.95104 L 4.84899 -8.91591 L 5.04063 -8.8777 L 5.1919 -8.83733 L 5.29923 -8.79573 L 5.36011 -8.75389 L 5.36599 -8.74644 L 5.37032 -8.73902 L 5.3731 -8.73163 L 5.37432 -8.72429 L 5.374 -8.71699 L 5.37212 -8.70974 L 5.36869 -8.70255 L 5.36371 -8.69542 L 5.35719 -8.68836 L 5.34913 -8.68138 L 5.33953 -8.67447 L 5.32841 -8.66765 L 5.31577 -8.66091 L 5.30162 -8.65427 Z" />
    <path d="M -1.99465 -9.23107 L -1.83374 -9.27539 L -1.59988 -9.31219 L -1.30257 -9.33999 L -0.9539 -9.35766 L -0.56803 -9.36448 L -0.16065 -9.36016 L 0.25169 -9.34489 L 0.65223 -9.31929 L 1.02469 -9.28439 L 1.35394 -9.24162 L 1.62659 -9.19271 L 1.83156 -9.13965 L 1.96052 -9.0846 L 2.00824 -9.0298" />
    <path d="M -0.63587 -8.85495 L -0.85483 -8.8095 L -1.11384 -8.76801 L -1.40538 -8.7317 L -1.72098 -8.70161 L -2.05146 -8.67862 L -2.38723 -8.66339 L -2.71853 -8.65637 L -3.03574 -8.65777 L -3.32963 -8.66754 L -3.59168 -8.6854 L -3.81427 -8.71082 L -3.99093 -8.74308 L -4.11653 -8.78123 L -4.18742 -8.82417 L -4.20338 -8.85931 L -4.1861 -8.89592 L -4.13588 -8.93337 L -4.05357 -8.97104 L -3.94055 -9.00828 L -3.79872 -9.04447 L -3.63049 -9.07899 L -3.43869 -9.11128 L -3.22656 -9.14077 L -2.99767 -9.16697 L -2.75589 -9.18945 L -2.50529 -9.20782 L -2.25011 -9.22177 L -1.99465 -9.23107" />
    <path d="M 1.27252 -8.84472 L 1.15802 -8.8368 L 1.03753 -8.83015 L 0.91165 -8.8248 L 0.78101 -8.82079 L 0.64626 -8.81812 L 0.50807 -8.81683 L 0.36715 -8.8169 L 0.2242 -8.81835 L 0.07992 -8.82116 L -0.06494 -8.82532 L -0.20968 -8.83081 L -0.35356 -8.8376 L -0.49586 -8.84566 L -0.63587 -8.85495" />
    <path d="M 8.62633 -8.6151 L 8.64198 -8.61062 L 8.65687 -8.60607 L 8.67101 -8.60144 L 8.68438 -8.59673 L 8.69699 -8.59196 L 8.70882 -8.58711 L 8.71987 -8.5822 L 8.73013 -8.57722 L 8.73961 -8.57218 L 8.7483 -8.56708 L 8.75619 -8.56192 L 8.76329 -8.5567 L 8.76958 -8.55143 L 8.77506 -8.5461 L 8.78177 -8.48446 L 8.69018 -8.41979 L 8.5049 -8.35534 L 8.23521 -8.29434 L 7.89464 -8.23986 L 7.50027 -8.19461 L 7.07187 -8.16088 L 6.63092 -8.14035 L 6.19953 -8.13406 L 5.79934 -8.14231 L 5.45042 -8.1647 L 5.17025 -8.2001 L 4.97289 -8.24674 L 4.86823 -8.30227 L 4.85806 -8.35816 L 4.92938 -8.4168 L 5.07925 -8.47574 L 5.30142 -8.53254 L 5.5867 -8.58484 L 5.92323 -8.63048 L 6.29705 -8.66755 L 6.69264 -8.69453 L 7.09358 -8.71028 L 7.48324 -8.71416 L 7.84544 -8.706 L 8.16515 -8.68615 L 8.4291 -8.65542 L 8.62633 -8.6151 Z" />
    <path d="M 11.95498 -7.35109 L 11.92418 -7.35964 L 11.89615 -7.36849 L 11.87093 -7.37762 L 11.84855 -7.38701 L 11.82905 -7.39665 L 11.81246 -7.40653 L 11.7988 -7.41662 L 11.78811 -7.42692 L 11.78038 -7.43741 L 11.77563 -7.44807 L 11.77388 -7.45889 L 11.77512 -7.46984 L 11.77936 -7.48092 L 11.78657 -7.49211 L 11.88481 -7.55744 L 12.07554 -7.62241 L 12.34921 -7.68375 L 12.6921 -7.73839 L 13.087 -7.78359 L 13.51412 -7.81709 L 13.95204 -7.83719 L 14.37879 -7.8429 L 14.773 -7.83393 L 15.11487 -7.81073 L 15.38728 -7.77446 L 15.57655 -7.72694 L 15.67321 -7.67055 L 15.6724 -7.60813 L 15.59816 -7.55425 L 15.45995 -7.50024 L 15.26252 -7.44793 L 15.01261 -7.39911 L 14.71879 -7.35547 L 14.39111 -7.31849 L 14.04078 -7.28944 L 13.6798 -7.26931 L 13.32052 -7.25879 L 12.97523 -7.25824 L 12.65576 -7.26768 L 12.37305 -7.28679 L 12.13676 -7.31491 L 11.95498 -7.35109 Z" />
    <path d="M 8.60056 -8.24823 L 8.67762 -8.25752 L 8.75949 -8.26564 L 8.84585 -8.27256 L 8.93635 -8.27825 L 9.03065 -8.28268 L 9.12837 -8.28585 L 9.22912 -8.28774 L 9.33251 -8.28833 L 9.43812 -8.28764 L 9.54555 -8.28566 L 9.65437 -8.28239 L 9.76415 -8.27786 L 9.87445 -8.27207 L 9.98484 -8.26506 L 10.00194 -8.30248 L 10.03508 -8.33915 L 10.08389 -8.37469 L 10.14785 -8.40871 L 10.22627 -8.44083 L 10.31829 -8.47072 L 10.42293 -8.49804 L 10.53905 -8.52251 L 10.66539 -8.54385 L 10.80058 -8.56184 L 10.94316 -8.57628 L 11.0916 -8.58702 L 11.24427 -8.59394 L 11.39954 -8.59696 L 11.57513 -8.59566 L 11.74947 -8.58942 L 11.92017 -8.57831 L 12.0849 -8.56249 L 12.2414 -8.54218 L 12.38753 -8.51765 L 12.52129 -8.48924 L 12.64085 -8.45734 L 12.74458 -8.42239 L 12.83105 -8.38485 L 12.89908 -8.34525 L 12.94775 -8.30413 L 12.97639 -8.26205 L 12.9846 -8.21959 L 12.97478 -8.18226 L 12.94907 -8.14549 L 12.90775 -8.10966 L 12.85125 -8.07516 L 12.78017 -8.04234 L 12.69528 -8.01157 L 12.59747 -7.98317 L 12.4878 -7.95745 L 12.36742 -7.93467 L 12.23762 -7.91508 L 12.09979 -7.89888 L 11.95539 -7.88626 L 11.80596 -7.87735 L 11.6531 -7.87223 C 11.64 -7.85 11.63 -7.84 11.61275 -7.81856 C 11.6 -7.8 11.59 -7.78 11.57264 -7.7656" />
    <path d="M 11.6531 -7.87223 L 11.6542 -7.86826 L 11.65502 -7.8643 L 11.65555 -7.86036 L 11.65581 -7.85643 L 11.65579 -7.85252 L 11.65549 -7.84862 L 11.6549 -7.84475 L 11.65404 -7.84089 L 11.6529 -7.83705 L 11.65147 -7.83323 L 11.64977 -7.82943 L 11.64779 -7.82566 L 11.64553 -7.8219 L 11.64299 -7.81817 L 11.55202 -7.75614 L 11.37809 -7.70437 L 11.12993 -7.66546 L 10.81998 -7.64136 L 10.46378 -7.63328 L 10.07919 -7.64162 L 9.68549 -7.66597 L 9.30244 -7.7051 L 8.94923 -7.75706 L 8.64358 -7.81923 L 8.40081 -7.8885 L 8.2331 -7.9614 L 8.14886 -8.03426 L 8.15231 -8.10345 L 8.16342 -8.11636 L 8.17792 -8.12897 L 8.19581 -8.14125 L 8.21703 -8.15318 L 8.24154 -8.16473 L 8.26931 -8.17588 L 8.30027 -8.1866 L 8.33436 -8.19689 L 8.37152 -8.20671 L 8.41167 -8.21605 L 8.45474 -8.22489 L 8.50064 -8.23321 L 8.54928 -8.24099 L 8.60056 -8.24823" />
    <path d="M 11.5067 -9.25533 L 11.33802 -9.21583 L 11.10837 -9.18399 L 10.826 -9.16096 L 10.50106 -9.14755 L 10.14525 -9.14425 L 9.77137 -9.15118 L 9.39285 -9.16809 L 9.02331 -9.19438 L 8.67604 -9.22909 L 8.36353 -9.27098 L 8.09702 -9.31854 L 7.8861 -9.37006 L 7.73835 -9.42369 L 7.65909 -9.4775 L 7.65743 -9.53867 L 7.75532 -9.59432 L 7.94784 -9.64167 L 8.22534 -9.67833 L 8.57391 -9.70248 L 8.97606 -9.7129 L 9.41164 -9.70906 L 9.85879 -9.69117 L 10.2951 -9.66011 L 10.69869 -9.61745 L 11.04933 -9.56533 L 11.32942 -9.50635 L 11.52492 -9.44348 L 11.62604 -9.37986 L 11.63282 -9.37023 L 11.63723 -9.36067 L 11.63928 -9.35118 L 11.63895 -9.34179 L 11.63625 -9.3325 L 11.63119 -9.32333 L 11.62376 -9.31428 L 11.61398 -9.30537 L 11.60185 -9.2966 L 11.5874 -9.28799 L 11.57064 -9.27955 L 11.55158 -9.27128 L 11.53026 -9.26321 L 11.5067 -9.25533 Z" />
    <path d="M 37.95108 -7.94687 L 38.13683 -7.98995 L 38.39509 -8.02383 L 38.71476 -8.04705 L 39.08209 -8.05862 L 39.48128 -8.05804 L 39.89518 -8.04533 L 40.30598 -8.02105 L 40.69602 -7.98623 L 41.04852 -7.94237 L 41.34834 -7.89135 L 41.58257 -7.83538 L 41.74114 -7.77686 L 41.81724 -7.7183 L 41.8076 -7.66223 L 41.7014 -7.60722 L 41.50103 -7.56068 L 41.21651 -7.52494 L 40.86213 -7.50179 L 40.45565 -7.4924 L 40.01746 -7.49722 L 39.56952 -7.51603 L 39.1343 -7.54787 L 38.73362 -7.59116 L 38.38758 -7.64371 L 38.11352 -7.70291 L 37.92519 -7.76577 L 37.83203 -7.82914 L 37.83871 -7.88985 L 37.84322 -7.89417 L 37.84827 -7.89845 L 37.85386 -7.9027 L 37.86001 -7.90692 L 37.8667 -7.91109 L 37.87393 -7.91523 L 37.88171 -7.91934 L 37.89002 -7.9234 L 37.89887 -7.92742 L 37.90826 -7.9314 L 37.91817 -7.93533 L 37.92861 -7.93922 L 37.93958 -7.94307 L 37.95108 -7.94687 Z" />
    <path d="M 19.11062 -9.58487 L 19.2804 -9.63117 L 19.5297 -9.66889 L 19.84734 -9.69633 L 20.2191 -9.71228 L 20.6283 -9.71601 L 21.05663 -9.70736 L 21.48489 -9.68672 L 21.89388 -9.655 L 22.2653 -9.61364 L 22.58248 -9.56448 L 22.83123 -9.50972 L 23.00039 -9.45183 L 23.08239 -9.39339 L 23.07356 -9.33703 L 22.9658 -9.28244 L 22.76223 -9.23574 L 22.47305 -9.19926 L 22.11277 -9.17484 L 21.69945 -9.16369 L 21.25382 -9.16639 L 20.79821 -9.18278 L 20.35549 -9.21206 L 19.94784 -9.25275 L 19.59572 -9.30281 L 19.31677 -9.35973 L 19.12498 -9.42066 L 19.02998 -9.48254 L 19.03652 -9.54228 L 19.03984 -9.54543 L 19.04346 -9.54858 L 19.04739 -9.5517 L 19.05163 -9.55481 L 19.05617 -9.5579 L 19.06102 -9.56098 L 19.06617 -9.56403 L 19.07162 -9.56707 L 19.07737 -9.57009 L 19.08342 -9.57309 L 19.08977 -9.57606 L 19.09642 -9.57902 L 19.10337 -9.58195 L 19.11062 -9.58487 Z" />
    <path d="M 21.4166 -10.17493 L 21.60174 -10.21814 L 21.85968 -10.25217 L 22.17931 -10.27556 L 22.54686 -10.28731 L 22.94649 -10.2869 L 23.36101 -10.27435 L 23.77254 -10.2502 L 24.16337 -10.2155 L 24.51665 -10.17173 L 24.81718 -10.12079 L 25.05201 -10.06487 L 25.21101 -10.00637 L 25.28735 -9.94781 L 25.27774 -9.89173 L 25.17147 -9.83675 L 24.97096 -9.7902 L 24.68624 -9.75444 L 24.3316 -9.73125 L 23.92483 -9.72178 L 23.48631 -9.72653 L 23.03804 -9.74524 L 22.6025 -9.77699 L 22.20152 -9.82017 L 21.85521 -9.87263 L 21.58095 -9.93173 L 21.39247 -9.99452 L 21.29923 -10.05783 L 21.30592 -10.1185 L 21.31037 -10.12276 L 21.31536 -10.127 L 21.32089 -10.1312 L 21.32695 -10.13537 L 21.33355 -10.1395 L 21.34068 -10.1436 L 21.34833 -10.14766 L 21.35652 -10.15168 L 21.36523 -10.15566 L 21.37447 -10.1596 L 21.38423 -10.1635 L 21.3945 -10.16735 L 21.40529 -10.17116 L 21.4166 -10.17493 Z" />
    <path d="M -6.07759 -11.22786 L -6.28891 -11.20554 L -6.53031 -11.19158 L -6.79519 -11.18636 L -7.07636 -11.19003 L -7.36616 -11.20248 L -7.65671 -11.22337 L -7.94009 -11.25213 L -8.2086 -11.28799 L -8.45493 -11.32997 L -8.67237 -11.37692 L -8.85501 -11.42757 L -8.99788 -11.48054 L -9.09709 -11.53438 L -9.14993 -11.58763 L -9.14507 -11.65645 L -9.05238 -11.71807 L -8.87651 -11.76939 L -8.62628 -11.80784 L -8.31423 -11.83149 L -7.95602 -11.83917 L -7.5696 -11.83047 L -7.17435 -11.80584 L -6.7901 -11.76652 L -6.4361 -11.71447 L -6.13012 -11.6523 L -5.88749 -11.58314 L -5.72037 -11.51045 L -5.63716 -11.43787 L -5.62982 -11.41919 L -5.62867 -11.40084 L -5.63371 -11.38288 L -5.64492 -11.36538 L -5.66227 -11.34839 L -5.68569 -11.33198 L -5.71511 -11.3162 L -5.75041 -11.30112 L -5.79148 -11.28677 L -5.83817 -11.27322 L -5.89032 -11.26051 L -5.94774 -11.24869 L -6.01024 -11.23779 L -6.07759 -11.22786 Z" />
    <path d="M -13.26975 -12.00175 L -13.2652 -11.99956 L -13.2608 -11.99737 L -13.25657 -11.99517 L -13.25251 -11.99296 L -13.24861 -11.99074 L -13.24487 -11.98851 L -13.24129 -11.98627 L -13.23789 -11.98402 L -13.23464 -11.98176 L -13.23156 -11.9795 L -13.22865 -11.97722 L -13.2259 -11.97494 L -13.22332 -11.97265 L -13.2209 -11.97035 L -13.21454 -11.91126 L -13.3109 -11.85047 L -13.50512 -11.79103 L -13.78748 -11.73591 L -14.14381 -11.68789 L -14.55626 -11.64936 L -15.00412 -11.62227 L -15.46496 -11.60796 L -15.91566 -11.60716 L -16.33362 -11.61991 L -16.69787 -11.64557 L -16.99017 -11.68284 L -17.19585 -11.72987 L -17.30459 -11.7843 L -17.31268 -11.84096 L -17.22605 -11.8993 L -17.04871 -11.95662 L -16.78883 -12.01028 L -16.45844 -12.0578 L -16.0728 -12.09698 L -15.64972 -12.126 L -15.20877 -12.14354 L -14.77031 -12.14878 L -14.3546 -12.14147 L -13.98086 -12.12196 L -13.66635 -12.09114 L -13.4256 -12.05044 L -13.26975 -12.00175 Z" />
    <path d="M 7.11142 -11.11789 L 7.11199 -11.11928 L 7.11262 -11.12066 L 7.11332 -11.12205 L 7.11408 -11.12343 L 7.1149 -11.12482 L 7.11578 -11.1262 L 7.11672 -11.12758 L 7.11773 -11.12896 L 7.1188 -11.13034 L 7.11993 -11.13172 L 7.12112 -11.1331 L 7.12237 -11.13447 L 7.12368 -11.13585 L 7.12506 -11.13722 L 7.23563 -11.19259 L 7.44611 -11.24299 L 7.74593 -11.28591 L 8.12008 -11.31918 L 8.54978 -11.34115 L 9.0135 -11.35071 L 9.48797 -11.34738 L 9.9494 -11.33133 L 10.37466 -11.30337 L 10.74243 -11.26488 L 11.03425 -11.21782 L 11.23551 -11.16453 L 11.3361 -11.10768 L 11.33098 -11.05014 L 11.22428 -10.99606 L 11.02224 -10.94665 L 10.7345 -10.90426 L 10.37481 -10.87092 L 9.96034 -10.84821 L 9.51089 -10.83724 L 9.04793 -10.83851 L 8.59357 -10.85196 L 8.16952 -10.87697 L 7.79602 -10.91232 L 7.49092 -10.95634 L 7.26879 -11.00692 L 7.14025 -11.06164 L 7.11142 -11.11789 Z" />
    <path d="M -15.51811 -5.20359 C -15.52 -5.21 -15.52 -5.22 -15.52549 -5.23544 C -15.53 -5.25 -15.53 -5.26 -15.53331 -5.26714 C -15.54 -5.28 -15.54 -5.29 -15.54155 -5.29867 C -15.54 -5.31 -15.55 -5.32 -15.5502 -5.33001 C -15.55 -5.34 -15.56 -5.35 -15.55925 -5.36116 C -15.56 -5.37 -15.57 -5.38 -15.56869 -5.39212 C -15.57 -5.4 -15.58 -5.41 -15.57851 -5.42287 C -15.58 -5.43 -15.59 -5.44 -15.58871 -5.45341 C -15.59 -5.46 -15.6 -5.47 -15.59927 -5.48373 C -15.6 -5.49 -15.61 -5.5 -15.6102 -5.51384 C -15.61 -5.52 -15.62 -5.53 -15.62148 -5.54372 C -15.63 -5.55 -15.63 -5.56 -15.63312 -5.57339 C -15.64 -5.59 -15.65 -5.61 -15.65745 -5.63205 C -15.67 -5.65 -15.67 -5.67 -15.68318 -5.68985" />
    <path d="M 2.85158 -5.8215 C 2.85 -5.81 2.85 -5.8 2.84193 -5.79264 C 2.84 -5.78 2.84 -5.77 2.8323 -5.76361 C 2.83 -5.75 2.83 -5.75 2.82315 -5.73583 C 2.82 -5.73 2.82 -5.72 2.81402 -5.70792 C 2.81 -5.7 2.81 -5.69 2.80489 -5.67987 C 2.8 -5.67 2.8 -5.66 2.79577 -5.6517 C 2.79 -5.64 2.79 -5.63 2.78666 -5.62343 C 2.78 -5.61 2.78 -5.6 2.77755 -5.59509 C 2.77 -5.59 2.77 -5.58 2.76845 -5.56668 C 2.77 -5.56 2.76 -5.55 2.75934 -5.53825 C 2.75 -5.52 2.75 -5.5 2.74171 -5.48326 C 2.74 -5.46 2.73 -5.45 2.72409 -5.42862 C 2.72 -5.41 2.71 -5.39 2.70653 -5.37485 C 2.7 -5.36 2.69 -5.34 2.68906 -5.32246 C 2.69 -5.32 2.68 -5.31 2.68248 -5.3031" />
    <path d="M -10.71997 -7.9071 C -10.72 -7.9 -10.72 -7.89 -10.71898 -7.88137 C -10.72 -7.87 -10.72 -7.86 -10.71855 -7.85548 C -10.72 -7.85 -10.72 -7.84 -10.71873 -7.82943 C -10.72 -7.82 -10.72 -7.81 -10.71954 -7.80326 C -10.72 -7.79 -10.72 -7.79 -10.72103 -7.77698 C -10.72 -7.77 -10.72 -7.76 -10.72323 -7.75062 C -10.72 -7.74 -10.73 -7.73 -10.72621 -7.7242 C -10.73 -7.72 -10.73 -7.71 -10.72999 -7.69775 C -10.73 -7.69 -10.73 -7.68 -10.73433 -7.67288 C -10.74 -7.66 -10.74 -7.66 -10.7395 -7.64793 C -10.74 -7.64 -10.74 -7.63 -10.74556 -7.62292 C -10.75 -7.61 -10.75 -7.61 -10.75258 -7.59789 C -10.76 -7.59 -10.76 -7.58 -10.76063 -7.57287 C -10.76 -7.56 -10.77 -7.56 -10.76977 -7.54792 C -10.77 -7.54 -10.78 -7.53 -10.7801 -7.52308 C -10.78 -7.51 -10.79 -7.51 -10.79169 -7.49843" />
    <path d="M -12.1153 -7.47144 C -12.12 -7.47 -12.12 -7.47 -12.12268 -7.47573 C -12.13 -7.48 -12.15 -7.49 -12.15704 -7.49612 C -12.17 -7.5 -12.18 -7.51 -12.19106 -7.51696 C -12.2 -7.52 -12.21 -7.53 -12.22475 -7.53826 C -12.24 -7.55 -12.25 -7.55 -12.25811 -7.55998 C -12.28 -7.57 -12.29 -7.58 -12.30924 -7.59453 C -12.33 -7.61 -12.34 -7.62 -12.35962 -7.63006 C -12.38 -7.64 -12.39 -7.65 -12.40924 -7.66653 C -12.43 -7.68 -12.44 -7.69 -12.45809 -7.70391 C -12.47 -7.72 -12.49 -7.73 -12.50618 -7.74218 C -12.52 -7.76 -12.54 -7.77 -12.55351 -7.78131 C -12.57 -7.79 -12.58 -7.81 -12.60008 -7.8213 C -12.62 -7.83 -12.63 -7.85 -12.6459 -7.86213 C -12.67 -7.88 -12.69 -7.9 -12.71171 -7.92353 C -12.73 -7.94 -12.75 -7.97 -12.77585 -7.9867" />
    <path d="M -2.60036 -8.65794 C -2.59 -8.67 -2.57 -8.69 -2.55637 -8.70427 C -2.54 -8.72 -2.52 -8.74 -2.50621 -8.755 C -2.49 -8.77 -2.48 -8.78 -2.4611 -8.79913 C -2.45 -8.81 -2.43 -8.83 -2.41525 -8.84286 C -2.4 -8.86 -2.38 -8.87 -2.36887 -8.88625 C -2.35 -8.9 -2.34 -8.92 -2.32217 -8.92932 C -2.31 -8.94 -2.29 -8.96 -2.27533 -8.97212 C -2.26 -8.99 -2.24 -9 -2.22855 -9.01468 C -2.21 -9.03 -2.2 -9.04 -2.18199 -9.05705 C -2.17 -9.07 -2.15 -9.09 -2.13579 -9.09927 C -2.13 -9.11 -2.12 -9.12 -2.10961 -9.12334 C -2.1 -9.13 -2.09 -9.14 -2.08366 -9.14734 C -2.08 -9.16 -2.07 -9.16 -2.05797 -9.17126 C -2.05 -9.18 -2.04 -9.19 -2.03258 -9.19509 C -2.02 -9.21 -2.01 -9.22 -1.99465 -9.23107" />
    <path d="M 8.37666 -7.93708 C 8.38 -7.94 8.39 -7.94 8.39961 -7.93785 C 8.41 -7.94 8.41 -7.94 8.42233 -7.93768 C 8.43 -7.94 8.44 -7.94 8.44482 -7.9366 C 8.45 -7.94 8.46 -7.94 8.4671 -7.93467 C 8.47 -7.93 8.48 -7.93 8.48915 -7.9319 C 8.5 -7.93 8.5 -7.93 8.51099 -7.92834 C 8.52 -7.93 8.53 -7.93 8.53263 -7.92402 C 8.54 -7.92 8.55 -7.92 8.55406 -7.91897 C 8.57 -7.92 8.58 -7.91 8.59169 -7.90829 C 8.6 -7.9 8.62 -7.9 8.62874 -7.89555 C 8.64 -7.89 8.65 -7.89 8.66524 -7.8809 C 8.68 -7.88 8.69 -7.87 8.70122 -7.86445 C 8.71 -7.86 8.72 -7.85 8.73336 -7.84811 C 8.74 -7.84 8.75 -7.84 8.76511 -7.83046 C 8.78 -7.82 8.79 -7.82 8.79651 -7.81156 C 8.81 -7.81 8.82 -7.8 8.82755 -7.79147 C 8.84 -7.79 8.84 -7.78 8.85189 -7.77475" />
    <path d="M 8.30047 -7.92757 C 8.31 -7.93 8.33 -7.93 8.33885 -7.93371 C 8.35 -7.94 8.36 -7.94 8.37666 -7.93708" />
    <path d="M 9.96396 -7.64714 C 9.96 -7.66 9.96 -7.67 9.96381 -7.67767 C 9.96 -7.69 9.96 -7.7 9.96382 -7.70806 C 9.96 -7.72 9.96 -7.73 9.96398 -7.73839 C 9.96 -7.75 9.96 -7.76 9.96428 -7.76872 C 9.96 -7.78 9.96 -7.79 9.96486 -7.80736 C 9.97 -7.82 9.97 -7.83 9.96564 -7.84591 C 9.97 -7.86 9.97 -7.87 9.96662 -7.88434 C 9.97 -7.9 9.97 -7.91 9.96778 -7.92264 C 9.97 -7.94 9.97 -7.95 9.96911 -7.96078 C 9.97 -7.97 9.97 -7.99 9.97059 -7.99876 C 9.97 -8.01 9.97 -8.02 9.97222 -8.03656 C 9.97 -8.05 9.97 -8.06 9.97398 -8.07416 C 9.97 -8.09 9.98 -8.11 9.97643 -8.12245 C 9.98 -8.14 9.98 -8.15 9.97908 -8.17037 C 9.98 -8.19 9.98 -8.2 9.98189 -8.21791 C 9.98 -8.23 9.98 -8.25 9.98484 -8.26506" />
    <path d="M 19.74874 9.22279 A 5 0.85615 180 0 0 29.74874 9.22279" />
    <path d="M -29.63125 0.93184 A 5 0.85615 180 0 0 -24.44649 1.60192" />
    <path d="M 26.5165 15.43687 A 2.5 0.42808 180 0 0 27.24874 15.13418 L 27.24874 9.96424" />
    <path d="M 22.24874 15.13418 A 2.5 0.42808 180 0 0 26.5165 15.43687" />
    <path d="M -22.98097 6.96142 A 2.5 0.42808 180 0 0 -22.24874 6.65872 L -22.24874 1.83044" />
    <path d="M -27.24874 6.65872 A 2.5 0.42808 180 0 0 -22.98097 6.96142" />
    <path d="M -45 -8.80817 L -45 -4.86725" />
    <path d="M 45 -8.80817 L 45 -4.86725" />
    <path d="M 19.74874 2.05644 L 19.74874 9.22279" />
    <path d="M 29.74874 0.91418 L 29.74874 9.22279" />
    <path d="M 22.24874 15.13418 L 22.24874 9.96424" />
    <path d="M -27.24874 6.65872 L -27.24874 1.48878" />
</svg>