<svg version="1.1" xmlns="http://www.w3.org/2000/svg" viewBox="-46.000001 -16.87651717656815 92.000002 31.985276980963107" fill="none" stroke="black" stroke-width="0.6%" vector-effect="non-scaling-stroke">
    <path d="M -31.81981 -13.83048 A 45 6.98562 360 0 1 45 -8.8909 A 45 6.98562 360 0 1 -45 -8.8909 A 45 6.98562 360 0 1 -31.81981 -13.83048 Z" />
    <path d="M -45 -4.93939 A 45 6.98562 180 0 0 45 -4.93939" />
    <path d="M -10.96016 -7.51879 L -10.72718 -7.55135 L -10.47608 -7.57959 L -10.21236 -7.6029 L -9.94178 -7.62076 L -9.67028 -7.63278 L -9.40379 -7.63869 L -9.14817 -7.63838 L -8.90899 -7.63184 L -8.69151 -7.61922 L -8.50047 -7.6008 L -8.34008 -7.57697 L -8.21383 -7.54827 L -8.12449 -7.51531 L -8.07402 -7.47883 L -8.06359 -7.45892 L -8.06384 -7.4384 L -8.07476 -7.41739 L -8.0963 -7.39601 L -8.12833 -7.37439 L -8.17066 -7.35265 L -8.22304 -7.33092 L -8.28517 -7.30933 L -8.3567 -7.288 L -8.4372 -7.26705 L -8.5262 -7.2466 L -8.62319 -7.22679 L -8.7276 -7.20771 L -8.83883 -7.18949 L -9.07181 -7.15693 L -9.32291 -7.12868 L -9.58663 -7.10538 L -9.85721 -7.08752 L -10.12871 -7.0755 L -10.3952 -7.06958 L -10.65082 -7.0699 L -10.89 -7.07644 L -11.10748 -7.08906 L -11.29852 -7.10748 L -11.45891 -7.1313 L -11.58516 -7.16001 L -11.6745 -7.19297 L -11.72497 -7.22945 L -11.7354 -7.24936 L -11.73515 -7.26988 L -11.72423 -7.29089 L -11.70269 -7.31226 L -11.67066 -7.33389 L -11.62833 -7.35562 L -11.57595 -7.37735 L -11.51382 -7.39895 L -11.44229 -7.42028 L -11.36179 -7.44123 L -11.27279 -7.46167 L -11.1758 -7.48149 L -11.07139 -7.50057 L -10.96016 -7.51879 Z" />
    <path d="M 28.28427 -4.50016 A 5 0.77618 180 0 0 29.74874 -5.049 L 29.74874 -6.03688 A 5 0.77618 360 0 1 28.28427 -5.48804 A 5 0.77618 360 0 1 19.74874 -6.03688 A 5 0.77618 360 0 1 29.74874 -6.03688" />
    <path d="M 19.74874 -5.049 A 5 0.77618 180 0 0 28.28427 -4.50016" />
    <path d="M -21.2132 -12.18395 A 5 0.77618 180 0 0 -19.74874 -12.73279 L -19.74874 -13.72067 A 5 0.77618 360 0 1 -21.2132 -13.17183 A 5 0.77618 360 0 1 -29.74874 -13.72067 A 5 0.77618 360 0 1 -19.74874 -13.72067" />
    <path d="M -29.74874 -12.73279 A 5 0.77618 180 0 0 -21.2132 -12.18395" />
    <path d="M 19.74874 8.78128 A 5 0.77618 180 0 0 29.74874 8.78128" />
    <path d="M -29.74874 1.09749 A 5 0.77618 180 0 0 -19.96122 1.32136" />
    <path d="M 26.5165 13.99509 A 2.5 0.38809 180 0 0 27.24874 13.72067 L 27.24874 9.45347" />
    <path d="M 22.24874 13.72067 A 2.5 0.38809 180 0 0 26.5165 13.99509" />
    <path d="M -22.98097 6.3113 A 2.5 0.38809 180 0 0 -22.24874 6.03688 L -22.24874 1.76968" />
    <path d="M -27.24874 6.03688 A 2.5 0.38809 180 0 0 -22.98097 6.3113" />
    <path d="M -45 -8.8909 L -45 -4.93939" />
    <path d="M 45 -8.8909 L 45 -4.93939" />
    <path d="M 19.74874 -5.049 L 19.74874 -6.03688" />
    <path d="M -29.74874 -12.73279 L -29.74874 -13.72067" />
    <path d="M 19.74874 1.33758 L 19.74874 8.78128" />
    <path d="M 29.74874 0.30201 L 29.74874 8.78128" />
    <path d="M -29.74874 0.30201 L -29.74874 1.09749" />
    <path d="M 22.24874 13.72067 L 22.24874 9.45347" />
    <path d="M -27.24874 6.03688 L -27.24874 1.76968" />
</svg>