<svg version="1.1" xmlns="http://www.w3.org/2000/svg" viewBox="-46.000001000000005 -17.465979968486973 92.00000200000001 34.22282743599886" fill="none" stroke="black" stroke-width="0.6%" vector-effect="non-scaling-stroke">
    <path d="M -31.81981 -14.18094 A 45 7.8016 360 0 1 45 -8.66438 A 45 7.8016 360 0 1 -45 -8.66438 A 45 7.8016 360 0 1 -31.81981 -14.18094 Z" />
    <path d="M -45 -4.72495 A 45 7.8016 180 0 0 45 -4.72495" />
    <path d="M -10.04731 -6.19738 L -9.82411 -6.2207 L -9.57804 -6.23854 L -9.31511 -6.25047 L -9.04175 -6.25618 L -8.76463 -6.25556 L -8.49053 -6.2486 L -8.22613 -6.23548 L -7.9779 -6.21652 L -7.75189 -6.19218 L -7.55364 -6.16306 L -7.38798 -6.12987 L -7.25896 -6.09341 L -7.16973 -6.05459 L -7.12247 -6.01435 L -7.13004 -5.95611 L -7.22576 -5.89989 L -7.40482 -5.84851 L -7.65825 -5.80454 L -7.97335 -5.77019 L -8.3343 -5.74719 L -8.72302 -5.73668 L -9.12001 -5.73919 L -9.50536 -5.7546 L -9.85974 -5.78214 L -10.1654 -5.82041 L -10.407 -5.86751 L -10.57243 -5.92107 L -10.65339 -5.97841 L -10.66051 -5.99608 L -10.65945 -6.01376 L -10.65022 -6.03135 L -10.63285 -6.04879 L -10.60743 -6.06598 L -10.57408 -6.08285 L -10.53294 -6.09932 L -10.48421 -6.11532 L -10.42811 -6.13076 L -10.36491 -6.14559 L -10.29489 -6.15973 L -10.21838 -6.17311 L -10.13572 -6.18568 L -10.04731 -6.19738 Z" />
    <path d="M -10.96016 -7.132 L -10.72889 -7.16812 L -10.47972 -7.19949 L -10.21803 -7.22544 L -9.94945 -7.2454 L -9.6798 -7.25894 L -9.41489 -7.26577 L -9.16044 -7.26574 L -8.92195 -7.25885 L -8.70457 -7.24525 L -8.51298 -7.22524 L -8.35134 -7.19924 L -8.22311 -7.16782 L -8.13109 -7.13166 L -8.07724 -7.09154 L -8.06467 -7.06914 L -8.06307 -7.04602 L -8.07244 -7.02231 L -8.09273 -6.99817 L -8.12382 -6.97372 L -8.16552 -6.94912 L -8.21759 -6.92451 L -8.27971 -6.90004 L -8.35151 -6.87586 L -8.43256 -6.85212 L -8.52238 -6.82894 L -8.62043 -6.80648 L -8.72613 -6.78487 L -8.83883 -6.76423 L -9.0701 -6.7281 L -9.31927 -6.69673 L -9.58096 -6.67078 L -9.84954 -6.65083 L -10.11919 -6.63729 L -10.3841 -6.63046 L -10.63855 -6.63049 L -10.87704 -6.63738 L -11.09442 -6.65097 L -11.28601 -6.67099 L -11.44765 -6.69698 L -11.57588 -6.7284 L -11.6679 -6.76456 L -11.72175 -6.80469 L -11.73432 -6.82708 L -11.73592 -6.8502 L -11.72655 -6.87391 L -11.70626 -6.89806 L -11.67517 -6.92251 L -11.63347 -6.94711 L -11.5814 -6.97172 L -11.51928 -6.99618 L -11.44748 -7.02036 L -11.36643 -7.04411 L -11.27661 -7.06728 L -11.17856 -7.08974 L -11.07286 -7.11136 L -10.96016 -7.132 Z" />
    <path d="M -17.5632 -8.33867 L -17.29807 -8.36074 L -17.00264 -8.37554 L -16.68569 -8.38262 L -16.35665 -8.38177 L -16.02528 -8.37303 L -15.70144 -8.35665 L -15.39475 -8.33311 L -15.11432 -8.30313 L -14.86848 -8.26758 L -14.66454 -8.22752 L -14.50857 -8.18415 L -14.40519 -8.13875 L -14.35747 -8.09267 L -14.36685 -8.04729 L -14.46372 -7.99153 L -14.6516 -7.94201 L -14.92105 -7.90121 L -15.25858 -7.87118 L -15.64725 -7.85342 L -16.06757 -7.84883 L -16.49847 -7.85763 L -16.91834 -7.87939 L -17.30613 -7.91301 L -17.64238 -7.9568 L -17.91025 -8.00857 L -18.0963 -8.06573 L -18.19119 -8.12541 L -18.19017 -8.18461 L -18.17622 -8.19789 L -18.15718 -8.21096 L -18.13309 -8.22376 L -18.10403 -8.23628 L -18.07007 -8.24848 L -18.03131 -8.26032 L -17.98784 -8.27178 L -17.93979 -8.28281 L -17.88727 -8.2934 L -17.83045 -8.30351 L -17.76946 -8.31312 L -17.70447 -8.3222 L -17.63565 -8.33072 L -17.5632 -8.33867 Z" />
    <path d="M -18.62756 -9.44159 L -18.41161 -9.46528 L -18.16565 -9.48211 L -17.89633 -9.49162 L -17.61094 -9.49357 L -17.3172 -9.48789 L -17.02306 -9.47475 L -16.73648 -9.45449 L -16.46522 -9.42766 L -16.21661 -9.395 L -15.99738 -9.35738 L -15.81347 -9.31582 L -15.66985 -9.27145 L -15.5704 -9.22546 L -15.51783 -9.17911 L -15.51447 -9.173 L -15.51196 -9.16692 L -15.5103 -9.16085 L -15.5095 -9.15481 L -15.50956 -9.1488 L -15.51046 -9.14281 L -15.51223 -9.13686 L -15.51484 -9.13095 L -15.51831 -9.12507 L -15.52263 -9.11923 L -15.52779 -9.11344 L -15.5338 -9.1077 L -15.54066 -9.102 L -15.54835 -9.09636 L -15.23632 -9.10938 L -14.90586 -9.11748 L -14.56342 -9.12052 L -14.21573 -9.11844 L -13.86957 -9.11126 L -13.53174 -9.09914 L -13.20884 -9.08231 L -12.90719 -9.06111 L -12.6327 -9.03594 L -12.39075 -9.00729 L -12.18606 -8.97574 L -12.02265 -8.9419 L -11.90372 -8.90642 L -11.83159 -8.87001 L -11.81677 -8.8115 L -11.92621 -8.75534 L -12.1544 -8.70437 L -12.48991 -8.66113 L -12.91591 -8.6278 L -13.41104 -8.60604 L -13.95048 -8.59694 L -14.50717 -8.60097 L -15.05319 -8.61792 L -15.56118 -8.64693 L -16.00565 -8.68656 L -16.36433 -8.73482 L -16.61921 -8.78929 L -16.75753 -8.84723 L -16.76486 -8.85332 L -16.77086 -8.85941 L -16.77552 -8.8655 L -16.77884 -8.87158 L -16.78081 -8.87766 L -16.78144 -8.88373 L -16.78073 -8.88979 L -16.77867 -8.89582 L -16.77527 -8.90184 L -16.77053 -8.90784 L -16.76445 -8.9138 L -16.75704 -8.91974 L -16.74829 -8.92565 L -16.73822 -8.93152 C -16.72 -8.92 -16.71 -8.9 -16.68993 -8.89107 C -16.67 -8.88 -16.66 -8.86 -16.64141 -8.85066 C -16.63 -8.84 -16.61 -8.82 -16.59266 -8.81027 C -16.58 -8.8 -16.56 -8.78 -16.54368 -8.76991" />
    <path d="M -16.73822 -8.93152 L -16.96035 -8.92997 L -17.18808 -8.93305 L -17.41769 -8.9407 L -17.64541 -8.9528 L -17.86751 -8.96915 L -18.08034 -8.98947 L -18.28041 -9.01344 L -18.46444 -9.04067 L -18.62942 -9.0707 L -18.77264 -9.10305 L -18.89175 -9.13719 L -18.9848 -9.17254 L -19.05025 -9.20854 L -19.08705 -9.2446 L -19.09422 -9.26125 L -19.095 -9.27773 L -19.08939 -9.29398 L -19.07741 -9.30993 L -19.0591 -9.32553 L -19.03453 -9.34072 L -19.00379 -9.35546 L -18.96698 -9.36968 L -18.92424 -9.38335 L -18.87572 -9.3964 L -18.82158 -9.40879 L -18.76204 -9.42048 L -18.69728 -9.43143 L -18.62756 -9.44159" />
    <path d="M 8.74306 -7.05885 L 9.02302 -7.07892 L 9.34003 -7.09041 L 9.68409 -7.09295 L 10.04437 -7.08645 L 10.40951 -7.07114 L 10.76798 -7.04748 L 11.10851 -7.01623 L 11.42034 -6.97836 L 11.69364 -6.93508 L 11.91981 -6.88775 L 12.09171 -6.83786 L 12.20393 -6.78698 L 12.25292 -6.73672 L 12.23714 -6.68866 L 12.12573 -6.63348 L 11.91768 -6.58698 L 11.62341 -6.55149 L 11.25769 -6.52879 L 10.83885 -6.52002 L 10.38789 -6.52561 L 9.92743 -6.5453 L 9.48056 -6.57808 L 9.06968 -6.62232 L 8.7154 -6.6758 L 8.43548 -6.73583 L 8.24396 -6.79941 L 8.15044 -6.86335 L 8.15961 -6.92444 L 8.17445 -6.93648 L 8.19369 -6.94824 L 8.21728 -6.9597 L 8.24517 -6.97082 L 8.27731 -6.98159 L 8.31362 -6.99197 L 8.35403 -7.00195 L 8.39844 -7.01151 L 8.44676 -7.02062 L 8.49889 -7.02927 L 8.55471 -7.03744 L 8.6141 -7.0451 L 8.67693 -7.05224 L 8.74306 -7.05885 Z" />
    <path d="M 0.85138 -8.51677 L 0.94757 -8.53204 L 1.05121 -8.54577 L 1.1615 -8.55786 L 1.27762 -8.56823 L 1.39868 -8.5768 L 1.52377 -8.58349 L 1.65195 -8.58827 L 1.78224 -8.59109 L 1.91366 -8.59193 L 2.04523 -8.59079 L 2.17593 -8.58767 L 2.3048 -8.58261 L 2.43085 -8.57563 L 2.55313 -8.56679 C 2.56 -8.56 2.56 -8.55 2.56715 -8.5452 C 2.57 -8.54 2.58 -8.53 2.58072 -8.52336 C 2.59 -8.52 2.59 -8.51 2.59387 -8.50129 C 2.6 -8.49 2.6 -8.49 2.60663 -8.47902 C 2.61 -8.47 2.61 -8.46 2.619 -8.45656 C 2.62 -8.45 2.63 -8.44 2.63102 -8.43393 C 2.63 -8.43 2.64 -8.42 2.64269 -8.41116 C 2.65 -8.4 2.65 -8.4 2.65405 -8.38825 C 2.66 -8.38 2.66 -8.37 2.66509 -8.36523 C 2.67 -8.36 2.67 -8.35 2.67585 -8.34209 C 2.68 -8.33 2.68 -8.33 2.68633 -8.31885 C 2.69 -8.31 2.69 -8.3 2.69656 -8.29551 C 2.7 -8.29 2.7 -8.28 2.70654 -8.27208 C 2.71 -8.26 2.71 -8.26 2.71631 -8.24854 C 2.72 -8.24 2.72 -8.23 2.72586 -8.22489 C 2.73 -8.22 2.73 -8.21 2.73522 -8.20113 C 2.74 -8.19 2.75 -8.17 2.75114 -8.15933 C 2.76 -8.15 2.76 -8.13 2.76653 -8.11721 C 2.77 -8.1 2.78 -8.09 2.78143 -8.07484 C 2.79 -8.06 2.79 -8.05 2.79584 -8.03226" />
    <path d="M 1.96321 -8.0669 L 1.78861 -8.06859 L 1.61593 -8.07376 L 1.44745 -8.08232 L 1.28543 -8.09418 L 1.13201 -8.10917 L 0.98925 -8.12709 L 0.85904 -8.1477 L 0.74311 -8.17073 L 0.64301 -8.19588 L 0.56007 -8.2228 L 0.4954 -8.25115 L 0.44985 -8.28053 L 0.42404 -8.31057 L 0.4183 -8.34085 L 0.4225 -8.3549 L 0.43104 -8.36888 L 0.44391 -8.38274 L 0.46105 -8.39645 L 0.48243 -8.40996 L 0.50799 -8.42325 L 0.53764 -8.43626 L 0.5713 -8.44897 L 0.60888 -8.46133 L 0.65027 -8.47331 L 0.69535 -8.48488 L 0.74399 -8.496 L 0.79605 -8.50664 L 0.85138 -8.51677" />
    <path d="M 2.55313 -8.56679 L 2.75818 -8.56225 L 2.96192 -8.55466 L 3.16197 -8.54409 L 3.35599 -8.53068 L 3.54172 -8.51457 L 3.717 -8.49596 L 3.87977 -8.47507 L 4.02815 -8.45213 L 4.1604 -8.42742 L 4.27499 -8.40121 L 4.37056 -8.37383 L 4.44601 -8.34559 L 4.50046 -8.31681 L 4.53328 -8.28783 L 4.5426 -8.24895 L 4.51152 -8.21115 L 4.4407 -8.17524 L 4.33163 -8.14198 L 4.18665 -8.11209 L 4.00885 -8.08619 L 3.802 -8.06485 L 3.57052 -8.04851 L 3.31934 -8.03753 L 3.0538 -8.03213 L 2.77955 -8.03244 L 2.50245 -8.03844 L 2.22839 -8.05001 L 1.96321 -8.0669" />
    <path d="M -9.63213 -8.68946 L -9.42394 -8.71412 L -9.18957 -8.73263 L -8.93523 -8.7445 L -8.66766 -8.74941 L -8.39396 -8.74725 L -8.12137 -8.73805 L -7.85712 -8.72207 L -7.60822 -8.69973 L -7.38126 -8.67163 L -7.18225 -8.6385 L -7.01648 -8.60123 L -6.88832 -8.5608 L -6.80119 -8.51828 L -6.75738 -8.47481 L -6.7699 -8.4155 L -6.86597 -8.35954 L -7.04077 -8.30972 L -7.28554 -8.26854 L -7.588 -8.23807 L -7.93299 -8.21984 L -8.30321 -8.21477 L -8.68009 -8.22309 L -9.04474 -8.24441 L -9.37886 -8.27764 L -9.66571 -8.32113 L -9.89091 -8.37269 L -10.04315 -8.42973 L -10.11481 -8.4894 L -10.1198 -8.5058 L -10.11844 -8.52211 L -10.11074 -8.53827 L -10.09672 -8.55421 L -10.07643 -8.56989 L -10.04996 -8.58523 L -10.0174 -8.60018 L -9.97888 -8.61469 L -9.93454 -8.6287 L -9.88454 -8.64215 L -9.82909 -8.655 L -9.76838 -8.6672 L -9.70264 -8.6787 L -9.63213 -8.68946 Z" />
    <path d="M -18.56179 -10.6128 L -18.35016 -10.64479 L -18.11818 -10.6716 L -17.87141 -10.6926 L -17.61577 -10.70728 L -17.35737 -10.71528 L -17.10242 -10.71642 L -16.85703 -10.71067 L -16.62708 -10.69816 L -16.41807 -10.6792 L -16.23503 -10.65424 L -16.08233 -10.62388 L -15.96364 -10.58884 L -15.88181 -10.54998 L -15.83879 -10.50821 L -15.84717 -10.44463 L -15.93849 -10.38027 L -16.10816 -10.31835 L -16.34768 -10.26197 L -16.64504 -10.21396 L -16.98532 -10.17673 L -17.35147 -10.15215 L -17.72512 -10.14144 L -18.08754 -10.14515 L -18.42055 -10.16309 L -18.70745 -10.19435 L -18.93386 -10.23738 L -19.08843 -10.29001 L -19.1634 -10.34961 L -19.16978 -10.369 L -19.16812 -10.38868 L -19.15842 -10.40855 L -19.14074 -10.42852 L -19.11517 -10.44849 L -19.08181 -10.46837 L -19.04085 -10.48805 L -18.99246 -10.50745 L -18.93689 -10.52648 L -18.87441 -10.54503 L -18.80531 -10.56302 L -18.72992 -10.58037 L -18.64862 -10.59699 L -18.56179 -10.6128 Z" />
    <path d="M -10.57298 -10.17519 L -10.53267 -10.16531 L -10.49494 -10.1551 L -10.45985 -10.14458 L -10.42748 -10.13377 L -10.39791 -10.1227 L -10.37118 -10.11138 L -10.34736 -10.09985 L -10.32649 -10.08812 L -10.30862 -10.07623 L -10.29379 -10.06418 L -10.28202 -10.05202 L -10.27335 -10.03976 L -10.26778 -10.02743 L -10.26533 -10.01506 L -10.29871 -9.95441 L -10.40579 -9.89636 L -10.5812 -9.84383 L -10.81615 -9.79944 L -11.09886 -9.76543 L -11.41514 -9.7435 L -11.74915 -9.73475 L -12.08412 -9.73962 L -12.40328 -9.75786 L -12.6906 -9.78856 L -12.93168 -9.83018 L -13.11444 -9.88063 L -13.22971 -9.93739 L -13.27171 -9.9976 L -13.2717 -10.00474 L -13.27065 -10.01188 L -13.26857 -10.01901 L -13.26545 -10.02614 L -13.2613 -10.03325 L -13.25611 -10.04035 L -13.2499 -10.04742 L -13.24267 -10.05446 L -13.23442 -10.06147 L -13.22516 -10.06844 L -13.21489 -10.07537 L -13.20362 -10.08225 L -13.19137 -10.08908 L -13.17813 -10.09585 C -13.18 -10.06 -13.18 -10.03 -13.17998 -10.0022 C -13.18 -9.97 -13.18 -9.94 -13.18138 -9.9086" />
    <path d="M -13.10518 -10.44928 L -12.91353 -10.47729 L -12.69691 -10.49927 L -12.46136 -10.51459 L -12.21345 -10.52283 L -11.96013 -10.52376 L -11.70844 -10.51735 L -11.46543 -10.50378 L -11.23788 -10.48343 L -11.03214 -10.45687 L -10.85395 -10.42484 L -10.7083 -10.38824 L -10.59925 -10.34808 L -10.52984 -10.30549 L -10.50202 -10.26166 L -10.5015 -10.25537 L -10.50184 -10.24908 L -10.50306 -10.2428 L -10.50513 -10.23653 L -10.50807 -10.23028 L -10.51188 -10.22404 L -10.51654 -10.21782 L -10.52206 -10.21163 L -10.52844 -10.20547 L -10.53566 -10.19933 L -10.54373 -10.19324 L -10.55265 -10.18718 L -10.5624 -10.18116 L -10.57298 -10.17519 C -10.56 -10.12 -10.55 -10.07 -10.53676 -10.01998 C -10.52 -9.97 -10.51 -9.92 -10.50172 -9.86446" />
    <path d="M -13.17813 -10.09585 L -13.22401 -10.10593 L -13.26709 -10.11637 L -13.30727 -10.12715 L -13.34445 -10.13824 L -13.37855 -10.14961 L -13.40949 -10.16125 L -13.43719 -10.17311 L -13.46159 -10.18518 L -13.48263 -10.19743 L -13.50027 -10.20982 L -13.51446 -10.22234 L -13.52518 -10.23494 L -13.53239 -10.2476 L -13.53608 -10.2603 L -13.53588 -10.27533 L -13.53074 -10.29031 L -13.52067 -10.30519 L -13.50571 -10.31994 L -13.4859 -10.33448 L -13.46131 -10.34879 L -13.43201 -10.36282 L -13.39811 -10.37651 L -13.35972 -10.38982 L -13.31695 -10.40272 L -13.26996 -10.41515 L -13.21888 -10.42708 L -13.16389 -10.43847 L -13.10518 -10.44928" />
    <path d="M -15.24754 -8.62734 C -15.26 -8.64 -15.26 -8.65 -15.273 -8.66797 C -15.28 -8.68 -15.29 -8.7 -15.29856 -8.70857 C -15.31 -8.72 -15.32 -8.74 -15.32422 -8.74914 C -15.33 -8.76 -15.34 -8.78 -15.34997 -8.78969 C -15.36 -8.8 -15.37 -8.82 -15.37582 -8.8302 C -15.38 -8.84 -15.39 -8.86 -15.40177 -8.8707 C -15.41 -8.88 -15.42 -8.9 -15.42781 -8.91117 C -15.44 -8.92 -15.45 -8.94 -15.45396 -8.95164 C -15.47 -8.98 -15.49 -9 -15.50096 -9.02396 C -15.52 -9.05 -15.53 -9.07 -15.54835 -9.09636" />
    <path d="M 19.74874 9.41428 A 5 0.86684 180 0 0 29.74874 9.41428" />
    <path d="M -29.28046 1.19923 A 5 0.86684 180 0 0 -25.64539 1.68575" />
    <path d="M 26.5165 15.6299 A 2.5 0.43342 180 0 0 27.24874 15.32342 L 27.24874 10.16499" />
    <path d="M 22.24874 15.32342 A 2.5 0.43342 180 0 0 26.5165 15.6299" />
    <path d="M -22.98097 7.04858 A 2.5 0.43342 180 0 0 -22.24874 6.7421 L -22.24874 2.0564" />
    <path d="M -27.24874 6.7421 A 2.5 0.43342 180 0 0 -22.98097 7.04858" />
    <path d="M -45 -8.66438 L -45 -4.72495" />
    <path d="M 45 -8.66438 L 45 -4.72495" />
    <path d="M 19.74874 2.28522 L 19.74874 9.41428" />
    <path d="M 29.74874 1.12869 L 29.74874 9.41428" />
    <path d="M 22.24874 15.32342 L 22.24874 10.16499" />
    <path d="M -27.24874 6.7421 L -27.24874 1.58367" />
</svg>