<svg version="1.1" xmlns="http://www.w3.org/2000/svg" viewBox="-46.000001 -17.86439459213761 92.000002 32.97315439653257" fill="none" stroke="black" stroke-width="0.6%" vector-effect="non-scaling-stroke">
    <path d="M -31.81981 -14.81835 A 45 6.98562 360 0 1 45 -9.87877 A 45 6.98562 360 0 1 -45 -9.87877 A 45 6.98562 360 0 1 -31.81981 -14.81835 Z" />
    <path d="M -45 -5.92726 A 45 6.98562 180 0 0 45 -5.92726" />
    <path d="M -3.53553 -10.42762 A 5 0.77618 360 0 1 5 -9.87877 A 5 0.77618 360 0 1 -5 -9.87877 A 5 0.77618 360 0 1 -3.53553 -10.42762 Z" />
    <path d="M 19.74874 7.7934 A 5 0.77618 180 0 0 29.74874 7.7934" />
    <path d="M -29.74874 0.10961 A 5 0.77618 180 0 0 -19.96122 0.33348" />
    <path d="M 26.5165 13.99509 A 2.5 0.38809 180 0 0 27.24874 13.72067 L 27.24874 8.4656" />
    <path d="M 22.24874 13.72067 A 2.5 0.38809 180 0 0 26.5165 13.99509" />
    <path d="M -22.98097 6.3113 A 2.5 0.38809 180 0 0 -22.24874 6.03688 L -22.24874 0.78181" />
    <path d="M -27.24874 6.03688 A 2.5 0.38809 180 0 0 -22.98097 6.3113" />
    <path d="M -45 -9.87877 L -45 -5.92726" />
    <path d="M 45 -9.87877 L 45 -5.92726" />
    <path d="M 19.74874 0.3497 L 19.74874 7.7934" />
    <path d="M 29.74874 -0.68587 L 29.74874 7.7934" />
    <path d="M -29.74874 -0.68587 L -29.74874 0.10961" />
    <path d="M 22.24874 13.72067 L 22.24874 8.4656" />
    <path d="M -27.24874 6.03688 L -27.24874 0.78181" />
</svg>