<svg version="1.1" xmlns="http://www.w3.org/2000/svg" viewBox="-46.000001 -17.86439501310528 92.000002 32.97315506639905" fill="none" stroke="black" stroke-width="0.6%" vector-effect="non-scaling-stroke">
    <path d="M -31.81981 -14.81835 A 45 6.98562 360 0 1 45 -9.87877 A 45 6.98562 360 0 1 -45 -9.87877 A 45 6.98562 360 0 1 -31.81981 -14.81835 Z" />
    <path d="M -45 -5.92726 A 45 6.98562 180 0 0 45 -5.92726" />
    <path d="M 1.75539 -5.60718 L 1.96753 -5.63253 L 2.21177 -5.65107 L 2.48043 -5.6622 L 2.76503 -5.66557 L 3.05661 -5.66108 L 3.34598 -5.64887 L 3.62402 -5.62933 L 3.88196 -5.60306 L 4.11169 -5.5709 L 4.30595 -5.53386 L 4.45862 -5.49311 L 4.56491 -5.44993 L 4.62144 -5.40568 L 4.62645 -5.36177 L 4.55912 -5.30894 L 4.41292 -5.26148 L 4.1952 -5.22177 L 3.91686 -5.19181 L 3.59186 -5.17309 L 3.23651 -5.16656 L 2.86862 -5.17254 L 2.50663 -5.19073 L 2.16871 -5.22022 L 1.87178 -5.25953 L 1.63075 -5.3067 L 1.4577 -5.35934 L 1.36131 -5.41483 L 1.34641 -5.47039 L 1.35368 -5.48168 L 1.36451 -5.49284 L 1.37887 -5.50382 L 1.39672 -5.51462 L 1.41803 -5.5252 L 1.44275 -5.53554 L 1.47083 -5.54563 L 1.50221 -5.55543 L 1.53681 -5.56493 L 1.57457 -5.5741 L 1.6154 -5.58293 L 1.65921 -5.5914 L 1.70591 -5.59949 L 1.75539 -5.60718 Z" />
    <path d="M -2.3266 -7.16309 L -2.13374 -7.18813 L -1.91685 -7.20791 L -1.68192 -7.2219 L -1.43545 -7.22971 L -1.18426 -7.23111 L -0.93529 -7.22608 L -0.69542 -7.21474 L -0.47129 -7.19742 L -0.26909 -7.17459 L -0.09441 -7.14688 L 0.04791 -7.11507 L 0.15395 -7.08002 L 0.22076 -7.04271 L 0.2465 -7.00417 L 0.21514 -6.95216 L 0.10958 -6.90246 L -0.06489 -6.85756 L -0.29951 -6.81971 L -0.58253 -6.79081 L -0.89974 -6.77232 L -1.23525 -6.76515 L -1.57223 -6.76967 L -1.89378 -6.78564 L -2.18378 -6.81228 L -2.42768 -6.84825 L -2.61326 -6.89173 L -2.73121 -6.94055 L -2.77562 -6.99227 L -2.77478 -7.00577 L -2.76888 -7.01925 L -2.75793 -7.03266 L -2.74197 -7.04595 L -2.72105 -7.05908 L -2.69525 -7.07201 L -2.66465 -7.08469 L -2.62935 -7.09708 L -2.58947 -7.10914 L -2.54515 -7.12082 L -2.49653 -7.1321 L -2.44378 -7.14293 L -2.38708 -7.15327 L -2.3266 -7.16309 Z" />
    <path d="M 4.95709 -6.68799 L 5.20408 -6.71158 L 5.47524 -6.72969 L 5.76307 -6.74184 L 6.05961 -6.74768 L 6.35665 -6.74705 L 6.64595 -6.73997 L 6.91953 -6.72664 L 7.16979 -6.70743 L 7.38982 -6.68286 L 7.57353 -6.65362 L 7.71582 -6.62052 L 7.81276 -6.58447 L 7.86166 -6.54647 L 7.86118 -6.50757 L 7.78269 -6.45565 L 7.61868 -6.40666 L 7.3774 -6.36306 L 7.07094 -6.32703 L 6.71466 -6.30037 L 6.32644 -6.28444 L 5.92573 -6.28001 L 5.53264 -6.28732 L 5.16687 -6.306 L 4.84676 -6.33512 L 4.58837 -6.37321 L 4.40465 -6.41836 L 4.30482 -6.46831 L 4.29388 -6.52055 L 4.30563 -6.53407 L 4.32331 -6.54752 L 4.34686 -6.56086 L 4.37618 -6.57404 L 4.4112 -6.58702 L 4.45179 -6.59975 L 4.49781 -6.6122 L 4.54912 -6.62433 L 4.60553 -6.63608 L 4.66687 -6.64743 L 4.73292 -6.65833 L 4.80347 -6.66874 L 4.87828 -6.67864 L 4.95709 -6.68799 Z" />
    <path d="M -34.42006 -8.54385 L -34.11524 -8.55784 L -33.78892 -8.56721 L -33.44798 -8.57175 L -33.09958 -8.57137 L -32.75105 -8.56608 L -32.40972 -8.556 L -32.08277 -8.54132 L -31.77708 -8.52237 L -31.49907 -8.49954 L -31.2546 -8.47331 L -31.0488 -8.44423 L -30.88601 -8.41292 L -30.76964 -8.38003 L -30.70214 -8.34625 L -30.69695 -8.29394 L -30.81193 -8.24384 L -31.04131 -8.19845 L -31.37359 -8.16006 L -31.79211 -8.13059 L -32.27589 -8.11151 L -32.80066 -8.10378 L -33.34011 -8.1078 L -33.8672 -8.12335 L -34.35548 -8.14966 L -34.78048 -8.18542 L -35.12088 -8.22881 L -35.35962 -8.27768 L -35.48472 -8.32957 L -35.50039 -8.34813 L -35.50095 -8.36663 L -35.48641 -8.38495 L -35.45684 -8.40297 L -35.41244 -8.42058 L -35.35348 -8.43767 L -35.28033 -8.45414 L -35.19346 -8.46988 L -35.09341 -8.48479 L -34.9808 -8.49878 L -34.85635 -8.51176 L -34.72083 -8.52364 L -34.57509 -8.53436 L -34.42006 -8.54385 Z" />
    <path d="M -10.96016 -8.50667 L -10.72718 -8.53923 L -10.47608 -8.56747 L -10.21236 -8.59078 L -9.94178 -8.60863 L -9.67028 -8.62065 L -9.40379 -8.62657 L -9.14817 -8.62626 L -8.90899 -8.61972 L -8.69151 -8.6071 L -8.50047 -8.58868 L -8.34008 -8.56485 L -8.21383 -8.53615 L -8.12449 -8.50319 L -8.07402 -8.4667 L -8.06359 -8.44679 L -8.06384 -8.42628 L -8.07476 -8.40527 L -8.0963 -8.38389 L -8.12833 -8.36227 L -8.17066 -8.34053 L -8.22304 -8.3188 L -8.28517 -8.29721 L -8.3567 -8.27587 L -8.4372 -8.25492 L -8.5262 -8.23448 L -8.62319 -8.21466 L -8.7276 -8.19559 L -8.83883 -8.17736 L -9.07181 -8.1448 L -9.32291 -8.11656 L -9.58663 -8.09326 L -9.85721 -8.0754 L -10.12871 -8.06338 L -10.3952 -8.05746 L -10.65082 -8.05778 L -10.89 -8.06431 L -11.10748 -8.07693 L -11.29852 -8.09536 L -11.45891 -8.11918 L -11.58516 -8.14789 L -11.6745 -8.18084 L -11.72497 -8.21733 L -11.7354 -8.23724 L -11.73515 -8.25776 L -11.72423 -8.27877 L -11.70269 -8.30014 L -11.67066 -8.32176 L -11.62833 -8.3435 L -11.57595 -8.36523 L -11.51382 -8.38682 L -11.44229 -8.40816 L -11.36179 -8.42911 L -11.27279 -8.44955 L -11.1758 -8.46937 L -11.07139 -8.48844 L -10.96016 -8.50667 Z" />
    <path d="M -7.96599 -9.71634 L -7.70584 -9.73338 L -7.42232 -9.74545 L -7.12198 -9.7523 L -6.81175 -9.75375 L -6.4988 -9.74978 L -6.19036 -9.74047 L -5.89356 -9.72604 L -5.61525 -9.70683 L -5.36186 -9.68328 L -5.13925 -9.65593 L -4.95256 -9.62541 L -4.8061 -9.59244 L -4.70326 -9.55776 L -4.64641 -9.52219 L -4.649 -9.46982 L -4.75414 -9.41991 L -4.95656 -9.37496 L -5.24611 -9.33723 L -5.60826 -9.30861 L -6.02485 -9.29054 L -6.47501 -9.28392 L -6.93615 -9.28908 L -7.38515 -9.30576 L -7.7995 -9.33313 L -8.15842 -9.36982 L -8.44391 -9.41398 L -8.64165 -9.4634 L -8.74174 -9.5156 L -8.75221 -9.53258 L -8.75194 -9.54948 L -8.74093 -9.56622 L -8.71924 -9.58272 L -8.68697 -9.59888 L -8.64431 -9.61463 L -8.59146 -9.62987 L -8.52872 -9.64454 L -8.45639 -9.65855 L -8.37487 -9.67183 L -8.28458 -9.68431 L -8.18599 -9.69593 L -8.07961 -9.70663 L -7.96599 -9.71634 Z" />
    <path d="M 5.40963 -9.039 L 5.62094 -9.06534 L 5.86701 -9.08437 L 6.13983 -9.09545 L 6.43054 -9.09823 L 6.72968 -9.09263 L 7.02752 -9.07882 L 7.31437 -9.05725 L 7.58092 -9.02863 L 7.81848 -8.99388 L 8.01934 -8.95414 L 8.17696 -8.91069 L 8.28621 -8.86496 L 8.34355 -8.81842 L 8.34711 -8.77259 L 8.27657 -8.71887 L 8.12647 -8.67124 L 7.90433 -8.63209 L 7.62128 -8.60337 L 7.29152 -8.58654 L 6.93159 -8.58243 L 6.55953 -8.59124 L 6.194 -8.61255 L 5.85333 -8.64528 L 5.55461 -8.68778 L 5.3128 -8.73793 L 5.14004 -8.79322 L 5.045 -8.85086 L 5.03242 -8.90797 L 5.03972 -8.91882 L 5.05018 -8.92951 L 5.0638 -8.94003 L 5.08053 -8.95036 L 5.10035 -8.96048 L 5.12323 -8.97037 L 5.14911 -8.98001 L 5.17795 -8.98938 L 5.2097 -8.99847 L 5.24428 -9.00725 L 5.28164 -9.01571 L 5.32171 -9.02383 L 5.3644 -9.0316 L 5.40963 -9.039 Z" />
    <path d="M 14.38752 -8.47665 L 14.1971 -8.44608 L 13.98128 -8.42115 L 13.74613 -8.40256 L 13.4983 -8.39084 L 13.24478 -8.38632 L 12.99272 -8.38913 L 12.74924 -8.39918 L 12.52119 -8.4162 L 12.31502 -8.4397 L 12.13654 -8.46902 L 11.99078 -8.50334 L 11.88187 -8.54167 L 11.81286 -8.58296 L 11.78572 -8.62602 L 11.81584 -8.68414 L 11.92021 -8.74036 L 12.0936 -8.79184 L 12.32731 -8.83601 L 12.60962 -8.87065 L 12.92638 -8.89402 L 13.2617 -8.90496 L 13.59876 -8.90292 L 13.92068 -8.88799 L 14.21129 -8.86093 L 14.45604 -8.82309 L 14.64265 -8.77637 L 14.76176 -8.72311 L 14.80739 -8.66599 L 14.80696 -8.6514 L 14.80176 -8.6368 L 14.7918 -8.62222 L 14.7771 -8.60772 L 14.75773 -8.59335 L 14.73374 -8.57913 L 14.7052 -8.56513 L 14.67221 -8.55139 L 14.63487 -8.53794 L 14.5933 -8.52484 L 14.54763 -8.51212 L 14.498 -8.49982 L 14.44458 -8.48798 L 14.38752 -8.47665 Z" />
    <path d="M 12.71504 -12.04017 L 13.06055 -12.05766 L 13.4296 -12.06966 L 13.81273 -12.07589 L 14.20014 -12.07617 L 14.58191 -12.0705 L 14.94824 -12.05902 L 15.28977 -12.04204 L 15.59774 -12.01998 L 15.86427 -11.9934 L 16.08252 -11.963 L 16.24691 -11.92955 L 16.35322 -11.8939 L 16.39874 -11.85697 L 16.3823 -11.8197 L 16.25621 -11.76876 L 16.01595 -11.72158 L 15.67359 -11.68053 L 15.24629 -11.64768 L 14.75547 -11.62466 L 14.22575 -11.61263 L 13.68369 -11.6122 L 13.15646 -11.62338 L 12.67052 -11.64562 L 12.25022 -11.67781 L 11.91664 -11.71831 L 11.6865 -11.76512 L 11.57136 -11.81587 L 11.57698 -11.86802 L 11.60091 -11.88283 L 11.63463 -11.89748 L 11.67802 -11.91191 L 11.73088 -11.92606 L 11.793 -11.93987 L 11.86413 -11.95328 L 11.94397 -11.96624 L 12.0322 -11.9787 L 12.12845 -11.99061 L 12.23231 -12.00191 L 12.34338 -12.01256 L 12.46118 -12.02251 L 12.58524 -12.03173 L 12.71504 -12.04017 Z" />
    <path d="M 0.50522 -10.84469 L 0.71195 -10.87186 L 0.94008 -10.89423 L 1.18389 -10.91123 L 1.43729 -10.92244 L 1.69391 -10.92758 L 1.94734 -10.92651 L 2.19122 -10.91927 L 2.41945 -10.90604 L 2.62631 -10.88714 L 2.80662 -10.86305 L 2.95587 -10.83438 L 3.07031 -10.80184 L 3.14708 -10.76625 L 3.18426 -10.7285 L 3.16755 -10.67318 L 3.07055 -10.6182 L 2.89812 -10.56632 L 2.6589 -10.52013 L 2.3649 -10.48197 L 2.03085 -10.45373 L 1.67351 -10.43683 L 1.31079 -10.43213 L 0.96088 -10.43985 L 0.64133 -10.45962 L 0.36816 -10.49043 L 0.15508 -10.53075 L 0.01275 -10.57856 L -0.05167 -10.63144 L -0.05522 -10.64758 L -0.05172 -10.66385 L -0.04117 -10.6802 L -0.02363 -10.69655 L 0.00083 -10.71282 L 0.0321 -10.72895 L 0.07004 -10.74486 L 0.11449 -10.7605 L 0.16526 -10.77578 L 0.22213 -10.79065 L 0.28484 -10.80504 L 0.35313 -10.81888 L 0.4267 -10.83211 L 0.50522 -10.84469 Z" />
    <path d="M 3.5485 -13.12636 L 3.81425 -13.14939 L 4.10358 -13.16702 L 4.40867 -13.17877 L 4.72124 -13.18433 L 5.03284 -13.18353 L 5.33503 -13.1764 L 5.61962 -13.16314 L 5.8789 -13.14411 L 6.10585 -13.11981 L 6.29432 -13.09092 L 6.43922 -13.0582 L 6.53661 -13.02255 L 6.58386 -12.98493 L 6.57968 -12.94637 L 6.49171 -12.8942 L 6.31316 -12.84482 L 6.05298 -12.80071 L 5.72421 -12.76408 L 5.34334 -12.73677 L 4.92947 -12.72015 L 4.50336 -12.71505 L 4.08636 -12.72172 L 3.6994 -12.73984 L 3.36186 -12.76849 L 3.09069 -12.80623 L 2.89947 -12.85118 L 2.7978 -12.90108 L 2.79077 -12.95343 L 2.80498 -12.96742 L 2.82588 -12.98135 L 2.85338 -12.99517 L 2.8874 -13.00883 L 2.92782 -13.02227 L 2.97448 -13.03546 L 3.02723 -13.04835 L 3.08587 -13.06089 L 3.15021 -13.07303 L 3.22 -13.08473 L 3.295 -13.09595 L 3.37494 -13.10666 L 3.45954 -13.1168 L 3.5485 -13.12636 Z" />
    <path d="M -6.8073 -13.94485 L -6.60211 -13.96961 L -6.37486 -13.9895 L -6.13135 -14.00401 L -5.87778 -14.01278 L -5.62063 -14.01558 L -5.36645 -14.01234 L -5.12173 -14.00314 L -4.8927 -13.98821 L -4.68522 -13.96794 L -4.50457 -13.94285 L -4.35536 -13.91357 L -4.2414 -13.88085 L -4.16559 -13.84553 L -4.12987 -13.8085 L -4.14889 -13.75546 L -4.24755 -13.7036 L -4.42092 -13.6555 L -4.66028 -13.61358 L -4.95365 -13.57994 L -5.28631 -13.55627 L -5.64158 -13.54376 L -6.00165 -13.54303 L -6.34845 -13.55411 L -6.6646 -13.57646 L -6.93425 -13.60896 L -7.14388 -13.64996 L -7.28297 -13.69743 L -7.34455 -13.74897 L -7.34737 -13.76418 L -7.34349 -13.77945 L -7.33292 -13.79472 L -7.31572 -13.80993 L -7.29194 -13.825 L -7.2617 -13.83988 L -7.22511 -13.85451 L -7.18233 -13.86882 L -7.13354 -13.88275 L -7.07894 -13.89626 L -7.01875 -13.90927 L -6.95323 -13.92174 L -6.88265 -13.93362 L -6.8073 -13.94485 Z" />
    <path d="M 19.74874 7.7934 A 5 0.77618 180 0 0 29.74874 7.7934" />
    <path d="M -29.74874 0.10961 A 5 0.77618 180 0 0 -19.96122 0.33348" />
    <path d="M 26.5165 13.99509 A 2.5 0.38809 180 0 0 27.24874 13.72067 L 27.24874 8.4656" />
    <path d="M 22.24874 13.72067 A 2.5 0.38809 180 0 0 26.5165 13.99509" />
    <path d="M -22.98097 6.3113 A 2.5 0.38809 180 0 0 -22.24874 6.03688 L -22.24874 0.78181" />
    <path d="M -27.24874 6.03688 A 2.5 0.38809 180 0 0 -22.98097 6.3113" />
    <path d="M -45 -9.87877 L -45 -5.92726" />
    <path d="M 45 -9.87877 L 45 -5.92726" />
    <path d="M 19.74874 0.3497 L 19.74874 7.7934" />
    <path d="M 29.74874 -0.68586 L 29.74874 7.7934" />
    <path d="M -29.74874 -0.68586 L -29.74874 0.10961" />
    <path d="M 22.24874 13.72067 L 22.24874 8.4656" />
    <path d="M -27.24874 6.03688 L -27.24874 0.78181" />
</svg>