<svg version="1.1" xmlns="http://www.w3.org/2000/svg" viewBox="-46.000001000000005 -17.819830831247746 92.00000200000001 33.114349369167094" fill="none" stroke="black" stroke-width="0.6%" vector-effect="non-scaling-stroke">
    <path d="M -31.81981 -14.74685 A 45 7.07759 360 0 1 45 -9.74224 A 45 7.07759 360 0 1 -45 -9.74224 A 45 7.07759 360 0 1 -31.81981 -14.74685 Z" />
    <path d="M -45 -5.79202 A 45 7.07759 180 0 0 45 -5.79202" />
    <path d="M -10.96016 -8.35207 L -10.72737 -8.38503 L -10.47649 -8.41363 L -10.21299 -8.43723 L -9.94263 -8.45533 L -9.67134 -8.46752 L -9.40503 -8.47354 L -9.14953 -8.47325 L -8.91043 -8.46667 L -8.69296 -8.45393 L -8.50186 -8.43532 L -8.34132 -8.41125 L -8.21485 -8.38223 L -8.12521 -8.34891 L -8.07436 -8.312 L -8.0637 -8.29181 L -8.06374 -8.271 L -8.07449 -8.24969 L -8.09589 -8.22801 L -8.12782 -8.20607 L -8.17008 -8.18401 L -8.22243 -8.16196 L -8.28456 -8.14005 L -8.35612 -8.1184 L -8.43668 -8.09714 L -8.52577 -8.07639 L -8.62288 -8.05628 L -8.72744 -8.03692 L -8.83883 -8.01843 L -9.07162 -7.98546 L -9.3225 -7.95687 L -9.586 -7.93326 L -9.85636 -7.91517 L -10.12765 -7.90298 L -10.39396 -7.89696 L -10.64946 -7.89725 L -10.88856 -7.90383 L -11.10603 -7.91656 L -11.29713 -7.93517 L -11.45767 -7.95925 L -11.58414 -7.98827 L -11.67378 -8.02159 L -11.72463 -8.0585 L -11.73529 -8.07868 L -11.73525 -8.09949 L -11.7245 -8.1208 L -11.7031 -8.14249 L -11.67117 -8.16443 L -11.62891 -8.18648 L -11.57656 -8.20853 L -11.51443 -8.23045 L -11.44287 -8.2521 L -11.36231 -8.27336 L -11.27322 -8.29411 L -11.17611 -8.31422 L -11.07155 -8.33358 L -10.96016 -8.35207 Z" />
    <path d="M -0.17052 -9.76906 L 0.02327 -9.79476 L 0.24194 -9.81494 L 0.47923 -9.82902 L 0.72839 -9.83662 L 0.98228 -9.8375 L 1.23367 -9.83164 L 1.47538 -9.81922 L 1.70049 -9.80058 L 1.90259 -9.77625 L 2.07591 -9.74694 L 2.21549 -9.71348 L 2.31735 -9.67682 L 2.37858 -9.63802 L 2.39744 -9.59817 L 2.39429 -9.58513 L 2.38658 -9.57214 L 2.37431 -9.55924 L 2.35754 -9.54646 L 2.3363 -9.53386 L 2.31067 -9.52146 L 2.28072 -9.50931 L 2.24655 -9.49743 L 2.20825 -9.48588 L 2.16595 -9.47468 L 2.11977 -9.46386 L 2.06985 -9.45347 L 2.01636 -9.44352 L 1.95944 -9.43406 L 1.76565 -9.40836 L 1.54698 -9.38818 L 1.30968 -9.37409 L 1.06053 -9.3665 L 0.80663 -9.36562 L 0.55525 -9.37148 L 0.31354 -9.3839 L 0.08843 -9.40254 L -0.11367 -9.42686 L -0.28699 -9.45618 L -0.42657 -9.48964 L -0.52843 -9.5263 L -0.58966 -9.5651 L -0.60852 -9.60495 L -0.60538 -9.61799 L -0.59766 -9.63098 L -0.5854 -9.64388 L -0.56862 -9.65666 L -0.54738 -9.66926 L -0.52175 -9.68166 L -0.4918 -9.69381 L -0.45763 -9.70568 L -0.41933 -9.71724 L -0.37703 -9.72844 L -0.33085 -9.73926 L -0.28094 -9.74965 L -0.22744 -9.7596 L -0.17052 -9.76906 Z" />
    <path d="M 19.74874 7.97599 A 5 0.7864 180 0 0 29.74874 7.97599" />
    <path d="M -29.74874 0.19104 A 5 0.7864 180 0 0 -20.2358 0.52959" />
    <path d="M 26.5165 14.17935 A 2.5 0.3932 180 0 0 27.24874 13.90132 L 27.24874 8.65704" />
    <path d="M 22.24874 13.90132 A 2.5 0.3932 180 0 0 26.5165 14.17935" />
    <path d="M -22.98097 6.3944 A 2.5 0.3932 180 0 0 -22.24874 6.11637 L -22.24874 0.87208" />
    <path d="M -27.24874 6.11637 A 2.5 0.3932 180 0 0 -22.98097 6.3944" />
    <path d="M -45 -9.74224 L -45 -5.79202" />
    <path d="M 45 -9.74224 L 45 -5.79202" />
    <path d="M 19.74874 0.56758 L 19.74874 7.97599" />
    <path d="M 29.74874 -0.48162 L 29.74874 7.97599" />
    <path d="M -29.74874 -0.48162 L -29.74874 0.19104" />
    <path d="M 22.24874 13.90132 L 22.24874 8.65704" />
    <path d="M -27.24874 6.11637 L -27.24874 0.87208" />
</svg>