<svg version="1.1" xmlns="http://www.w3.org/2000/svg" viewBox="-46.000001000000005 -19.017839719411374 92.00000200000001 37.548412482624315" fill="none" stroke="black" stroke-width="0.6%" vector-effect="non-scaling-stroke">
    <path d="M -31.81981 -15.47056 A 45 8.69695 360 0 1 -29.74874 -15.84632" />
    <path d="M -19.76871 -17.13369 A 45 8.69695 360 0 1 45 -9.32089 A 45 8.69695 360 0 1 -45 -9.32089 A 45 8.69695 360 0 1 -31.81981 -15.47056" />
    <path d="M -45 -5.39631 A 45 8.69695 180 0 0 45 -5.39631" />
    <path d="M 29.74874 -4.53781 A 5 0.96633 360 0 1 19.74874 -4.53781" />
    <path d="M -6.71751 -10.61916 A 9.5 1.83602 360 0 1 9.39576 -9.59214 A 9.5 1.83602 360 1 1 -9.39576 -9.59214 A 9.5 1.83602 360 0 1 -6.71751 -10.61916 Z" />
    <path d="M -19.74874 -14.10397 A 5 0.96633 360 0 1 -29.74874 -14.10397" />
    <path d="M 21.2132 -8.16455 A 5 0.96633 360 0 1 29.74874 -7.48125 L 29.74874 -4.53781" />
    <path d="M 29.74874 -7.48125 A 5 0.96633 360 0 1 19.74874 -7.48125 L 19.74874 -4.53781" />
    <path d="M 19.74874 -7.48125 A 5 0.96633 360 0 1 21.2132 -8.16455" />
    <path d="M -28.28427 -17.7307 A 5 0.96633 360 0 1 -19.74874 -17.04741 L -19.74874 -14.10397" />
    <path d="M -19.74874 -17.04741 A 5 0.96633 360 0 1 -29.74874 -17.04741 L -29.74874 -14.10397" />
    <path d="M -29.74874 -17.04741 A 5 0.96633 360 0 1 -28.28427 -17.7307" />
    <path d="M 19.74874 9.19824 A 5 0.96633 180 0 0 29.74874 9.19824" />
    <path d="M -5.3033 -10.34584 A 7.5 1.44949 360 0 1 7.46354 -9.46365 L 8.03782 -8.34221" />
    <path d="M 7.46354 -9.46365 A 7.5 1.44949 360 1 1 -7.46354 -9.46365 L -8.03782 -8.34221" />
    <path d="M -7.46354 -9.46365 A 7.5 1.44949 360 0 1 -5.3033 -10.34584" />
    <path d="M 26.5165 17.38906 A 2.5 0.48316 180 0 0 27.24874 17.04741 L 27.24874 10.0351" />
    <path d="M 22.24874 17.04741 A 2.5 0.48316 180 0 0 26.5165 17.38906" />
    <path d="M -22.98097 7.8229 A 2.5 0.48316 180 0 0 -22.24874 7.48125 L -22.24874 2.1633" />
    <path d="M -27.24874 7.48125 A 2.5 0.48316 180 0 0 -22.98097 7.8229" />
    <path d="M -45 -9.32089 L -45 -5.39631" />
    <path d="M 45 -9.32089 L 45 -5.39631" />
    <path d="M 19.74874 2.41838 L 19.74874 9.19824" />
    <path d="M 29.74874 1.12912 L 29.74874 9.19824" />
    <path d="M 22.24874 17.04741 L 22.24874 10.0351" />
    <path d="M -27.24874 7.48125 L -27.24874 1.52494" />
</svg>