<svg version="1.1" xmlns="http://www.w3.org/2000/svg" viewBox="-45.98679040761738 -17.94197019477785 92.00863523777842 33.126565924418664" fill="none" stroke="black" stroke-width="0.6%" vector-effect="non-scaling-stroke">
    <path d="M -5.28654 -10.7121 A 7.5 1.19042 360 0 1 7.49322 -9.96614 A 7.5 1.19042 360 1 1 -7.45824 -9.96614 A 7.5 1.19042 360 0 1 -5.28654 -10.7121 Z" />
    <path d="M -6.70094 -10.93653 A 9.5 1.50787 360 0 1 9.44818 -10.05226 A 9.5 1.50787 360 1 1 -9.41321 -10.05226 A 9.5 1.50787 360 0 1 -6.70094 -10.93653 Z" />
    <path d="M 19.76961 7.87972 A 5 0.79361 180 0 0 29.76961 7.87972" />
    <path d="M -29.73463 0.02441 A 5 0.79361 180 0 0 -20.09983 0.32215" />
    <path d="M 22.36961 13.80366 A 2.4 0.38093 180 0 0 27.16961 13.80366 L 27.16961 8.57593" />
    <path d="M -27.13463 5.94835 A 2.4 0.38093 180 0 0 -22.33463 5.94835 L -22.33463 0.72063" />
    <path d="M -31.17018 -14.8193 A 44.1 6.99968 360 1 1 -38.6839 -13.22628 A 44.1 6.99968 360 0 1 -31.17018 -14.8193 Z" />
    <path d="M -44.98251 -6.80975 A 45 7.14253 180 0 0 45.01749 -6.80975" />
    <path d="M 45.01749 -8.98187 A 45 7.14253 360 0 1 -44.98251 -8.98187 L -44.98251 -6.80975 C -44.98 -6.79 -44.98 -6.78 -44.98213 -6.75885 C -44.98 -6.74 -44.98 -6.72 -44.98035 -6.708 C -44.98 -6.69 -44.98 -6.67 -44.97719 -6.65723 C -44.98 -6.64 -44.97 -6.62 -44.9727 -6.6066 C -44.97 -6.59 -44.97 -6.57 -44.96689 -6.55615 C -44.96 -6.54 -44.96 -6.52 -44.9598 -6.50591 C -44.96 -6.49 -44.95 -6.47 -44.95147 -6.45591 C -44.95 -6.44 -44.95 -6.42 -44.94191 -6.40619 C -44.94 -6.39 -44.93 -6.37 -44.93117 -6.35677 C -44.93 -6.34 -44.92 -6.32 -44.91926 -6.30769 C -44.92 -6.29 -44.91 -6.28 -44.90621 -6.25896 C -44.9 -6.24 -44.9 -6.23 -44.89206 -6.2106 C -44.89 -6.19 -44.88 -6.18 -44.87682 -6.16265 C -44.87 -6.15 -44.87 -6.13 -44.86052 -6.1151 C -44.85 -6.1 -44.85 -6.08 -44.8432 -6.06798 C -44.84 -6.05 -44.83 -6.04 -44.82486 -6.0213 C -44.82 -6.01 -44.81 -5.99 -44.80553 -5.97506 C -44.8 -5.96 -44.79 -5.94 -44.78525 -5.92929 C -44.78 -5.91 -44.77 -5.9 -44.76402 -5.88397 C -44.76 -5.87 -44.75 -5.85 -44.74188 -5.83913 C -44.73 -5.82 -44.73 -5.81 -44.71883 -5.79475 C -44.71 -5.78 -44.7 -5.77 -44.69491 -5.75085 C -44.69 -5.74 -44.68 -5.72 -44.67013 -5.70743 C -44.66 -5.69 -44.65 -5.68 -44.64451 -5.66447 C -44.61 -5.61 -44.57 -5.55 -44.53397 -5.49729 C -44.5 -5.44 -44.45 -5.39 -44.41131 -5.33725 C -44.07 -4.92 -43.62 -4.57 -43.05646 -4.23442 C -42.31 -3.79 -41.37 -3.39 -40.23754 -2.99848 C -36.27 -1.64 -29.74 -0.53 -21.71675 0.18442 C 22.21 3.33 55.81 -4.79 45.01749 -6.80975" />
    <path d="M -7.45824 -9.96614 L -7.92694 -9.04363" />
    <path d="M 7.49322 -9.96614 L 7.96192 -9.04363" />
    <path d="M 19.76961 0.35139 L 19.76961 7.87972" />
    <path d="M 29.76961 -0.73369 L 29.76961 7.87972" />
    <path d="M -29.73463 -0.73368 L -29.73463 0.02441" />
    <path d="M -31.3113 -14.81958 C -31.03 -14.86 -30.74 -14.91 -30.44726 -14.95309 C -30.16 -15 -29.86 -15.04 -29.56094 -15.0828 C -29.26 -15.13 -28.96 -15.17 -28.653 -15.20861 C -28.35 -15.25 -28.04 -15.29 -27.72415 -15.33043 C -27.41 -15.37 -27.09 -15.41 -26.77507 -15.44818 C -26.46 -15.49 -26.13 -15.52 -25.80647 -15.56177 C -25.48 -15.6 -25.15 -15.64 -24.81908 -15.67112 C -24.49 -15.71 -24.15 -15.74 -23.81361 -15.77614 C -23.48 -15.81 -23.13 -15.84 -22.7908 -15.87677 C -22.45 -15.91 -22.1 -15.94 -21.75139 -15.97294 C -21.4 -16 -21.05 -16.03 -20.69614 -16.06457 C -20.34 -16.09 -19.99 -16.12 -19.6258 -16.15161 C -19.27 -16.18 -18.9 -16.21 -18.54114 -16.23399 C -18.18 -16.26 -17.81 -16.29 -17.44295 -16.31165 C -17.07 -16.34 -16.7 -16.36 -16.33201 -16.38454 C -15.96 -16.41 -15.59 -16.43 -15.20912 -16.45261 C -14.83 -16.47 -14.45 -16.5 -14.07509 -16.51581 C -13.7 -16.54 -13.31 -16.56 -12.93072 -16.57409 C -12.55 -16.59 -12.16 -16.61 -11.77686 -16.62743 C -11.39 -16.64 -11 -16.66 -10.61432 -16.67576 C -10.23 -16.69 -9.84 -16.71 -9.44395 -16.71907 C -9.05 -16.73 -8.66 -16.75 -8.26661 -16.75733 C -7.87 -16.77 -7.48 -16.78 -7.08316 -16.79049 C -6.69 -16.8 -6.29 -16.81 -5.89446 -16.81855 C -5.5 -16.83 -5.1 -16.83 -4.70139 -16.84148 C -4.3 -16.85 -3.9 -16.85 -3.50484 -16.85925 C -2.71 -16.87 -1.91 -16.88 -1.1049 -16.87931 C 0.5 -16.89 2.1 -16.88 3.69664 -16.85722 C 14.79 -16.72 25.45 -15.88 32.91618 -14.55724 C 46.6 -11.51 44.04 -10.69 45.01749 -8.98187 L 45.01749 -6.80975" />
    <path d="M -44.98251 -8.98187 C -44.98 -9.01 -44.98 -9.04 -44.98085 -9.0652 C -44.98 -9.09 -44.98 -9.12 -44.97566 -9.14837 C -44.97 -9.18 -44.97 -9.2 -44.96704 -9.23119 C -44.96 -9.26 -44.96 -9.29 -44.95506 -9.31349 C -44.95 -9.34 -44.95 -9.37 -44.9398 -9.39511 C -44.93 -9.42 -44.93 -9.45 -44.92136 -9.47592 C -44.91 -9.5 -44.91 -9.53 -44.89982 -9.55579 C -44.89 -9.58 -44.88 -9.61 -44.87529 -9.63463 C -44.87 -9.66 -44.86 -9.69 -44.84786 -9.71235 C -44.84 -9.74 -44.83 -9.76 -44.81764 -9.78888 C -44.81 -9.81 -44.8 -9.84 -44.78474 -9.86416 C -44.77 -9.89 -44.76 -9.91 -44.74927 -9.93817 C -44.74 -9.96 -44.72 -9.99 -44.71134 -10.01089 C -44.7 -10.03 -44.68 -10.06 -44.67107 -10.08231 C -44.66 -10.11 -44.64 -10.13 -44.6286 -10.15246 C -44.61 -10.18 -44.6 -10.2 -44.58404 -10.22137 C -44.56 -10.25 -44.54 -10.29 -44.5161 -10.31845 C -44.49 -10.35 -44.47 -10.38 -44.44415 -10.41305 C -44.42 -10.44 -44.39 -10.47 -44.36828 -10.50534 C -44.34 -10.54 -44.32 -10.57 -44.28862 -10.59549 C -44.26 -10.63 -44.23 -10.65 -44.20525 -10.68363 C -44.18 -10.71 -44.15 -10.74 -44.11825 -10.76993 C -44.09 -10.8 -44.06 -10.83 -44.02768 -10.8545 C -44 -10.88 -43.97 -10.91 -43.93361 -10.93749 C -43.9 -10.96 -43.87 -10.99 -43.83606 -11.01901 C -43.8 -11.05 -43.77 -11.07 -43.73507 -11.09917 C -43.7 -11.13 -43.67 -11.15 -43.63064 -11.17809 C -43.6 -11.2 -43.56 -11.23 -43.52277 -11.25586 C -43.38 -11.36 -43.22 -11.46 -43.05646 -11.55721 C -40.87 -12.86 -36.85 -13.94 -31.3113 -14.81958" />
    <path d="M 22.36961 13.80366 L 22.36961 8.57593" />
    <path d="M -27.13463 5.94835 L -27.13463 0.72063" />
</svg>