<svg version="1.1" xmlns="http://www.w3.org/2000/svg" viewBox="-46.00000100000001 -17.497389848118626 92.00000200000002 34.12937751304114" fill="none" stroke="black" stroke-width="0.6%" vector-effect="non-scaling-stroke">
    <path d="M -31.81981 -14.23027 A 45 7.74043 360 0 1 45 -8.75696 A 45 7.74043 360 0 1 -45 -8.75696 A 45 7.74043 360 0 1 -31.81981 -14.23027 Z" />
    <path d="M -45 -4.81658 A 45 7.74043 180 0 0 45 -4.81658" />
    <path d="M -8.11851 -3.91272 L -7.92651 -3.91402 L -7.73316 -3.90938 L -7.54164 -3.89889 L -7.35505 -3.88271 L -7.17647 -3.8611 L -7.00879 -3.83443 L -6.85477 -3.80312 L -6.71692 -3.76769 L -6.5975 -3.72872 L -6.49845 -3.68684 L -6.42139 -3.64274 L -6.36759 -3.59714 L -6.33792 -3.55078 L -6.33286 -3.50443 L -6.38349 -3.4254 L -6.50736 -3.35267 L -6.69827 -3.28987 L -6.94664 -3.24017 L -7.24003 -3.20604 L -7.56371 -3.18921 L -7.90146 -3.19052 L -8.23635 -3.20989 L -8.55157 -3.24637 L -8.83133 -3.29811 L -9.06159 -3.36253 L -9.23081 -3.43639 L -9.3305 -3.516 L -9.35567 -3.59736 L -9.34313 -3.63185 L -9.31665 -3.6656 L -9.27648 -3.69828 L -9.22299 -3.72958 L -9.15668 -3.75923 L -9.07816 -3.78694 L -8.98817 -3.81245 L -8.88753 -3.83553 L -8.7772 -3.85596 L -8.65819 -3.87356 L -8.53161 -3.88815 L -8.39864 -3.89961 L -8.26051 -3.90782 L -8.11851 -3.91272 Z" />
    <path d="M -15.37678 -5.50807 L -15.35481 -5.50276 L -15.33394 -5.49732 L -15.31418 -5.49174 L -15.29556 -5.48604 L -15.27807 -5.48021 L -15.26174 -5.47426 L -15.24656 -5.4682 L -15.23256 -5.46202 L -15.21974 -5.45573 L -15.2081 -5.44934 L -15.19766 -5.44285 L -15.18843 -5.43626 L -15.1804 -5.42958 L -15.17359 -5.42281 L -15.16678 -5.35948 L -15.25604 -5.29273 L -15.43689 -5.2259 L -15.70028 -5.16235 L -16.03298 -5.10525 L -16.41833 -5.05748 L -16.83698 -5.02143 L -17.26796 -4.99891 L -17.68965 -4.99104 L -18.0809 -4.99822 L -18.4221 -5.02009 L -18.69613 -5.05556 L -18.88926 -5.10284 L -18.99181 -5.15957 L -19.00269 -5.21553 L -18.93767 -5.27449 L -18.79934 -5.33411 L -18.59315 -5.39203 L -18.32726 -5.44596 L -18.01218 -5.49378 L -17.66035 -5.53359 L -17.28569 -5.56381 L -16.90301 -5.58326 L -16.52743 -5.59117 L -16.1738 -5.58722 L -15.8561 -5.57157 L -15.58688 -5.54483 L -15.37678 -5.50807 Z" />
    <path d="M -8.29059 -5.24494 L -8.19774 -5.23754 L -8.10904 -5.2286 L -8.0249 -5.21816 L -7.9457 -5.20628 L -7.87182 -5.19301 L -7.8036 -5.1784 L -7.74135 -5.16253 L -7.68536 -5.14548 L -7.63591 -5.12731 L -7.59321 -5.10812 L -7.55746 -5.088 L -7.52883 -5.06703 L -7.50746 -5.04532 L -7.49343 -5.02296 L -7.49976 -4.94617 L -7.58578 -4.86741 L -7.74718 -4.79062 L -7.97586 -4.71967 L -8.26036 -4.65811 L -8.58641 -4.60902 L -8.93766 -4.57486 L -9.2965 -4.55736 L -9.64494 -4.55738 L -9.9655 -4.57493 L -10.2421 -4.60913 L -10.46089 -4.65825 L -10.61088 -4.71984 L -10.68456 -4.79082 L -10.68868 -4.84388 L -10.65385 -4.89848 L -10.58091 -4.95328 L -10.47164 -5.00696 L -10.32871 -5.0582 L -10.15559 -5.10575 L -9.9565 -5.14846 L -9.73629 -5.18529 L -9.50032 -5.21534 L -9.25433 -5.23788 L -9.00431 -5.25236 L -8.75636 -5.25843 L -8.5165 -5.25594 L -8.29059 -5.24494 Z" />
    <path d="M 20.83583 -3.88242 L 20.85728 -3.88435 L 20.87899 -3.88619 L 20.90095 -3.88794 L 20.92315 -3.88962 L 20.94559 -3.8912 L 20.96826 -3.8927 L 20.99116 -3.89412 L 21.01428 -3.89544 L 21.03761 -3.89669 L 21.06115 -3.89784 L 21.0849 -3.8989 L 21.10884 -3.89988 L 21.13297 -3.90077 L 21.15728 -3.90157 A 5 0.86005 180 0 0 23.15454 -3.68478 L 23.2077 -3.66711 L 23.25678 -3.64911 L 23.30165 -3.63086 L 23.34216 -3.61239 L 23.3782 -3.59378 L 23.40965 -3.57506 L 23.43644 -3.55631 L 23.45847 -3.53756 L 23.47568 -3.51889 L 23.48802 -3.50034 L 23.49545 -3.48197 L 23.49795 -3.46384 L 23.49552 -3.446 L 23.48816 -3.42849 L 23.40675 -3.36119 L 23.24671 -3.3039 L 23.01607 -3.25949 L 22.72639 -3.2302 L 22.39221 -3.21749 L 22.03027 -3.222 L 21.65873 -3.2435 L 21.29622 -3.28092 L 20.96091 -3.33238 L 20.66962 -3.39529 L 20.43696 -3.46651 L 20.27459 -3.54246 L 20.19065 -3.61934 L 20.18936 -3.69328 L 20.20259 -3.71148 L 20.22133 -3.72917 L 20.24553 -3.74629 L 20.2751 -3.76279 L 20.30994 -3.77861 L 20.34993 -3.79369 L 20.39494 -3.80799 L 20.44482 -3.82145 L 20.4994 -3.83404 L 20.5585 -3.8457 L 20.62191 -3.85641 L 20.68942 -3.86612 L 20.76081 -3.8748 L 20.83583 -3.88242 Z" />
    <path d="M 20.03099 -4.21507 L 19.87494 -4.1669 L 19.63993 -4.12832 L 19.33669 -4.10107 L 18.97904 -4.08639 L 18.58328 -4.08496 L 18.16745 -4.09684 L 17.75051 -4.12148 L 17.35146 -4.15778 L 16.98849 -4.20406 L 16.67815 -4.25822 L 16.43459 -4.3178 L 16.26891 -4.38007 L 16.18865 -4.44221 L 16.19749 -4.50136 L 16.20323 -4.50695 L 16.20983 -4.51247 L 16.2173 -4.51794 L 16.22563 -4.52334 L 16.23482 -4.52868 L 16.24487 -4.53395 L 16.25576 -4.53915 L 16.2675 -4.54428 L 16.28008 -4.54933 L 16.29349 -4.55431 L 16.30773 -4.5592 L 16.3228 -4.56402 L 16.33868 -4.56875 L 16.35536 -4.57339 L 16.49684 -4.6038 L 16.67563 -4.62908 L 16.88767 -4.64864 L 17.12816 -4.66204 L 17.39166 -4.66898 L 17.67218 -4.6693 L 17.96337 -4.663 L 18.25863 -4.65021 L 18.55128 -4.63123 L 18.83467 -4.60649 L 19.10238 -4.57655 L 19.34836 -4.54208 L 19.56702 -4.50387 L 19.75341 -4.46279 A 5 0.86005 180 0 0 19.8489 -4.32866 A 5 0.86005 180 0 0 20.03099 -4.21507 Z" />
    <path d="M 0.22834 -5.74075 L 0.24769 -5.73575 L 0.26609 -5.73064 L 0.28351 -5.72543 L 0.29997 -5.72011 L 0.31544 -5.71469 L 0.32991 -5.70917 L 0.34339 -5.70356 L 0.35585 -5.69786 L 0.3673 -5.69206 L 0.37773 -5.68618 L 0.38714 -5.68022 L 0.39551 -5.67418 L 0.40285 -5.66806 L 0.40914 -5.66187 L 0.41605 -5.59912 L 0.32599 -5.53309 L 0.14348 -5.46707 L -0.12234 -5.40439 L -0.45812 -5.34818 L -0.84703 -5.30127 L -1.26958 -5.266 L -1.70456 -5.24415 L -2.13018 -5.23681 L -2.52509 -5.24435 L -2.86948 -5.26639 L -3.14609 -5.30183 L -3.34105 -5.34888 L -3.44457 -5.40519 L -3.4553 -5.46122 L -3.38792 -5.52017 L -3.24513 -5.57966 L -3.03271 -5.63728 L -2.7592 -5.69072 L -2.43565 -5.73783 L -2.07509 -5.7767 L -1.69205 -5.80577 L -1.30199 -5.82386 L -0.92063 -5.83024 L -0.56333 -5.82467 L -0.24452 -5.80735 L 0.02297 -5.779 L 0.22834 -5.74075 Z" />
    <path d="M -1.0353 -6.72149 L -0.88474 -6.71734 L -0.73765 -6.70948 L -0.59553 -6.698 L -0.45984 -6.68302 L -0.332 -6.66469 L -0.2133 -6.64319 L -0.10499 -6.61876 L -0.00816 -6.59164 L 0.07617 -6.56211 L 0.14714 -6.53048 L 0.20402 -6.49707 L 0.24622 -6.46222 L 0.27331 -6.4263 L 0.285 -6.38968 L 0.25591 -6.30816 L 0.1528 -6.22913 L -0.01915 -6.15656 L -0.25133 -6.09409 L -0.53209 -6.04486 L -0.84736 -6.01133 L -1.18132 -5.99518 L -1.51723 -5.99722 L -1.83824 -6.01736 L -2.12827 -6.05457 L -2.37275 -6.107 L -2.55944 -6.17202 L -2.67898 -6.24636 L -2.72537 -6.3263 L -2.71879 -6.37099 L -2.68962 -6.41549 L -2.63831 -6.45912 L -2.56563 -6.50123 L -2.47268 -6.54118 L -2.36085 -6.57836 L -2.23183 -6.61223 L -2.08757 -6.64227 L -1.93023 -6.66802 L -1.76219 -6.6891 L -1.58599 -6.70519 L -1.40427 -6.71605 L -1.21978 -6.72151 L -1.0353 -6.72149 Z" />
    <path d="M 8.39949 -7.31217 L 8.62607 -7.34191 L 8.89822 -7.36135 L 9.2062 -7.3698 L 9.53898 -7.36696 L 9.88467 -7.35292 L 10.23088 -7.3282 L 10.56524 -7.29366 L 10.87578 -7.25056 L 11.15138 -7.20042 L 11.38218 -7.14506 L 11.55993 -7.08644 L 11.67826 -7.02666 L 11.73294 -6.96787 L 11.72201 -6.91217 L 11.72066 -6.91056 L 11.71925 -6.90895 L 11.71779 -6.90736 L 11.71626 -6.90576 L 11.71467 -6.90417 L 11.71303 -6.90259 L 11.71133 -6.90101 L 11.70956 -6.89944 L 11.70774 -6.89787 L 11.70586 -6.8963 L 11.70393 -6.89474 L 11.70193 -6.89319 L 11.69987 -6.89164 L 11.69776 -6.8901 L 11.7514 -6.88848 L 11.80469 -6.88669 L 11.85761 -6.88473 L 11.91012 -6.8826 L 11.96218 -6.88032 L 12.01375 -6.87787 L 12.0648 -6.87526 L 12.11531 -6.87249 L 12.16522 -6.86956 L 12.21452 -6.86647 L 12.26316 -6.86324 L 12.31111 -6.85985 L 12.35835 -6.85631 L 12.40484 -6.85263 L 12.61985 -6.89309 L 12.90288 -6.92553 L 13.2424 -6.94861 L 13.62456 -6.9614 L 14.0338 -6.96338 L 14.45345 -6.95446 L 14.8664 -6.93502 L 15.25583 -6.90583 L 15.60587 -6.8681 L 15.90226 -6.82336 L 16.13292 -6.77343 L 16.28845 -6.72034 L 16.36252 -6.66626 L 16.3521 -6.6134 L 16.32305 -6.59238 L 16.27976 -6.57209 L 16.22254 -6.55267 L 16.15179 -6.53425 L 16.06799 -6.51697 L 15.97174 -6.50094 L 15.86372 -6.48627 L 15.74467 -6.47307 L 15.61543 -6.46143 L 15.47691 -6.45144 L 15.33007 -6.44315 L 15.17595 -6.43664 L 15.01562 -6.43194 L 14.8502 -6.42909 L 14.75856 -6.36045 L 14.61468 -6.29652 L 14.424 -6.23974 L 14.19376 -6.19225 L 13.93268 -6.15586 L 13.65064 -6.13194 L 13.35835 -6.1214 L 13.06689 -6.12464 L 12.78728 -6.14154 L 12.53014 -6.17146 L 12.30521 -6.21325 L 12.12101 -6.26535 L 11.98452 -6.32577 L 11.90092 -6.39222 L 11.62175 -6.38422 L 11.33563 -6.38091 L 11.04784 -6.38236 L 10.76367 -6.38853 L 10.48836 -6.39931 L 10.22698 -6.41451 L 9.98435 -6.43384 L 9.76493 -6.45694 L 9.57278 -6.4834 L 9.41142 -6.51273 L 9.28383 -6.54438 L 9.19236 -6.57777 L 9.1387 -6.61228 L 9.12384 -6.64729 L 9.12416 -6.64926 L 9.12461 -6.65123 L 9.12518 -6.65319 L 9.12588 -6.65516 L 9.1267 -6.65712 L 9.12764 -6.65909 L 9.1287 -6.66105 L 9.12989 -6.66301 L 9.1312 -6.66497 L 9.13264 -6.66693 L 9.1342 -6.66889 L 9.13588 -6.67084 L 9.13768 -6.6728 L 9.13961 -6.67475 L 9.14961 -6.68336 L 9.162 -6.69193 L 9.17676 -6.70043 L 9.19389 -6.70886 L 9.21336 -6.71721 L 9.23515 -6.72548 L 9.25923 -6.73364 L 9.28558 -6.7417 L 9.31417 -6.74963 L 9.34496 -6.75745 L 9.37792 -6.76512 L 9.413 -6.77266 L 9.45018 -6.78004 L 9.48941 -6.78725 L 9.30376 -6.80648 L 9.12468 -6.82844 L 8.95416 -6.8529 L 8.79407 -6.87958 L 8.6462 -6.90818 L 8.51216 -6.9384 L 8.39344 -6.96989 L 8.29136 -7.00232 L 8.20703 -7.03532 L 8.14139 -7.06852 L 8.09517 -7.10157 L 8.06887 -7.13409 L 8.06278 -7.16573 L 8.07698 -7.19614 L 8.08617 -7.20592 L 8.09758 -7.21551 L 8.11119 -7.22491 L 8.12698 -7.23409 L 8.14493 -7.24306 L 8.16503 -7.2518 L 8.18725 -7.26029 L 8.21156 -7.26854 L 8.23793 -7.27652 L 8.26633 -7.28423 L 8.29673 -7.29166 L 8.32908 -7.2988 L 8.36335 -7.30564 L 8.39949 -7.31217 Z" />
    <path d="M 2.01534 -7.03726 L 1.92865 -6.98522 L 1.75417 -6.93754 L 1.49949 -6.89628 L 1.17571 -6.86326 L 0.79693 -6.83989 L 0.37962 -6.82721 L -0.05802 -6.82576 L -0.49696 -6.83561 L -0.91806 -6.85633 L -1.30301 -6.88701 L -1.63504 -6.92632 L -1.89968 -6.97255 L -2.08542 -7.02369 L -2.18417 -7.0775 L -2.18855 -7.13558 L -2.08757 -7.19113 L -1.88631 -7.24136 L -1.59485 -7.28377 L -1.22781 -7.31622 L -0.8036 -7.33709 L -0.34348 -7.34532 L 0.12947 -7.34052 L 0.59153 -7.32291 L 1.01955 -7.29338 L 1.39204 -7.25341 L 1.69034 -7.20501 L 1.89949 -7.1506 L 2.009 -7.09291 L 2.01268 -7.08891 L 2.01586 -7.08492 L 2.01855 -7.08092 L 2.02075 -7.07693 L 2.02245 -7.07294 L 2.02365 -7.06895 L 2.02435 -7.06497 L 2.02455 -7.06099 L 2.02426 -7.05701 L 2.02347 -7.05304 L 2.02218 -7.04908 L 2.0204 -7.04513 L 2.01812 -7.04119 L 2.01534 -7.03726 Z" />
    <path d="M -0.60258 -8.59188 L -0.40993 -8.5933 L -0.21581 -8.58875 L -0.02341 -8.57829 L 0.16411 -8.5621 L 0.34365 -8.54046 L 0.51226 -8.5137 L 0.66716 -8.48229 L 0.80582 -8.44672 L 0.92594 -8.40759 L 1.02555 -8.36555 L 1.10301 -8.32127 L 1.15704 -8.2755 L 1.18676 -8.22899 L 1.19167 -8.18249 L 1.14462 -8.10703 L 1.0306 -8.03721 L 0.85484 -7.97621 L 0.62537 -7.92681 L 0.35267 -7.89129 L 0.0492 -7.87126 L -0.27116 -7.86763 L -0.59376 -7.88058 L -0.90388 -7.90951 L -1.18732 -7.9531 L -1.43115 -8.00935 L -1.6242 -8.07571 L -1.75767 -8.14912 L -1.82544 -8.22624 L -1.85151 -8.22283 L -1.87774 -8.21949 L -1.90415 -8.2162 L -1.93071 -8.21297 L -1.95742 -8.2098 L -1.98428 -8.20669 L -2.01129 -8.20365 L -2.03842 -8.20067 L -2.06568 -8.19775 L -2.09306 -8.1949 L -2.12055 -8.19211 L -2.14815 -8.18939 L -2.17585 -8.18674 L -2.20364 -8.18415 L -2.1304 -8.17019 L -2.0615 -8.15504 L -1.99722 -8.13876 L -1.93783 -8.12142 L -1.88359 -8.10309 L -1.83471 -8.08385 L -1.79141 -8.06377 L -1.75386 -8.04295 L -1.72222 -8.02147 L -1.69663 -7.99942 L -1.67718 -7.97688 L -1.66396 -7.95397 L -1.65703 -7.93076 L -1.65642 -7.90737 L -1.67266 -7.8627 L -1.71148 -7.81837 L -1.7723 -7.77504 L -1.85419 -7.73338 L -1.95593 -7.694 L -2.07596 -7.65751 L -2.21248 -7.62445 L -2.36343 -7.59533 L -2.52653 -7.57058 L -2.69931 -7.55058 L -2.87917 -7.53563 L -3.06338 -7.52596 L -3.24917 -7.52171 L -3.43373 -7.52295 L -3.58303 -7.52808 L -3.72807 -7.53689 L -3.86735 -7.54927 L -3.99944 -7.5651 L -4.12297 -7.58422 L -4.23669 -7.60643 L -4.33943 -7.6315 L -4.43011 -7.65918 L -4.50783 -7.68918 L -4.57177 -7.72119 L -4.62128 -7.75488 L -4.65584 -7.78991 L -4.67512 -7.82592 L -4.6789 -7.86253 L -4.67201 -7.88903 L -4.65712 -7.91551 L -4.63431 -7.94182 L -4.6037 -7.96783 L -4.56545 -7.9934 L -4.51977 -8.01839 L -4.4669 -8.04267 L -4.40712 -8.06612 L -4.34074 -8.0886 L -4.26813 -8.11 L -4.18966 -8.1302 L -4.10576 -8.14909 L -4.01687 -8.16659 L -3.92346 -8.18258 L -3.9715 -8.18951 L -4.01707 -8.19691 L -4.06008 -8.20478 L -4.10045 -8.21308 L -4.13812 -8.22183 L -4.17302 -8.23098 L -4.20509 -8.24054 L -4.23428 -8.25049 L -4.26052 -8.2608 L -4.28379 -8.27146 L -4.30403 -8.28245 L -4.32121 -8.29375 L -4.3353 -8.30534 L -4.34628 -8.3172 L -4.35698 -8.37281 L -4.30527 -8.43145 L -4.19293 -8.4911 L -4.02386 -8.5497 L -3.80389 -8.60522 L -3.54063 -8.65573 L -3.24318 -8.6995 L -2.92183 -8.73502 L -2.58768 -8.76104 L -2.25228 -8.77668 L -1.92724 -8.7814 L -1.62379 -8.77502 L -1.35241 -8.75777 L -1.1225 -8.73025 L -1.08121 -8.72342 L -1.04207 -8.7162 L -1.00513 -8.70861 L -0.97045 -8.70065 L -0.93807 -8.69235 L -0.90805 -8.68371 L -0.88043 -8.67474 L -0.85524 -8.66546 L -0.83253 -8.65589 L -0.81232 -8.64602 L -0.79466 -8.63589 L -0.77955 -8.6255 L -0.76703 -8.61487 L -0.75712 -8.60402 L -0.75618 -8.6028 L -0.75528 -8.60158 L -0.7544 -8.60036 L -0.75356 -8.59914 L -0.75276 -8.59792 L -0.75198 -8.59669 L -0.75123 -8.59546 L -0.75052 -8.59422 L -0.74984 -8.59299 L -0.7492 -8.59175 L -0.74858 -8.59051 L -0.748 -8.58927 L -0.74745 -8.58803 L -0.74693 -8.58678 L -0.73674 -8.58726 L -0.72653 -8.58772 L -0.71629 -8.58816 L -0.70604 -8.58859 L -0.69577 -8.589 L -0.68549 -8.58939 L -0.67518 -8.58976 L -0.66486 -8.59012 L -0.65452 -8.59046 L -0.64416 -8.59078 L -0.63379 -8.59108 L -0.6234 -8.59137 L -0.613 -8.59163 L -0.60258 -8.59188 Z" />
    <path d="M 8.95413 -7.91711 L 8.98566 -7.91091 L 9.01556 -7.90446 L 9.0438 -7.89777 L 9.07035 -7.89085 L 9.09519 -7.88371 L 9.11829 -7.87635 L 9.13962 -7.86878 L 9.15917 -7.86101 L 9.17691 -7.85304 L 9.19283 -7.84489 L 9.20691 -7.83656 L 9.21914 -7.82806 L 9.2295 -7.81941 L 9.23799 -7.8106 L 9.24418 -7.7452 L 9.15734 -7.67607 L 8.98182 -7.60669 L 8.72642 -7.54051 L 8.40395 -7.48088 L 8.03059 -7.43077 L 7.62504 -7.39269 L 7.20765 -7.36857 L 6.79935 -7.3596 L 6.4206 -7.36623 L 6.09041 -7.38815 L 5.82533 -7.42423 L 5.63866 -7.47269 L 5.53974 -7.53108 L 5.52871 -7.58686 L 5.58637 -7.64574 L 5.71059 -7.70556 L 5.89679 -7.76408 L 6.13809 -7.81917 L 6.42558 -7.86878 L 6.74864 -7.91108 L 7.09535 -7.9445 L 7.45289 -7.96782 L 7.80807 -7.98018 L 8.14777 -7.98111 L 8.45944 -7.97058 L 8.73158 -7.94898 L 8.95413 -7.91711 Z" />
    <path d="M -23.04307 -5.51513 L -23.03233 -5.51146 L -23.02206 -5.50775 L -23.01228 -5.50399 L -23.00298 -5.5002 L -22.99418 -5.49636 L -22.98586 -5.49249 L -22.97804 -5.48858 L -22.97071 -5.48464 L -22.96388 -5.48066 L -22.95755 -5.47664 L -22.95171 -5.4726 L -22.94638 -5.46852 L -22.94156 -5.46441 L -22.93723 -5.46027 L -22.93028 -5.39946 L -23.02346 -5.33604 L -23.2121 -5.27319 L -23.48673 -5.21406 L -23.83359 -5.16162 L -24.23528 -5.1185 L -24.67165 -5.08686 L -25.12084 -5.06828 L -25.56031 -5.0637 L -25.96803 -5.07335 L -26.32355 -5.09675 L -26.60905 -5.13271 L -26.8102 -5.17944 L -26.91693 -5.2346 L -26.92671 -5.29097 L -26.84991 -5.34978 L -26.68985 -5.4085 L -26.45347 -5.46457 L -26.15099 -5.51557 L -25.79552 -5.55928 L -25.40244 -5.59383 L -24.98879 -5.61771 L -24.57246 -5.62988 L -24.17148 -5.62983 L -23.80323 -5.61754 L -23.48363 -5.59356 L -23.22654 -5.55893 L -23.04307 -5.51513 Z" />
    <path d="M -25.43511 -7.20179 L -25.5259 -7.15016 L -25.70346 -7.10308 L -25.96014 -7.06258 L -26.28482 -7.0304 L -26.66349 -7.00795 L -27.07976 -6.99618 L -27.51565 -6.99561 L -27.95232 -7.00626 L -28.37088 -7.02767 L -28.75325 -7.05892 L -29.08289 -7.09866 L -29.34557 -7.14516 L -29.52991 -7.19642 L -29.62797 -7.25023 L -29.63226 -7.30837 L -29.53132 -7.36384 L -29.3302 -7.41387 L -29.03899 -7.45595 L -28.67229 -7.48796 L -28.24849 -7.5083 L -27.78884 -7.51595 L -27.31639 -7.51053 L -26.85482 -7.4923 L -26.4273 -7.46219 L -26.05524 -7.4217 L -25.75732 -7.37286 L -25.54846 -7.31813 L -25.43914 -7.26024 L -25.4353 -7.25603 L -25.43201 -7.25183 L -25.42925 -7.24763 L -25.42705 -7.24343 L -25.42539 -7.23923 L -25.42428 -7.23504 L -25.42372 -7.23086 L -25.4237 -7.22668 L -25.42424 -7.2225 L -25.42532 -7.21834 L -25.42695 -7.21418 L -25.42912 -7.21004 L -25.43185 -7.20591 L -25.43511 -7.20179 Z" />
    <path d="M -15.72296 -6.01518 L -15.71907 -6.0132 L -15.7153 -6.01122 L -15.71167 -6.00923 L -15.70817 -6.00723 L -15.7048 -6.00522 L -15.70157 -6.00321 L -15.69847 -6.00119 L -15.6955 -5.99917 L -15.69266 -5.99713 L -15.68995 -5.99509 L -15.68738 -5.99305 L -15.68494 -5.991 L -15.68264 -5.98894 L -15.68047 -5.98687 L -15.6739 -5.92768 L -15.77032 -5.8669 L -15.96492 -5.80758 L -16.24792 -5.7527 L -16.60514 -5.705 L -17.01866 -5.66689 L -17.46775 -5.64026 L -17.92989 -5.62645 L -18.38191 -5.62617 L -18.80114 -5.63941 L -19.16655 -5.66553 L -19.45983 -5.7032 L -19.66627 -5.75054 L -19.77551 -5.80518 L -19.78325 -5.81403 L -19.78856 -5.82298 L -19.79143 -5.83201 L -19.79186 -5.84112 L -19.78984 -5.8503 L -19.78539 -5.85953 L -19.77849 -5.8688 L -19.76918 -5.87811 L -19.75744 -5.88743 L -19.74331 -5.89677 L -19.72678 -5.9061 L -19.7079 -5.91543 L -19.68667 -5.92473 L -19.66312 -5.934 L -19.87354 -5.92318 L -20.09279 -5.92001 L -20.31617 -5.92455 L -20.53891 -5.9367 L -20.75627 -5.95621 L -20.96359 -5.98266 L -21.15644 -6.01548 L -21.33072 -6.05397 L -21.48269 -6.09732 L -21.60912 -6.14459 L -21.70729 -6.19477 L -21.77512 -6.2468 L -21.81116 -6.29956 L -21.81463 -6.35192 L -21.80104 -6.38266 L -21.77581 -6.41261 L -21.73914 -6.44155 L -21.69132 -6.46926 L -21.63269 -6.49552 L -21.56373 -6.52014 L -21.48496 -6.54292 L -21.39697 -6.56369 L -21.30046 -6.58228 L -21.19616 -6.59856 L -21.08486 -6.61241 L -20.96744 -6.62371 L -20.84478 -6.63237 L -20.71783 -6.63834 L -20.60465 -6.6413 L -20.48963 -6.64216 L -20.37342 -6.64093 L -20.25671 -6.6376 L -20.14017 -6.63219 L -20.02448 -6.62475 L -19.91031 -6.61531 L -19.79834 -6.60392 L -19.6892 -6.59066 L -19.58353 -6.57559 L -19.48196 -6.55881 L -19.38506 -6.54042 L -19.2934 -6.52052 L -19.20752 -6.49923 L -19.00393 -6.54214 L -18.74682 -6.58081 L -18.44448 -6.614 L -18.10666 -6.64064 L -17.74427 -6.65987 L -17.36901 -6.67105 L -16.99296 -6.67385 L -16.62828 -6.66816 L -16.28671 -6.65417 L -15.9793 -6.63232 L -15.71594 -6.60333 L -15.50515 -6.56814 L -15.35372 -6.52786 L -15.26653 -6.48381 L -15.26614 -6.48348 L -15.26575 -6.48315 L -15.26537 -6.48282 L -15.26499 -6.48249 L -15.26461 -6.48216 L -15.26424 -6.48183 L -15.26387 -6.4815 L -15.26351 -6.48117 L -15.26315 -6.48084 L -15.26279 -6.48051 L -15.26243 -6.48017 L -15.26208 -6.47984 L -15.26173 -6.47951 L -15.26139 -6.47918 L -15.24535 -6.45173 L -15.25319 -6.42382 L -15.28481 -6.39576 L -15.33986 -6.36788 L -15.41771 -6.34048 L -15.51748 -6.31388 L -15.63802 -6.28839 L -15.77798 -6.26429 L -15.93575 -6.24185 L -16.10955 -6.22134 L -16.2974 -6.20298 L -16.49716 -6.18698 L -16.70656 -6.17353 L -16.92323 -6.16278 L -16.79875 -6.15887 L -16.67838 -6.15379 L -16.56264 -6.14757 L -16.45206 -6.14024 L -16.34711 -6.13183 L -16.24826 -6.12239 L -16.15594 -6.11194 L -16.07057 -6.10053 L -15.99252 -6.08823 L -15.92214 -6.07507 L -15.85974 -6.06113 L -15.80559 -6.04645 L -15.75993 -6.03111 L -15.72296 -6.01518 Z" />
    <path d="M -17.21978 -7.52479 L -17.42668 -7.49863 L -17.66984 -7.48097 L -17.94217 -7.47232 L -18.23575 -7.47293 L -18.54204 -7.48279 L -18.85213 -7.5016 L -19.15699 -7.52883 L -19.44775 -7.56368 L -19.71595 -7.60513 L -19.9538 -7.65198 L -20.15436 -7.70287 L -20.3118 -7.75631 L -20.42155 -7.81076 L -20.4804 -7.86462 L -20.47769 -7.93187 L -20.38447 -7.99205 L -20.20539 -8.04213 L -19.94946 -8.0796 L -19.62949 -8.10258 L -19.26153 -8.10993 L -18.86403 -8.10127 L -18.45693 -8.07703 L -18.06064 -8.03843 L -17.69504 -7.98742 L -17.37844 -7.92653 L -17.12674 -7.85884 L -16.95254 -7.78773 L -16.86459 -7.71676 L -16.85693 -7.70023 L -16.85448 -7.68395 L -16.85726 -7.66798 L -16.86525 -7.65236 L -16.87843 -7.63714 L -16.89678 -7.62236 L -16.92022 -7.60807 L -16.9487 -7.5943 L -16.98214 -7.58109 L -17.02043 -7.56849 L -17.06347 -7.55652 L -17.11114 -7.54523 L -17.16329 -7.53464 L -17.21978 -7.52479 Z" />
    <path d="M -20.96986 -7.59191 L -20.96667 -7.59018 L -20.96359 -7.58845 L -20.96061 -7.58671 L -20.95772 -7.58497 L -20.95494 -7.58323 L -20.95226 -7.58148 L -20.94967 -7.57972 L -20.94719 -7.57796 L -20.94481 -7.57619 L -20.94252 -7.57442 L -20.94034 -7.57265 L -20.93826 -7.57087 L -20.93628 -7.56908 L -20.9344 -7.56729 L -20.9279 -7.50828 L -21.02474 -7.44784 L -21.22005 -7.389 L -21.50404 -7.33472 L -21.86247 -7.28771 L -22.27738 -7.25033 L -22.72794 -7.22447 L -23.19158 -7.2114 L -23.64504 -7.2118 L -24.06558 -7.22563 L -24.43212 -7.25221 L -24.72627 -7.2902 L -24.93329 -7.3377 L -25.04279 -7.39233 L -25.05066 -7.44946 L -24.96147 -7.50802 L -24.77942 -7.56525 L -24.51307 -7.61846 L -24.17496 -7.66515 L -23.78101 -7.70311 L -23.34976 -7.73055 L -22.90151 -7.7462 L -22.45736 -7.74931 L -22.03822 -7.73973 L -21.66381 -7.71792 L -21.35176 -7.6849 L -21.11675 -7.64222 L -20.96986 -7.59191 Z" />
    <path d="M -24.35294 -8.69477 L -24.42077 -8.66109 L -24.52648 -8.62967 L -24.66807 -8.60111 L -24.84284 -8.57596 L -25.04748 -8.55467 L -25.27809 -8.53768 L -25.5303 -8.52528 L -25.79932 -8.51773 L -26.08004 -8.51516 L -26.36713 -8.51762 L -26.65514 -8.52507 L -26.93859 -8.53736 L -27.2121 -8.55426 L -27.47049 -8.57545 L -27.67163 -8.52952 L -27.9264 -8.48743 L -28.22643 -8.45057 L -28.5619 -8.42014 L -28.92179 -8.39715 L -29.29432 -8.38234 L -29.66726 -8.3762 L -30.02839 -8.37893 L -30.36586 -8.39044 L -30.66862 -8.41036 L -30.92673 -8.43803 L -31.13173 -8.47255 L -31.27691 -8.51278 L -31.35749 -8.5574 L -31.37315 -8.59776 L -31.33968 -8.63928 L -31.25787 -8.68098 L -31.12968 -8.72187 L -30.95814 -8.76097 L -30.74734 -8.79736 L -30.50229 -8.83016 L -30.22882 -8.85861 L -29.93343 -8.88202 L -29.62314 -8.89983 L -29.30534 -8.91163 L -28.98757 -8.91713 L -28.6774 -8.9162 L -28.3822 -8.90887 C -28.36 -8.89 -28.34 -8.87 -28.31498 -8.85781 C -28.29 -8.84 -28.27 -8.82 -28.24727 -8.80692 C -28.22 -8.79 -28.2 -8.77 -28.17903 -8.75613 C -28.16 -8.74 -28.13 -8.72 -28.11023 -8.70541 C -28.09 -8.69 -28.06 -8.67 -28.04082 -8.6547 C -28.02 -8.64 -27.99 -8.62 -27.97076 -8.60395 C -27.95 -8.59 -27.92 -8.57 -27.9 -8.55312 C -27.88 -8.54 -27.85 -8.52 -27.82848 -8.50213" />
    <path d="M -28.3822 -8.90887 L -28.21111 -8.95049 L -27.97473 -8.98592 L -27.68166 -9.01386 L -27.34255 -9.03331 L -26.96973 -9.04356 L -26.57676 -9.04422 L -26.17792 -9.03529 L -25.78771 -9.01708 L -25.42032 -8.99026 L -25.08911 -8.95579 L -24.80612 -8.91494 L -24.58163 -8.86919 L -24.42382 -8.8202 L -24.33841 -8.76976 L -24.33367 -8.7643 L -24.32982 -8.75884 L -24.32686 -8.7534 L -24.32478 -8.74797 L -24.3236 -8.74255 L -24.3233 -8.73714 L -24.3239 -8.73176 L -24.32538 -8.72639 L -24.32776 -8.72105 L -24.33102 -8.71574 L -24.33518 -8.71045 L -24.34021 -8.70519 L -24.34613 -8.69996 L -24.35294 -8.69477" />
    <path d="M -29.24928 -9.70947 L -29.39871 -9.66589 L -29.61702 -9.62932 L -29.89589 -9.60116 L -30.22471 -9.58247 L -30.59095 -9.57396 L -30.98065 -9.57597 L -31.37898 -9.58841 L -31.77077 -9.61081 L -32.14109 -9.64232 L -32.47584 -9.68173 L -32.76227 -9.72756 L -32.98946 -9.77804 L -33.14877 -9.83126 L -33.23413 -9.88519 L -33.23688 -9.94532 L -33.13785 -10.00067 L -32.942 -10.04846 L -32.65916 -10.0863 L -32.30351 -10.11228 L -31.89289 -10.12511 L -31.44788 -10.12413 L -30.99079 -10.10941 L -30.54456 -10.08168 L -30.13155 -10.04232 L -29.77248 -9.99332 L -29.48534 -9.93713 L -29.28455 -9.87656 L -29.18016 -9.81466 L -29.17404 -9.80674 L -29.16963 -9.79886 L -29.16692 -9.79102 L -29.16592 -9.78324 L -29.16663 -9.7755 L -29.16904 -9.76783 L -29.17316 -9.76023 L -29.17898 -9.75271 L -29.1865 -9.74526 L -29.19571 -9.7379 L -29.2066 -9.73064 L -29.21917 -9.72348 L -29.2334 -9.71642 L -29.24928 -9.70947 Z" />
    <path d="M -10.96016 -7.2366 L -10.72876 -7.27246 L -10.47945 -7.3036 L -10.2176 -7.32934 L -9.94887 -7.34914 L -9.67908 -7.36257 L -9.41405 -7.36933 L -9.15951 -7.36927 L -8.92097 -7.36241 L -8.70357 -7.34888 L -8.51203 -7.32898 L -8.35047 -7.30315 L -8.2224 -7.27193 L -8.13057 -7.236 L -8.07698 -7.19614 L -8.06458 -7.17393 L -8.06311 -7.15101 L -8.07261 -7.12751 L -8.09299 -7.10357 L -8.12416 -7.07933 L -8.16591 -7.05495 L -8.218 -7.03056 L -8.28012 -7.00631 L -8.3519 -6.98235 L -8.43291 -6.95881 L -8.52267 -6.93585 L -8.62064 -6.91359 L -8.72624 -6.89217 L -8.83883 -6.87171 L -9.07023 -6.83585 L -9.31954 -6.80471 L -9.58139 -6.77896 L -9.85012 -6.75916 L -10.11991 -6.74574 L -10.38494 -6.73898 L -10.63948 -6.73903 L -10.87802 -6.7459 L -11.09542 -6.75943 L -11.28696 -6.77932 L -11.44852 -6.80516 L -11.57659 -6.83638 L -11.66842 -6.87231 L -11.72201 -6.91217 L -11.73441 -6.93438 L -11.73588 -6.9573 L -11.72638 -6.9808 L -11.706 -7.00474 L -11.67483 -7.02897 L -11.63308 -7.05336 L -11.58099 -7.07775 L -11.51887 -7.102 L -11.44709 -7.12596 L -11.36608 -7.14949 L -11.27632 -7.17246 L -11.17835 -7.19472 L -11.07275 -7.21614 L -10.96016 -7.2366 Z" />
    <path d="M -22.75246 -10.12506 L -22.70251 -10.11784 L -22.65514 -10.1101 L -22.61043 -10.10184 L -22.56848 -10.09309 L -22.52936 -10.08385 L -22.49314 -10.07415 L -22.4599 -10.064 L -22.42969 -10.05343 L -22.40258 -10.04245 L -22.37861 -10.03109 L -22.35784 -10.01936 L -22.34029 -10.00729 L -22.32601 -9.99491 L -22.31501 -9.98222 L -22.30891 -9.97247 L -22.30469 -9.96258 L -22.30237 -9.95256 L -22.30195 -9.94241 L -22.30343 -9.93215 L -22.3068 -9.92179 L -22.31206 -9.91134 L -22.31922 -9.90081 L -22.32825 -9.89021 L -22.33915 -9.87956 L -22.35191 -9.86887 L -22.36651 -9.85814 L -22.38294 -9.84739 L -22.40118 -9.83663 L -22.16081 -9.83812 L -21.91015 -9.83405 L -21.65377 -9.8245 L -21.39637 -9.80965 L -21.14264 -9.78977 L -20.89723 -9.76522 L -20.66462 -9.73645 L -20.44907 -9.70398 L -20.25452 -9.66842 L -20.08452 -9.6304 L -19.94218 -9.59063 L -19.83011 -9.54984 L -19.75035 -9.50876 L -19.70436 -9.46815 L -19.69677 -9.45501 L -19.69295 -9.44202 L -19.69291 -9.42922 L -19.69665 -9.41663 L -19.70416 -9.40428 L -19.71543 -9.39218 L -19.73043 -9.38036 L -19.74914 -9.36885 L -19.77151 -9.35767 L -19.79751 -9.34684 L -19.82708 -9.33638 L -19.86016 -9.32631 L -19.89669 -9.31666 L -19.9366 -9.30743 L -19.96651 -9.30124 L -19.99802 -9.29528 L -20.03108 -9.28955 L -20.06566 -9.28405 L -20.10174 -9.2788 L -20.13927 -9.2738 L -20.17823 -9.26905 L -20.21856 -9.26456 L -20.26024 -9.26034 L -20.30321 -9.25638 L -20.34745 -9.25269 L -20.39291 -9.24927 L -20.43954 -9.24614 L -20.48729 -9.24328 L -20.45146 -9.24259 L -20.41598 -9.24172 L -20.38087 -9.24067 L -20.34615 -9.23944 L -20.31182 -9.23803 L -20.27792 -9.23645 L -20.24446 -9.23469 L -20.21146 -9.23276 L -20.17893 -9.23066 L -20.1469 -9.22838 L -20.11537 -9.22593 L -20.08437 -9.22331 L -20.05391 -9.22052 L -20.02401 -9.21757 L -19.95598 -9.20997 L -19.89132 -9.20148 L -19.83023 -9.19211 L -19.77287 -9.18191 L -19.71943 -9.1709 L -19.67005 -9.1591 L -19.62488 -9.14656 L -19.58405 -9.13331 L -19.54769 -9.11939 L -19.51589 -9.10485 L -19.48875 -9.08971 L -19.46636 -9.07404 L -19.44876 -9.05787 L -19.43603 -9.04125 L -19.43564 -8.96854 L -19.51924 -8.89262 L -19.68264 -8.81727 L -19.91764 -8.74628 L -20.21246 -8.6832 L -20.55231 -8.63121 L -20.92015 -8.59291 L -21.29754 -8.57021 L -21.66555 -8.56426 L -22.00574 -8.57536 L -22.30103 -8.60294 L -22.53663 -8.64563 L -22.70072 -8.70129 L -22.78507 -8.76711 L -22.7958 -8.80594 L -22.78156 -8.84623 L -22.74257 -8.88737 L -22.67941 -8.92876 L -22.593 -8.96979 L -22.48464 -9.00985 L -22.35592 -9.04834 L -22.20875 -9.0847 L -22.04532 -9.11838 L -21.86803 -9.14889 L -21.67953 -9.17577 L -21.4826 -9.19863 L -21.28016 -9.21713 L -21.0752 -9.23099 C -21.08 -9.23 -21.09 -9.22 -21.1041 -9.22142 C -21.11 -9.22 -21.12 -9.21 -21.13275 -9.21082 C -21.14 -9.21 -21.15 -9.2 -21.1611 -9.19917 C -21.17 -9.2 -21.18 -9.19 -21.18912 -9.18645 C -21.2 -9.18 -21.21 -9.18 -21.21676 -9.17266 C -21.23 -9.17 -21.23 -9.16 -21.244 -9.15778 C -21.25 -9.15 -21.26 -9.15 -21.2708 -9.1418 C -21.28 -9.14 -21.29 -9.13 -21.29712 -9.12472 C -21.31 -9.12 -21.32 -9.11 -21.32418 -9.10561 C -21.33 -9.1 -21.34 -9.09 -21.35033 -9.08553 C -21.36 -9.08 -21.37 -9.07 -21.37555 -9.06452 C -21.38 -9.06 -21.39 -9.05 -21.39984 -9.04262 C -21.41 -9.04 -21.42 -9.03 -21.42318 -9.01989 C -21.43 -9.01 -21.44 -9 -21.44556 -8.99637 C -21.45 -8.99 -21.46 -8.98 -21.46698 -8.97213 C -21.47 -8.96 -21.48 -8.96 -21.48744 -8.94721 C -21.49 -8.94 -21.5 -8.93 -21.50694 -8.92169 C -21.51 -8.91 -21.52 -8.9 -21.52547 -8.89563 C -21.53 -8.89 -21.54 -8.88 -21.54304 -8.86908 C -21.55 -8.86 -21.55 -8.85 -21.55967 -8.84213 C -21.57 -8.83 -21.57 -8.82 -21.57535 -8.81484 C -21.58 -8.81 -21.59 -8.8 -21.5901 -8.78729 C -21.59 -8.78 -21.6 -8.77 -21.60393 -8.75957 C -21.61 -8.75 -21.61 -8.74 -21.61686 -8.73175 C -21.62 -8.72 -21.63 -8.7 -21.63449 -8.69033 C -21.64 -8.68 -21.65 -8.66 -21.65045 -8.64857 C -21.66 -8.63 -21.66 -8.62 -21.66482 -8.60656 C -21.67 -8.59 -21.67 -8.58 -21.6777 -8.56436" />
    <path d="M -25.21128 -9.53334 L -25.28083 -9.54014 L -25.34696 -9.54778 L -25.4095 -9.55624 L -25.46825 -9.56549 L -25.52306 -9.5755 L -25.57378 -9.58626 L -25.62026 -9.59773 L -25.66236 -9.60987 L -25.69998 -9.62266 L -25.73301 -9.63606 L -25.76134 -9.65002 L -25.78491 -9.66452 L -25.80365 -9.6795 L -25.81751 -9.69493 L -25.82759 -9.75034 L -25.78017 -9.80863 L -25.67681 -9.8679 L -25.52088 -9.92621 L -25.31747 -9.98166 L -25.07321 -10.03243 L -24.79609 -10.07689 L -24.49514 -10.11356 L -24.18019 -10.14125 L -23.86152 -10.15907 L -23.54954 -10.16642 L -23.25442 -10.16308 L -22.98581 -10.14914 L -22.75246 -10.12506" />
    <path d="M -22.31706 -9.06634 L -22.49272 -9.02838 L -22.72601 -8.99832 L -23.00875 -8.97723 L -23.33102 -8.96583 L -23.68154 -8.96454 L -24.048 -8.97339 L -24.41757 -8.99208 L -24.77728 -9.01995 L -25.11453 -9.05602 L -25.4175 -9.09903 L -25.67555 -9.14748 L -25.87965 -9.19965 L -26.02264 -9.25373 L -26.09951 -9.30782 L -26.11139 -9.33025 L -26.11083 -9.35221 L -26.09784 -9.37354 L -26.0725 -9.39412 L -26.03497 -9.41382 L -25.98548 -9.43252 L -25.92435 -9.45009 L -25.85196 -9.46642 L -25.76877 -9.48141 L -25.67529 -9.49498 L -25.57213 -9.50702 L -25.45993 -9.51747 L -25.33939 -9.52627 L -25.21128 -9.53334" />
    <path d="M -22.43122 -9.31938 L -22.40242 -9.31099 L -22.37514 -9.30255 L -22.34941 -9.29406 L -22.32524 -9.28555 L -22.30265 -9.277 L -22.28167 -9.26843 L -22.26232 -9.25986 L -22.2446 -9.25127 L -22.22854 -9.24269 L -22.21415 -9.23412 L -22.20144 -9.22556 L -22.19043 -9.21704 L -22.18112 -9.20854 L -22.17353 -9.20008 L -22.16646 -9.1896 L -22.16208 -9.17922 L -22.16038 -9.16893 L -22.16137 -9.15876 L -22.16505 -9.14871 L -22.17141 -9.13881 L -22.18044 -9.12907 L -22.19214 -9.1195 L -22.20648 -9.11011 L -22.22345 -9.10092 L -22.24302 -9.09193 L -22.26516 -9.08316 L -22.28986 -9.07463 L -22.31706 -9.06634" />
    <path d="M -21.0752 -9.23099 L -21.17148 -9.23226 L -21.26893 -9.23435 L -21.36727 -9.23726 L -21.46624 -9.24097 L -21.56556 -9.24549 L -21.66498 -9.25079 L -21.76421 -9.25687 L -21.86298 -9.2637 L -21.96103 -9.27127 L -22.0581 -9.27955 L -22.1539 -9.28853 L -22.2482 -9.29818 L -22.34072 -9.30847 L -22.43122 -9.31938" />
    <path d="M -19.49257 -9.72127 L -19.67533 -9.72048 L -19.85886 -9.72507 L -20.04046 -9.73497 L -20.21743 -9.75003 L -20.38715 -9.77003 L -20.54712 -9.79468 L -20.69495 -9.82361 L -20.82848 -9.85639 L -20.94571 -9.89254 L -21.04492 -9.93152 L -21.12464 -9.97276 L -21.18369 -10.01564 L -21.22118 -10.05953 L -21.23658 -10.10379 L -21.2065 -10.18411 L -21.10228 -10.25941 L -20.92913 -10.32591 L -20.69574 -10.38028 L -20.41382 -10.41978 L -20.09749 -10.44244 L -19.76263 -10.44713 L -19.42601 -10.4336 L -19.10454 -10.40253 L -18.81431 -10.35549 L -18.56989 -10.29483 L -18.38353 -10.22359 L -18.26458 -10.14535 L -18.219 -10.06403 L -18.22337 -10.0269 L -18.24359 -9.99038 L -18.27944 -9.95485 L -18.33054 -9.92067 L -18.39636 -9.88821 L -18.47621 -9.85781 L -18.56923 -9.8298 L -18.67446 -9.80446 L -18.79078 -9.78206 L -18.91697 -9.76285 L -19.05169 -9.74701 L -19.19354 -9.73472 L -19.34102 -9.72611 L -19.49257 -9.72127 Z" />
    <path d="M -7.70284 -8.4162 L -7.73297 -8.42475 L -7.76037 -8.43358 L -7.78501 -8.44268 L -7.80685 -8.45204 L -7.82587 -8.46164 L -7.84202 -8.47147 L -7.85529 -8.48151 L -7.86565 -8.49175 L -7.8731 -8.50217 L -7.87762 -8.51276 L -7.8792 -8.52351 L -7.87784 -8.53438 L -7.87354 -8.54538 L -7.86632 -8.55648 L -7.76759 -8.62195 L -7.57619 -8.68702 L -7.30173 -8.74842 L -6.95797 -8.80306 L -6.56213 -8.84822 L -6.13408 -8.88163 L -5.69528 -8.90161 L -5.26772 -8.90715 L -4.87286 -8.89799 L -4.53048 -8.87458 L -4.25776 -8.8381 L -4.06838 -8.79037 L -3.97182 -8.73379 L -3.97294 -8.67119 L -4.04781 -8.61708 L -4.18702 -8.56286 L -4.38579 -8.51039 L -4.63728 -8.46148 L -4.93285 -8.41781 L -5.26234 -8.38087 L -5.61443 -8.35194 L -5.977 -8.33201 L -6.3376 -8.32177 L -6.68384 -8.32157 L -7.0038 -8.33142 L -7.2865 -8.35097 L -7.52222 -8.37956 L -7.70284 -8.4162 Z" />
    <path d="M -16.55612 -10.23394 L -16.70657 -10.23892 L -16.85285 -10.24763 L -16.99343 -10.25997 L -17.12686 -10.2758 L -17.25174 -10.29497 L -17.36678 -10.31728 L -17.47077 -10.34248 L -17.56265 -10.37033 L -17.64144 -10.40053 L -17.70633 -10.43277 L -17.75664 -10.46671 L -17.79186 -10.502 L -17.81161 -10.53827 L -17.81569 -10.57514 L -17.76959 -10.65645 L -17.65008 -10.73473 L -17.46316 -10.80608 L -17.2182 -10.8669 L -16.92749 -10.91416 L -16.6056 -10.94547 L -16.26867 -10.95927 L -15.9336 -10.95487 L -15.61719 -10.93249 L -15.33531 -10.89325 L -15.10209 -10.83912 L -14.92923 -10.77281 L -14.82539 -10.69765 L -14.79578 -10.6174 L -14.81159 -10.57295 L -14.84973 -10.52884 L -14.90965 -10.48574 L -14.99043 -10.44429 L -15.09087 -10.40511 L -15.20948 -10.36879 L -15.34447 -10.33587 L -15.49383 -10.30685 L -15.65533 -10.28215 L -15.82656 -10.26215 L -16.00494 -10.24714 L -16.18783 -10.23735 L -16.37247 -10.23293 L -16.55612 -10.23394 Z" />
    <path d="M -10.54999 -10.46424 L -10.73534 -10.42897 L -10.97319 -10.40188 L -11.25551 -10.38389 L -11.57281 -10.37559 L -11.9144 -10.37727 L -12.26878 -10.38887 L -12.62401 -10.41 L -12.96814 -10.43995 L -13.28958 -10.47771 L -13.57751 -10.52201 L -13.82222 -10.57135 L -14.01549 -10.62408 L -14.1508 -10.67843 L -14.2236 -10.73255 L -14.22432 -10.7957 L -14.12826 -10.85264 L -13.94024 -10.90052 L -13.66967 -10.93693 L -13.33014 -10.96006 L -12.93866 -10.96874 L -12.51487 -10.96253 L -12.08001 -10.94175 L -11.65589 -10.90744 L -11.26378 -10.86132 L -10.92334 -10.8057 L -10.65165 -10.74337 L -10.46232 -10.67746 L -10.36484 -10.61128 L -10.35747 -10.59952 L -10.3533 -10.58788 L -10.35233 -10.57638 L -10.35457 -10.56503 L -10.36002 -10.55387 L -10.36866 -10.5429 L -10.38048 -10.53214 L -10.39546 -10.52161 L -10.41358 -10.51133 L -10.4348 -10.50132 L -10.4591 -10.49159 L -10.48642 -10.48215 L -10.51674 -10.47303 L -10.54999 -10.46424 Z" />
    <path d="M -23.2285 -10.31415 L -23.40987 -10.31369 L -23.59169 -10.31853 L -23.77129 -10.3286 L -23.94608 -10.34374 L -24.11349 -10.36374 L -24.2711 -10.38831 L -24.4166 -10.41709 L -24.54787 -10.44966 L -24.66301 -10.48554 L -24.76033 -10.52422 L -24.83842 -10.56513 L -24.89614 -10.60767 L -24.93265 -10.65122 L -24.94741 -10.69515 L -24.9166 -10.7756 L -24.81177 -10.85111 L -24.63817 -10.9179 L -24.4045 -10.97262 L -24.12248 -11.01253 L -23.80625 -11.03563 L -23.47167 -11.04075 L -23.13551 -11.02764 L -22.81464 -10.99697 L -22.52514 -10.95026 L -22.28153 -10.88985 L -22.09602 -10.81879 L -21.97792 -10.74062 L -21.93315 -10.65928 L -21.93799 -10.62177 L -21.95894 -10.58486 L -21.99578 -10.54894 L -22.04812 -10.5144 L -22.11539 -10.4816 L -22.19688 -10.4509 L -22.2917 -10.42263 L -22.39885 -10.39709 L -22.51717 -10.37455 L -22.64539 -10.35527 L -22.78213 -10.33943 L -22.92594 -10.32722 L -23.07526 -10.31876 L -23.2285 -10.31415 Z" />
    <path d="M -19.22985 -11.29193 L -19.22389 -11.23872 L -19.30631 -11.18523 L -19.47362 -11.13373 L -19.7188 -11.08638 L -20.03151 -11.04518 L -20.39859 -11.01185 L -20.80458 -10.98781 L -21.23239 -10.97407 L -21.664 -10.97119 L -22.08123 -10.97932 L -22.46653 -10.99809 L -22.80366 -11.02673 L -23.07842 -11.06403 L -23.27926 -11.10841 L -23.49267 -11.09129 L -23.72795 -11.08222 L -23.97934 -11.0814 L -24.24069 -11.08886 L -24.5056 -11.10443 L -24.76759 -11.12771 L -25.02025 -11.15814 L -25.25738 -11.19497 L -25.47319 -11.2373 L -25.66238 -11.28409 L -25.82034 -11.33421 L -25.94318 -11.38642 L -26.02791 -11.43944 L -26.07246 -11.49198 L -26.06685 -11.56018 L -25.98567 -11.62206 L -25.83256 -11.67485 L -25.6144 -11.71616 L -25.34101 -11.74413 L -25.02469 -11.75752 L -24.67965 -11.75571 L -24.32141 -11.73879 L -23.96608 -11.70752 L -23.62965 -11.66331 L -23.32724 -11.60814 L -23.07245 -11.54449 L -22.87674 -11.47524 L -22.74891 -11.40348 L -22.48989 -11.43217 L -22.20238 -11.45599 L -21.8934 -11.47434 L -21.57048 -11.48678 L -21.24151 -11.49301 L -20.91452 -11.49288 L -20.5975 -11.48639 L -20.29818 -11.47369 L -20.02387 -11.4551 L -19.78126 -11.43107 L -19.57629 -11.40219 L -19.41395 -11.36917 L -19.29821 -11.3328 L -19.2319 -11.29398 L -19.23175 -11.29383 L -19.2316 -11.29368 L -19.23145 -11.29354 L -19.2313 -11.29339 L -19.23115 -11.29325 L -19.231 -11.2931 L -19.23086 -11.29295 L -19.23071 -11.29281 L -19.23057 -11.29266 L -19.23042 -11.29251 L -19.23028 -11.29237 L -19.23014 -11.29222 L -19.23 -11.29207 L -19.22985 -11.29193 Z" />
    <path d="M -17.51919 -12.35744 L -17.65754 -12.3265 L -17.83393 -12.30059 L -18.04435 -12.28031 L -18.284 -12.26612 L -18.54744 -12.25834 L -18.82867 -12.25715 L -19.12128 -12.26258 L -19.41862 -12.2745 L -19.71392 -12.29264 L -20.00045 -12.3166 L -20.27169 -12.34581 L -20.52147 -12.37963 L -20.7441 -12.41727 L -20.93452 -12.45789 A 5 0.86005 180 0 0 -19.85371 -12.83868 L -19.61616 -12.8352 L -19.37425 -12.82737 L -19.13166 -12.8153 L -18.89205 -12.79918 L -18.65907 -12.77924 L -18.43625 -12.7558 L -18.22695 -12.7292 L -18.03437 -12.69986 L -17.86141 -12.66821 L -17.71069 -12.63473 L -17.58452 -12.59994 L -17.48478 -12.56435 L -17.41301 -12.52852 L -17.37029 -12.49298 L -17.36317 -12.48233 L -17.35881 -12.47178 L -17.3572 -12.46133 L -17.35835 -12.451 L -17.36225 -12.44081 L -17.36891 -12.43077 L -17.3783 -12.42089 L -17.39042 -12.41118 L -17.40525 -12.40167 L -17.42277 -12.39237 L -17.44295 -12.38328 L -17.46577 -12.37442 L -17.4912 -12.3658 L -17.51919 -12.35744 Z" />
    <path d="M 5.98365 -8.77725 L 6.2183 -8.7971 L 6.48093 -8.80715 L 6.76362 -8.80709 L 7.05784 -8.79692 L 7.35471 -8.77695 L 7.64529 -8.74778 L 7.92081 -8.71029 L 8.17295 -8.66562 L 8.3941 -8.6151 L 8.57761 -8.56026 L 8.71793 -8.50277 L 8.81083 -8.44434 L 8.8535 -8.38675 L 8.84467 -8.33174 L 8.75776 -8.26722 L 8.59003 -8.21296 L 8.34989 -8.1717 L 8.04937 -8.1455 L 7.70355 -8.13567 L 7.32977 -8.1427 L 6.94677 -8.16625 L 6.57375 -8.20513 L 6.22943 -8.25739 L 5.93106 -8.32041 L 5.69361 -8.39103 L 5.52898 -8.46571 L 5.44544 -8.54071 L 5.44716 -8.61227 L 5.45938 -8.62752 L 5.47589 -8.64238 L 5.49667 -8.6568 L 5.52165 -8.67075 L 5.55077 -8.6842 L 5.58396 -8.69711 L 5.62113 -8.70944 L 5.66219 -8.72116 L 5.70703 -8.73225 L 5.75554 -8.74268 L 5.80759 -8.75242 L 5.86306 -8.76144 L 5.9218 -8.76972 L 5.98365 -8.77725 Z" />
    <path d="M 8.90265 -8.37864 L 8.88838 -8.38534 L 8.87562 -8.39213 L 8.86439 -8.39901 L 8.85471 -8.40598 L 8.84657 -8.41303 L 8.83999 -8.42016 L 8.83496 -8.42735 L 8.8315 -8.43461 L 8.8296 -8.44193 L 8.82927 -8.4493 L 8.83051 -8.45671 L 8.83331 -8.46417 L 8.83768 -8.47166 L 8.8436 -8.47919 L 8.94862 -8.54064 L 9.15047 -8.60061 L 9.43902 -8.65608 L 9.79981 -8.70428 L 10.21475 -8.74277 L 10.66303 -8.76965 L 11.12217 -8.78355 L 11.56914 -8.78378 L 11.98154 -8.77033 L 12.33869 -8.74388 L 12.62267 -8.70574 L 12.81925 -8.65784 L 12.91856 -8.60257 L 12.91564 -8.5427 L 12.82894 -8.4888 L 12.66703 -8.43575 L 12.43614 -8.3856 L 12.14519 -8.34029 L 11.8054 -8.30156 L 11.42989 -8.27092 L 11.03315 -8.24953 L 10.63049 -8.23823 L 10.23743 -8.23746 L 9.86916 -8.24724 L 9.53988 -8.26719 L 9.26229 -8.29655 L 9.04712 -8.33419 L 8.90265 -8.37864 Z" />
    <path d="M 3.75588 -9.55845 L 3.7564 -9.55918 L 3.75693 -9.55992 L 3.75749 -9.56066 L 3.75806 -9.56139 L 3.75865 -9.56213 L 3.75925 -9.56286 L 3.75987 -9.5636 L 3.76051 -9.56433 L 3.76117 -9.56507 L 3.76185 -9.5658 L 3.76254 -9.56653 L 3.76325 -9.56727 L 3.76397 -9.568 L 3.76472 -9.56873 L 3.87555 -9.62397 L 4.086 -9.67377 L 4.38553 -9.71563 L 4.75912 -9.74744 L 5.18803 -9.76762 L 5.65075 -9.77515 L 6.12408 -9.76966 L 6.58429 -9.75141 L 7.00831 -9.72133 L 7.37486 -9.68092 L 7.66556 -9.63221 L 7.86585 -9.57765 L 7.96568 -9.51996 L 7.96004 -9.46204 L 7.85128 -9.40748 L 7.64532 -9.35819 L 7.35222 -9.31658 L 6.98632 -9.28469 L 6.56548 -9.26407 L 6.11028 -9.25574 L 5.64297 -9.26009 L 5.18638 -9.27693 L 4.76283 -9.30541 L 4.39301 -9.34416 L 4.09501 -9.39127 L 3.88338 -9.44445 L 3.76846 -9.5011 L 3.75588 -9.55845 Z" />
    <path d="M 18.64002 -9.60581 L 18.85069 -9.60964 L 19.05545 -9.60991 L 19.25181 -9.60659 L 19.43739 -9.59974 L 19.60994 -9.58944 L 19.76737 -9.57581 L 19.90777 -9.55901 L 20.02942 -9.53926 L 20.13087 -9.51678 L 20.21088 -9.49186 L 20.26847 -9.4648 L 20.30295 -9.43591 L 20.3139 -9.40556 L 20.30118 -9.37412 L 20.2686 -9.34446 L 20.21634 -9.3145 L 20.14494 -9.28454 L 20.05514 -9.2549 L 19.94787 -9.22589 L 19.82423 -9.19779 L 19.68551 -9.1709 L 19.53314 -9.1455 L 19.36868 -9.12185 L 19.19384 -9.1002 L 19.01042 -9.08077 L 18.82032 -9.06375 L 18.6255 -9.04933 L 18.42797 -9.03766 C 18.39 -8.98 18.35 -8.91 18.30515 -8.85194" />
    <path d="M 14.9977 -9.3291 L 14.99213 -9.33396 L 14.98733 -9.33885 L 14.98331 -9.34376 L 14.98005 -9.34869 L 14.97756 -9.35365 L 14.97585 -9.35862 L 14.9749 -9.36361 L 14.97474 -9.36861 L 14.97534 -9.37363 L 14.97672 -9.37866 L 14.97887 -9.3837 L 14.98179 -9.38874 L 14.98549 -9.39379 L 14.98995 -9.39885 L 15.05901 -9.44187 L 15.18198 -9.4839 L 15.35558 -9.5238 L 15.57516 -9.5605 L 15.83484 -9.59303 L 16.12767 -9.6205 L 16.44582 -9.6422 L 16.78075 -9.65753 L 17.12352 -9.66609 L 17.46494 -9.66765 L 17.79588 -9.66216 L 18.10748 -9.64977 L 18.39139 -9.63082 L 18.64002 -9.60581" />
    <path d="M 16.25535 -9.14975 L 16.11654 -9.15534 L 15.98282 -9.16226 L 15.85492 -9.17047 L 15.73351 -9.17993 L 15.61924 -9.19058 L 15.51272 -9.20237 L 15.41452 -9.21524 L 15.32516 -9.22912 L 15.24511 -9.24393 L 15.17481 -9.2596 L 15.11462 -9.27604 L 15.06487 -9.29317 L 15.02583 -9.31089 L 14.9977 -9.3291" />
    <path d="M 15.2601 -8.60311 L 15.19946 -8.61304 L 15.14337 -8.62378 L 15.09199 -8.63532 L 15.0455 -8.64761 L 15.00403 -8.66061 L 14.96772 -8.67429 L 14.93668 -8.6886 L 14.911 -8.70349 L 14.89077 -8.71893 L 14.87604 -8.73485 L 14.86687 -8.75123 L 14.86328 -8.76799 L 14.86528 -8.78509 L 14.87287 -8.80248 L 14.89632 -8.83053 L 14.9336 -8.85895 L 14.98441 -8.88751 L 15.04836 -8.91599 L 15.12494 -8.94417 L 15.21355 -8.97182 L 15.3135 -8.99873 L 15.42401 -9.02469 L 15.5442 -9.04949 L 15.67315 -9.07294 L 15.80983 -9.09486 L 15.95318 -9.11507 L 16.10208 -9.13341 L 16.25535 -9.14975" />
    <path d="M 18.42797 -9.03766 L 18.43432 -9.03189 L 18.43992 -9.02605 L 18.44477 -9.02015 L 18.44887 -9.01419 L 18.45223 -9.00817 L 18.45482 -9.0021 L 18.45667 -8.99598 L 18.45776 -8.9898 L 18.45809 -8.98358 L 18.45767 -8.97731 L 18.4565 -8.97101 L 18.45456 -8.96466 L 18.45188 -8.95827 L 18.44844 -8.95185 L 18.39188 -8.89811 L 18.28621 -8.84378 L 18.13445 -8.7904 L 17.94088 -8.73947 L 17.71101 -8.69245 L 17.45134 -8.65067 L 17.16925 -8.61532 L 16.87274 -8.58738 L 16.57021 -8.56767 L 16.27025 -8.55674 L 15.98136 -8.55489 L 15.71173 -8.56218 L 15.46902 -8.57841 L 15.2601 -8.60311" />
    <path d="M 7.40737 -9.68686 L 7.28963 -9.69511 L 7.17763 -9.70578 L 7.07216 -9.71879 L 6.97398 -9.73406 L 6.8838 -9.75146 L 6.80226 -9.77087 L 6.72994 -9.79216 L 6.66737 -9.81518 L 6.615 -9.83975 L 6.57319 -9.8657 L 6.54226 -9.89285 L 6.52241 -9.921 L 6.5138 -9.94995 L 6.51648 -9.97949 L 6.57779 -10.05901 L 6.71487 -10.13719 L 6.92085 -10.21012 L 7.18541 -10.27413 L 7.49527 -10.32603 L 7.8349 -10.3632 L 8.18727 -10.38378 L 8.53471 -10.38675 L 8.85979 -10.37194 L 9.14622 -10.34011 L 9.37963 -10.29285 L 9.54832 -10.23253 L 9.64383 -10.16217 L 9.66138 -10.08531 L 9.63236 -10.03587 L 9.57328 -9.98636 L 9.48528 -9.93774 L 9.37008 -9.89097 L 9.22992 -9.84696 L 9.06752 -9.80656 L 8.88606 -9.77056 L 8.68907 -9.73966 L 8.48039 -9.71447 L 8.26408 -9.69546 L 8.04436 -9.68303 L 7.82551 -9.67739 L 7.61179 -9.67868 L 7.40737 -9.68686 Z" />
    <path d="M 15.80857 -9.89434 L 15.79014 -9.90165 L 15.77357 -9.90909 L 15.75887 -9.91667 L 15.74604 -9.92437 L 15.73512 -9.93218 L 15.7261 -9.94011 L 15.71899 -9.94814 L 15.71381 -9.95626 L 15.71055 -9.96447 L 15.70922 -9.97275 L 15.70982 -9.98111 L 15.71235 -9.98953 L 15.71681 -9.998 L 15.72319 -10.00652 L 15.82658 -10.06911 L 16.0257 -10.13058 L 16.31057 -10.18785 L 16.6669 -10.23805 L 17.07684 -10.27866 L 17.51981 -10.30764 L 17.97362 -10.32355 L 18.41549 -10.32558 L 18.82329 -10.31363 L 19.17655 -10.28831 L 19.45757 -10.25087 L 19.65224 -10.20321 L 19.75082 -10.1477 L 19.74835 -10.08714 L 19.66504 -10.03316 L 19.50968 -9.9797 L 19.28809 -9.92874 L 19.00854 -9.8822 L 18.68146 -9.8418 L 18.31907 -9.80905 L 17.93491 -9.78519 L 17.5433 -9.77109 L 17.15889 -9.76729 L 16.79601 -9.77393 L 16.46823 -9.79075 L 16.18777 -9.81714 L 15.96511 -9.85211 L 15.80857 -9.89434 Z" />
    <path d="M 35.10179 -8.36914 L 35.22086 -8.42312 L 35.43677 -8.47075 L 35.73883 -8.50966 L 36.1121 -8.53794 L 36.53811 -8.55418 L 36.9958 -8.55758 L 37.46252 -8.54797 L 37.91518 -8.52583 L 38.3314 -8.49226 L 38.69058 -8.4489 L 38.97496 -8.39792 L 39.17048 -8.34182 L 39.26745 -8.28339 L 39.26108 -8.22551 L 39.15059 -8.1707 L 38.94121 -8.1221 L 38.64344 -8.08215 L 38.2722 -8.05286 L 37.84611 -8.03569 L 37.38654 -8.0315 L 36.91653 -8.0405 L 36.45966 -8.06225 L 36.03882 -8.09565 L 35.67513 -8.13903 L 35.38682 -8.19021 L 35.18834 -8.24662 L 35.08966 -8.30544 L 35.09571 -8.36372 L 35.09611 -8.36411 L 35.09652 -8.3645 L 35.09693 -8.36488 L 35.09735 -8.36527 L 35.09777 -8.36566 L 35.0982 -8.36605 L 35.09863 -8.36643 L 35.09906 -8.36682 L 35.09951 -8.36721 L 35.09995 -8.36759 L 35.1004 -8.36798 L 35.10086 -8.36837 L 35.10132 -8.36875 L 35.10179 -8.36914 Z" />
    <path d="M 18.07598 -10.61699 L 18.03563 -10.62624 L 17.99867 -10.63592 L 17.96519 -10.64603 L 17.93526 -10.65654 L 17.90894 -10.66742 L 17.88627 -10.67866 L 17.8673 -10.69024 L 17.85208 -10.70213 L 17.84063 -10.7143 L 17.83297 -10.72674 L 17.82913 -10.73941 L 17.8291 -10.7523 L 17.83289 -10.76537 L 17.84049 -10.77861 L 17.90346 -10.82971 L 18.01893 -10.88126 L 18.18359 -10.93177 L 18.3927 -10.97979 L 18.64027 -11.02395 L 18.91917 -11.06297 L 19.2214 -11.09574 L 19.53828 -11.12131 L 19.8607 -11.13895 L 20.17941 -11.14815 L 20.48523 -11.14865 L 20.76941 -11.14043 L 21.02376 -11.12373 L 21.24098 -11.09903 C 21.18 -11.02 21.12 -10.93 21.06589 -10.84805 C 21.03 -10.79 20.99 -10.74 20.95474 -10.68872" />
    <path d="M 21.3812 -10.78802 L 21.22069 -10.7439 L 21.02658 -10.70207 L 20.80324 -10.66346 L 20.55573 -10.62895 L 20.28961 -10.59932 L 20.0109 -10.57523 L 19.72588 -10.55724 L 19.44098 -10.54574 L 19.16263 -10.541 L 18.89711 -10.54312 L 18.6504 -10.55205 L 18.42808 -10.5676 L 18.23516 -10.58941 L 18.07598 -10.61699" />
    <path d="M 21.24098 -11.09903 L 21.45336 -11.15658 L 21.72023 -11.20983 L 22.03142 -11.25676 L 22.37509 -11.29558 L 22.73815 -11.32481 L 23.10678 -11.34335 L 23.46693 -11.35047 L 23.80489 -11.34592 L 24.1078 -11.32986 L 24.36411 -11.30291 L 24.56407 -11.26609 L 24.70006 -11.22081 L 24.7669 -11.16878 L 24.76206 -11.112 L 24.69963 -11.06042 L 24.58487 -11.00837 L 24.42109 -10.95733 L 24.21302 -10.90879 L 23.96663 -10.86414 L 23.68905 -10.82467 L 23.38827 -10.79152 L 23.07297 -10.76564 L 22.75222 -10.74777 L 22.43528 -10.73844 L 22.13128 -10.73791 L 21.84898 -10.7462 L 21.59653 -10.76307 L 21.3812 -10.78802" />
    <path d="M 32.16316 -10.51543 L 32.16094 -10.51913 L 32.15916 -10.52284 L 32.15781 -10.52655 L 32.15691 -10.53027 L 32.15644 -10.534 L 32.15641 -10.53773 L 32.15682 -10.54147 L 32.15768 -10.5452 L 32.15897 -10.54895 L 32.1607 -10.55269 L 32.16287 -10.55643 L 32.16547 -10.56017 L 32.16852 -10.56392 L 32.172 -10.56766 L 32.28172 -10.62511 L 32.49119 -10.67912 L 32.7899 -10.727 L 33.16288 -10.76633 L 33.59142 -10.79514 L 34.05403 -10.812 L 34.52752 -10.81605 L 34.98814 -10.80709 L 35.4128 -10.78557 L 35.7802 -10.75257 L 36.07191 -10.70975 L 36.27332 -10.65925 L 36.37432 -10.6036 L 36.36984 -10.5456 L 36.27025 -10.49176 L 36.08283 -10.44078 L 35.8158 -10.39489 L 35.48091 -10.3561 L 35.09286 -10.32612 L 34.6687 -10.30627 L 34.22707 -10.29742 L 33.78736 -10.29995 L 33.3689 -10.31376 L 32.99006 -10.33824 L 32.6675 -10.37231 L 32.41537 -10.41448 L 32.24476 -10.4629 L 32.16316 -10.51543 Z" />
    <path d="M 26.7619 -11.69888 L 26.75042 -11.70509 L 26.74023 -11.71137 L 26.73134 -11.71772 L 26.72375 -11.72413 L 26.71746 -11.7306 L 26.71249 -11.73712 L 26.70882 -11.74369 L 26.70648 -11.75031 L 26.70545 -11.75697 L 26.70574 -11.76367 L 26.70735 -11.7704 L 26.71027 -11.77716 L 26.71451 -11.78394 L 26.72006 -11.79075 L 26.82618 -11.8514 L 27.02985 -11.91025 L 27.32087 -11.96436 L 27.68464 -12.01101 L 28.10292 -12.04787 L 28.55474 -12.07307 L 29.01744 -12.08537 L 29.46781 -12.08414 L 29.88329 -12.06945 L 30.24302 -12.04203 L 30.52898 -12.00325 L 30.72682 -11.95507 L 30.82662 -11.89989 L 30.82338 -11.84049 L 30.73423 -11.78663 L 30.5675 -11.73392 L 30.32978 -11.68444 L 30.03049 -11.64014 L 29.68143 -11.60278 L 29.29642 -11.57384 L 28.89067 -11.55444 L 28.48022 -11.54538 L 28.08128 -11.54699 L 27.70964 -11.55922 L 27.37999 -11.58159 L 27.10534 -11.61321 L 26.89656 -11.65283 L 26.7619 -11.69888 Z" />
    <path d="M -8.23503 -11.94528 L -8.29064 -11.95511 L -8.34195 -11.96566 L -8.38883 -11.9769 L -8.43114 -11.98879 L -8.46877 -12.00131 L -8.5016 -12.01441 L -8.52954 -12.02807 L -8.55252 -12.04224 L -8.57046 -12.05688 L -8.58333 -12.07195 L -8.59108 -12.0874 L -8.59369 -12.10321 L -8.59115 -12.11931 L -8.58347 -12.13566 L -8.49515 -12.20646 L -8.32039 -12.27741 L -8.06795 -12.34494 L -7.75048 -12.40567 L -7.38391 -12.45656 L -6.98662 -12.49506 L -6.57853 -12.51923 L -6.1801 -12.52786 L -5.81131 -12.52053 L -5.49065 -12.49759 L -5.23421 -12.4602 L -5.05484 -12.41023 L -4.96154 -12.35019 L -4.95898 -12.28309 L -5.01833 -12.2292 L -5.12896 -12.17474 L -5.28763 -12.12129 L -5.48971 -12.07042 L -5.72928 -12.02361 L -5.99933 -11.98224 L -6.29196 -11.94751 L -6.59862 -11.92045 L -6.91032 -11.90183 L -7.21796 -11.89221 L -7.51252 -11.89188 L -7.7854 -11.90083 L -8.02861 -11.9188 L -8.23503 -11.94528 Z" />
    <path d="M 7.0923 -11.10093 L 6.99962 -11.11051 L 6.9126 -11.1217 L 6.8317 -11.13447 L 6.75733 -11.14872 L 6.68988 -11.16441 L 6.62969 -11.18143 L 6.57709 -11.1997 L 6.53235 -11.21914 L 6.49569 -11.23963 L 6.46731 -11.26107 L 6.44736 -11.28335 L 6.43593 -11.30635 L 6.43309 -11.32996 L 6.43885 -11.35405 L 6.51133 -11.4308 L 6.66302 -11.50714 L 6.8863 -11.57926 L 7.16998 -11.64354 L 7.49983 -11.69675 L 7.85932 -11.73623 L 8.23042 -11.75999 L 8.59453 -11.76685 L 8.93337 -11.75646 L 9.22996 -11.72934 L 9.46944 -11.68686 L 9.63979 -11.63113 L 9.73246 -11.56496 L 9.74282 -11.49167 L 9.7025 -11.43971 L 9.62485 -11.38736 L 9.51166 -11.33583 L 9.36556 -11.28632 L 9.18993 -11.23997 L 8.98884 -11.19786 L 8.76694 -11.16096 L 8.52939 -11.13013 L 8.28167 -11.10608 L 8.02954 -11.08936 L 7.77882 -11.08037 L 7.53533 -11.07932 L 7.30471 -11.08622 L 7.0923 -11.10093 Z" />
    <path d="M 5.09623 -11.5711 L 4.96902 -11.5786 L 4.84732 -11.58887 L 4.73211 -11.60182 L 4.62431 -11.61734 L 4.52478 -11.63531 L 4.43433 -11.6556 L 4.35367 -11.67802 L 4.28346 -11.70242 L 4.22426 -11.72858 L 4.17654 -11.7563 L 4.14069 -11.78537 L 4.11699 -11.81553 L 4.10564 -11.84656 L 4.10672 -11.8782 L 4.1637 -11.95847 L 4.29551 -12.03696 L 4.49553 -12.10974 L 4.75374 -12.17316 L 5.05719 -12.22404 L 5.39066 -12.25982 L 5.73743 -12.27872 L 6.08011 -12.27979 L 6.40152 -12.26297 L 6.68555 -12.2291 L 6.91794 -12.17989 L 7.08705 -12.11779 L 7.18439 -12.04594 L 7.20509 -11.96792 L 7.18008 -11.91971 L 7.12741 -11.87156 L 7.04804 -11.82435 L 6.9434 -11.77893 L 6.81541 -11.73612 L 6.66637 -11.69671 L 6.499 -11.6614 L 6.31633 -11.63084 L 6.12168 -11.60559 L 5.91857 -11.58609 L 5.7107 -11.57271 L 5.50183 -11.56569 L 5.29576 -11.56515 L 5.09623 -11.5711 Z" />
    <path d="M 0.82197 -11.24452 L 0.64153 -11.24428 L 0.46086 -11.24928 L 0.28256 -11.25945 L 0.10922 -11.27464 L -0.05668 -11.29464 L -0.21274 -11.31915 L -0.35671 -11.34783 L -0.48652 -11.38026 L -0.60029 -11.41597 L -0.69638 -11.45444 L -0.7734 -11.49513 L -0.83026 -11.53744 L -0.86612 -11.58077 L -0.88046 -11.62449 L -0.84918 -11.70501 L -0.74394 -11.78065 L -0.57002 -11.84763 L -0.33615 -11.90259 L -0.05405 -11.94277 L 0.26214 -11.96615 L 0.59656 -11.97156 L 0.93243 -11.95874 L 1.25292 -11.92832 L 1.54196 -11.88183 L 1.78505 -11.8216 L 1.97001 -11.75065 L 2.08755 -11.67255 L 2.13179 -11.59119 L 2.12664 -11.55343 L 2.1052 -11.51627 L 2.06769 -11.48009 L 2.01453 -11.44531 L 1.94628 -11.41229 L 1.8637 -11.38139 L 1.76768 -11.35295 L 1.65926 -11.32728 L 1.53961 -11.30465 L 1.41004 -11.28532 L 1.27196 -11.26949 L 1.12686 -11.25733 L 0.97632 -11.24897 L 0.82197 -11.24452 Z" />
    <path d="M -1.07123 -12.92027 L -1.26901 -12.88939 L -1.51122 -12.86696 L -1.79027 -12.85367 L -2.09736 -12.84994 L -2.42285 -12.8559 L -2.75648 -12.87135 L -3.08777 -12.89581 L -3.4063 -12.9285 L -3.70204 -12.96841 L -3.96569 -13.01427 L -4.18896 -13.06464 L -4.36483 -13.11794 L -4.48776 -13.1725 L -4.55389 -13.22658 L -4.55317 -13.29162 L -4.45861 -13.34994 L -4.27497 -13.39862 L -4.01145 -13.43522 L -3.68126 -13.45791 L -3.30097 -13.46554 L -2.88963 -13.45774 L -2.46788 -13.43489 L -2.05687 -13.39814 L -1.6772 -13.34934 L -1.34791 -13.29093 L -1.08552 -13.22584 L -0.90318 -13.15733 L -0.81004 -13.08884 L -0.80237 -13.07487 L -0.79882 -13.06109 L -0.7994 -13.04752 L -0.8041 -13.03419 L -0.81291 -13.02114 L -0.82582 -13.00838 L -0.84279 -12.99595 L -0.8638 -12.98387 L -0.88878 -12.97217 L -0.91769 -12.96088 L -0.95047 -12.95002 L -0.98704 -12.93962 L -1.02733 -12.92969 L -1.07123 -12.92027 Z" />
    <path d="M -10.81987 -11.69154 L -10.81889 -11.6336 L -10.92226 -11.57564 L -11.12482 -11.52056 L -11.41649 -11.47109 L -11.78275 -11.42969 L -12.20534 -11.39844 L -12.66323 -11.37888 L -13.1336 -11.37199 L -13.59304 -11.37811 L -14.01866 -11.39694 L -14.38925 -11.42754 L -14.68637 -11.46839 L -14.89521 -11.51745 L -15.00538 -11.57227 L -15.01122 -11.63034 L -14.9119 -11.68855 L -14.71239 -11.74399 L -14.4227 -11.79387 L -14.05736 -11.83571 L -13.63468 -11.86739 L -13.17586 -11.88733 L -12.70391 -11.89453 L -12.2425 -11.88863 L -11.81475 -11.86993 L -11.44212 -11.83936 L -11.1433 -11.79845 L -10.93326 -11.74926 L -10.82255 -11.69425 L -10.82235 -11.69406 L -10.82215 -11.69387 L -10.82195 -11.69367 L -10.82176 -11.69348 L -10.82156 -11.69328 L -10.82137 -11.69309 L -10.82118 -11.6929 L -10.82099 -11.6927 L -10.8208 -11.69251 L -10.82061 -11.69231 L -10.82042 -11.69212 L -10.82024 -11.69193 L -10.82005 -11.69173 L -10.81987 -11.69154 Z" />
    <path d="M -7.99605 -12.81865 L -8.0503 -12.82845 L -8.10034 -12.83894 L -8.14602 -12.85009 L -8.18721 -12.86187 L -8.22381 -12.87426 L -8.25572 -12.8872 L -8.28284 -12.90068 L -8.30511 -12.91465 L -8.32245 -12.92908 L -8.33483 -12.94392 L -8.34221 -12.95913 L -8.34457 -12.97467 L -8.34189 -12.99051 L -8.3342 -13.00659 L -8.24532 -13.07713 L -8.06969 -13.14781 L -7.81612 -13.21509 L -7.49731 -13.27559 L -7.12926 -13.32628 L -6.73042 -13.36462 L -6.3208 -13.38868 L -5.92092 -13.39726 L -5.55085 -13.38993 L -5.22913 -13.36705 L -4.97191 -13.32977 L -4.79208 -13.27997 L -4.69866 -13.22014 L -4.69632 -13.15327 L -4.75643 -13.09936 L -4.86842 -13.04487 L -5.029 -12.99142 L -5.23342 -12.94057 L -5.47565 -12.89384 L -5.74856 -12.8526 L -6.04408 -12.81806 L -6.3535 -12.79125 L -6.66769 -12.77296 L -6.97739 -12.76372 L -7.27345 -12.76381 L -7.54715 -12.77322 L -7.79041 -12.79169 L -7.99605 -12.81865 Z" />
    <path d="M 3.33537 -12.33438 L 3.17064 -12.33724 L 3.00849 -12.34449 L 2.85088 -12.35604 L 2.69974 -12.37177 L 2.55691 -12.39147 L 2.4241 -12.41491 L 2.30295 -12.44181 L 2.19491 -12.47183 L 2.1013 -12.50461 L 2.02327 -12.53975 L 1.96175 -12.57683 L 1.91749 -12.6154 L 1.89104 -12.65498 L 1.88271 -12.6951 L 1.89159 -12.73308 L 1.91665 -12.77069 L 1.95764 -12.80752 L 2.01409 -12.84318 L 2.08541 -12.87728 L 2.17081 -12.90944 L 2.26936 -12.93932 L 2.38001 -12.96659 L 2.50154 -12.99096 L 2.63264 -13.01217 L 2.77188 -13.02997 L 2.91776 -13.04419 L 3.06869 -13.05466 L 3.22303 -13.06127 C 3.22 -12.97 3.22 -12.88 3.22273 -12.79622 C 3.22 -12.64 3.22 -12.49 3.22221 -12.33586" />
    <path d="M 4.69823 -12.87984 L 4.7235 -12.86825 L 4.74703 -12.85643 L 4.76876 -12.84441 L 4.78868 -12.8322 L 4.80675 -12.81982 L 4.82296 -12.80728 L 4.83728 -12.79459 L 4.8497 -12.78178 L 4.86019 -12.76887 L 4.86875 -12.75586 L 4.87536 -12.74277 L 4.88001 -12.72963 L 4.8827 -12.71645 L 4.88343 -12.70325 L 4.87286 -12.66168 L 4.84291 -12.62059 L 4.79396 -12.58053 L 4.72665 -12.54201 L 4.64186 -12.50553 L 4.54068 -12.47158 L 4.42445 -12.44059 L 4.29466 -12.41296 L 4.15301 -12.38905 L 4.00135 -12.36918 L 3.84164 -12.35361 L 3.67596 -12.34253 L 3.50647 -12.33609 L 3.33537 -12.33438" />
    <path d="M 3.22303 -13.06127 L 3.19632 -13.07314 L 3.17145 -13.08525 L 3.14843 -13.09757 L 3.12731 -13.11009 L 3.10811 -13.12279 L 3.09086 -13.13566 L 3.07558 -13.14867 L 3.06229 -13.16181 L 3.05102 -13.17506 L 3.04178 -13.18841 L 3.03457 -13.20183 L 3.02942 -13.2153 L 3.02632 -13.22881 L 3.02529 -13.24234 L 3.06288 -13.32354 L 3.1738 -13.40066 L 3.3525 -13.46984 L 3.59 -13.52761 L 3.8744 -13.57107 L 4.19144 -13.59805 L 4.52522 -13.60719 L 4.859 -13.59803 L 5.17605 -13.57103 L 5.46047 -13.52755 L 5.69799 -13.46977 L 5.87671 -13.40058 L 5.98767 -13.32345 L 6.02529 -13.24226 L 6.0172 -13.2044 L 5.99301 -13.16694 L 5.95296 -13.1303 L 5.89751 -13.09488 L 5.82724 -13.06104 L 5.74292 -13.02916 L 5.64545 -12.99958 L 5.53589 -12.97262 L 5.41542 -12.94857 L 5.28533 -12.92769 L 5.14705 -12.91021 L 5.00205 -12.89631 L 4.8519 -12.88615 L 4.69823 -12.87984 C 4.7 -12.76 4.69 -12.64 4.69179 -12.52584" />
    <path d="M 12.84274 -14.12532 L 12.76383 -14.13524 L 12.69022 -14.14641 L 12.62223 -14.15877 L 12.56014 -14.17229 L 12.50421 -14.18689 L 12.45469 -14.20253 L 12.41178 -14.21912 L 12.37566 -14.23661 L 12.34649 -14.25492 L 12.3244 -14.27397 L 12.30947 -14.29368 L 12.30176 -14.31396 L 12.30132 -14.33473 L 12.30814 -14.35591 L 12.3866 -14.43069 L 12.54667 -14.50541 L 12.78032 -14.57632 L 13.07584 -14.63988 L 13.41841 -14.69289 L 13.79085 -14.73269 L 14.17449 -14.75729 L 14.55008 -14.76546 L 14.8988 -14.75678 L 15.20316 -14.73169 L 15.44789 -14.69145 L 15.62072 -14.63808 L 15.713 -14.57425 L 15.72009 -14.50317 L 15.67306 -14.45025 L 15.58404 -14.39682 L 15.45528 -14.34421 L 15.29004 -14.29376 L 15.0925 -14.24675 L 14.86767 -14.20436 L 14.62122 -14.16768 L 14.35941 -14.13762 L 14.08886 -14.11495 L 13.81642 -14.10025 L 13.54898 -14.09388 L 13.29332 -14.09601 L 13.0559 -14.10658 L 12.84274 -14.12532 Z" />
    <path d="M 4.10038 -14.17432 L 3.98975 -14.18305 L 3.88491 -14.19394 L 3.78657 -14.20695 L 3.69536 -14.22197 L 3.61189 -14.23891 L 3.5367 -14.25767 L 3.47029 -14.27811 L 3.41309 -14.3001 L 3.36549 -14.32349 L 3.32778 -14.34814 L 3.30023 -14.37389 L 3.28302 -14.40055 L 3.27624 -14.42796 L 3.27996 -14.45594 L 3.34447 -14.53478 L 3.4856 -14.61259 L 3.69627 -14.68547 L 3.96591 -14.74976 L 4.28101 -14.80223 L 4.62576 -14.84026 L 4.98287 -14.86194 L 5.33444 -14.86619 L 5.66285 -14.85278 L 5.95162 -14.82239 L 6.18626 -14.77655 L 6.35503 -14.71756 L 6.44945 -14.64836 L 6.46478 -14.57244 L 6.43268 -14.52218 L 6.36858 -14.47175 L 6.27381 -14.4222 L 6.15031 -14.37453 L 6.00061 -14.32972 L 5.82777 -14.28869 L 5.63535 -14.25229 L 5.42729 -14.22126 L 5.20785 -14.19623 L 4.98153 -14.17772 L 4.75297 -14.16612 L 4.52686 -14.16164 L 4.30784 -14.1644 L 4.10038 -14.17432 Z" />
    <path d="M 21.15728 -3.90157 C 21.16 -3.89 21.17 -3.89 21.17163 -3.88119 C 21.18 -3.87 21.18 -3.87 21.18659 -3.86064 C 21.19 -3.85 21.2 -3.85 21.20218 -3.83992 C 21.21 -3.83 21.21 -3.83 21.21844 -3.819 C 21.22 -3.81 21.23 -3.8 21.23539 -3.79788 C 21.24 -3.79 21.25 -3.78 21.25309 -3.77655 C 21.26 -3.77 21.27 -3.76 21.27155 -3.755 C 21.28 -3.75 21.28 -3.74 21.29082 -3.73323 C 21.3 -3.73 21.3 -3.72 21.31095 -3.71124 C 21.32 -3.7 21.32 -3.7 21.33197 -3.68902 C 21.34 -3.68 21.35 -3.67 21.35393 -3.66657 C 21.36 -3.66 21.37 -3.65 21.37689 -3.6439 C 21.38 -3.64 21.39 -3.63 21.4009 -3.62102 C 21.41 -3.61 21.42 -3.61 21.42604 -3.59791 C 21.43 -3.59 21.44 -3.58 21.45237 -3.5746 C 21.46 -3.57 21.46 -3.57 21.46602 -3.56286 C 21.47 -3.56 21.48 -3.56 21.48 -3.55108 C 21.49 -3.55 21.49 -3.54 21.5003 -3.53439 C 21.51 -3.53 21.51 -3.52 21.52131 -3.51763 C 21.53 -3.51 21.54 -3.51 21.54306 -3.50081 C 21.55 -3.5 21.56 -3.49 21.56558 -3.48396 C 21.57 -3.48 21.58 -3.47 21.5889 -3.46711 C 21.6 -3.46 21.6 -3.46 21.61304 -3.45028 C 21.62 -3.44 21.63 -3.44 21.63803 -3.43352 C 21.65 -3.43 21.66 -3.42 21.66387 -3.41689 C 21.69 -3.4 21.72 -3.39 21.74254 -3.37057 C 21.79 -3.35 21.84 -3.32 21.88712 -3.30231 C 21.93 -3.29 21.97 -3.27 22.00937 -3.26193 C 22.16 -3.22 22.28 -3.23 22.37629 -3.24141 C 22.73 -3.31 22.94 -3.5 23.15454 -3.68478" />
    <path d="M 19.98638 -4.21229 C 19.99 -4.21 19.99 -4.21 19.99349 -4.20645 C 20 -4.2 20 -4.2 19.99926 -4.20203" />
    <path d="M 11.69776 -6.8901 C 11.68 -6.87 11.67 -6.86 11.65275 -6.84008 C 11.64 -6.82 11.62 -6.81 11.60721 -6.79066 C 11.59 -6.77 11.57 -6.75 11.55568 -6.73608 C 11.54 -6.72 11.52 -6.7 11.5039 -6.68264 C 11.49 -6.67 11.47 -6.65 11.45179 -6.63024 C 11.43 -6.61 11.42 -6.6 11.39931 -6.5788 C 11.38 -6.56 11.36 -6.54 11.34636 -6.52822 C 11.33 -6.51 11.31 -6.49 11.2929 -6.47845 C 11.27 -6.46 11.26 -6.45 11.23883 -6.42942 C 11.22 -6.41 11.2 -6.4 11.18411 -6.38108" />
    <path d="M 9.36773 -6.52241 C 9.37 -6.53 9.37 -6.54 9.37628 -6.54394 C 9.38 -6.55 9.38 -6.56 9.38902 -6.57492 C 9.39 -6.59 9.4 -6.6 9.40219 -6.60575 C 9.41 -6.62 9.41 -6.63 9.41579 -6.63644 C 9.42 -6.65 9.43 -6.66 9.42979 -6.66697 C 9.43 -6.68 9.44 -6.69 9.44417 -6.69732 C 9.45 -6.71 9.45 -6.72 9.45891 -6.72749 C 9.46 -6.74 9.47 -6.75 9.474 -6.75747 C 9.48 -6.77 9.48 -6.78 9.48941 -6.78725" />
    <path d="M 11.88763 -6.39173 C 11.93 -6.43 11.97 -6.47 12.01642 -6.50753 C 12.06 -6.55 12.1 -6.58 12.14557 -6.62295 C 12.19 -6.66 12.23 -6.7 12.27505 -6.73799 C 12.32 -6.78 12.36 -6.81 12.40484 -6.85263" />
    <path d="M 13.47851 -6.12406 C 13.49 -6.13 13.51 -6.13 13.52309 -6.1337 C 13.54 -6.14 13.55 -6.14 13.56823 -6.14168 C 13.58 -6.14 13.6 -6.15 13.61385 -6.148 C 13.63 -6.15 13.64 -6.15 13.65985 -6.15267 C 13.68 -6.15 13.7 -6.16 13.71814 -6.15621 C 13.74 -6.16 13.76 -6.16 13.77672 -6.1572 C 13.8 -6.16 13.82 -6.16 13.83545 -6.15569 C 13.86 -6.15 13.87 -6.15 13.89418 -6.15173" />
    <path d="M -0.18104 -7.86697 C -0.19 -7.88 -0.2 -7.89 -0.20915 -7.90265 C -0.22 -7.91 -0.23 -7.93 -0.23678 -7.93782 C -0.25 -7.95 -0.25 -7.96 -0.26396 -7.97249 C -0.27 -7.98 -0.28 -8 -0.29069 -8.00669 C -0.31 -8.03 -0.33 -8.05 -0.34291 -8.07368 C -0.36 -8.1 -0.38 -8.12 -0.39358 -8.13888 C -0.41 -8.16 -0.43 -8.18 -0.44286 -8.20239 C -0.46 -8.22 -0.48 -8.24 -0.4909 -8.26427 C -0.51 -8.28 -0.52 -8.3 -0.53788 -8.32462 C -0.55 -8.34 -0.57 -8.36 -0.58398 -8.38352 C -0.6 -8.4 -0.61 -8.42 -0.62758 -8.43881 C -0.64 -8.45 -0.65 -8.46 -0.6578 -8.47682 C -0.67 -8.49 -0.68 -8.5 -0.68774 -8.51415 C -0.7 -8.53 -0.71 -8.54 -0.71744 -8.55081 C -0.73 -8.56 -0.74 -8.57 -0.74693 -8.58678" />
    <path d="M -2.20364 -8.18415 C -2.21 -8.17 -2.22 -8.17 -2.23094 -8.15631 C -2.24 -8.15 -2.25 -8.14 -2.25918 -8.12916 C -2.27 -8.12 -2.28 -8.11 -2.29492 -8.09706 C -2.31 -8.09 -2.32 -8.08 -2.33218 -8.06611 C -2.34 -8.06 -2.36 -8.05 -2.37092 -8.03651 C -2.38 -8.03 -2.4 -8.02 -2.41104 -8.00844 C -2.42 -8 -2.44 -7.99 -2.45249 -7.98204 C -2.47 -7.97 -2.48 -7.97 -2.49518 -7.95745 C -2.51 -7.95 -2.52 -7.94 -2.53902 -7.93482 C -2.55 -7.93 -2.57 -7.92 -2.58393 -7.91423 C -2.6 -7.91 -2.61 -7.9 -2.6298 -7.89578 C -2.65 -7.89 -2.66 -7.88 -2.67653 -7.87954 C -2.69 -7.87 -2.71 -7.87 -2.72403 -7.86557 C -2.74 -7.86 -2.76 -7.86 -2.77216 -7.8539 C -2.79 -7.85 -2.8 -7.85 -2.82083 -7.84457 C -2.84 -7.84 -2.85 -7.84 -2.86989 -7.83757 C -2.89 -7.84 -2.9 -7.83 -2.91924 -7.83289 C -2.94 -7.83 -2.95 -7.83 -2.96873 -7.8305 C -2.99 -7.83 -3.01 -7.83 -3.03428 -7.83078 C -3.06 -7.83 -3.08 -7.83 -3.0993 -7.83482 C -3.12 -7.84 -3.14 -7.84 -3.16365 -7.8424 C -3.18 -7.85 -3.21 -7.85 -3.22719 -7.85329 C -3.25 -7.86 -3.27 -7.86 -3.28977 -7.86725 C -3.31 -7.87 -3.33 -7.88 -3.35127 -7.88406 C -3.37 -7.89 -3.39 -7.9 -3.41155 -7.90345 C -3.43 -7.91 -3.45 -7.92 -3.47048 -7.92516 C -3.51 -7.94 -3.55 -7.96 -3.59275 -7.97886 C -3.63 -8 -3.67 -8.02 -3.70868 -8.04048 C -3.78 -8.08 -3.85 -8.13 -3.92128 -8.18095 C -3.92 -8.18 -3.92 -8.18 -3.92346 -8.18258" />
    <path d="M -16.35789 -5.73611 C -16.37 -5.75 -16.39 -5.76 -16.40599 -5.77329 C -16.42 -5.79 -16.44 -5.8 -16.45414 -5.81037 C -16.47 -5.82 -16.49 -5.84 -16.50233 -5.84734 C -16.52 -5.86 -16.53 -5.87 -16.55055 -5.88417 C -16.57 -5.9 -16.58 -5.91 -16.5988 -5.92085 C -16.61 -5.93 -16.63 -5.95 -16.64704 -5.95737 C -16.66 -5.97 -16.68 -5.98 -16.69527 -5.9937 C -16.71 -6.01 -16.73 -6.02 -16.74347 -6.02982 C -16.76 -6.04 -16.77 -6.05 -16.78837 -6.0633 C -16.8 -6.07 -16.82 -6.09 -16.83327 -6.0966 C -16.85 -6.11 -16.86 -6.12 -16.87821 -6.12976 C -16.89 -6.14 -16.91 -6.15 -16.92323 -6.16278" />
    <path d="M -18.90734 -6.08058 C -18.91 -6.07 -18.92 -6.06 -18.92866 -6.05561 C -18.94 -6.05 -18.94 -6.04 -18.95046 -6.03217 C -18.96 -6.02 -18.97 -6.02 -18.97271 -6.01029 C -18.98 -6 -18.99 -6 -18.99537 -5.98998 C -19 -5.98 -19.01 -5.98 -19.01837 -5.97125 C -19.03 -5.97 -19.03 -5.96 -19.04167 -5.95411 C -19.05 -5.95 -19.06 -5.94 -19.0652 -5.93855 C -19.07 -5.93 -19.08 -5.93 -19.08891 -5.92455 C -19.1 -5.92 -19.1 -5.92 -19.11271 -5.91208 C -19.12 -5.91 -19.13 -5.9 -19.13654 -5.90111 C -19.14 -5.9 -19.15 -5.89 -19.16033 -5.8916 C -19.17 -5.89 -19.18 -5.89 -19.18397 -5.88348 C -19.19 -5.88 -19.2 -5.88 -19.20739 -5.87671 C -19.22 -5.87 -19.22 -5.87 -19.23049 -5.87119 C -19.24 -5.87 -19.25 -5.87 -19.25317 -5.86686 C -19.26 -5.87 -19.27 -5.86 -19.2753 -5.86362 C -19.28 -5.86 -19.29 -5.86 -19.30073 -5.86107 C -19.31 -5.86 -19.32 -5.86 -19.32602 -5.8597 C -19.33 -5.86 -19.34 -5.86 -19.35117 -5.85947 C -19.36 -5.86 -19.37 -5.86 -19.37616 -5.86029 C -19.38 -5.86 -19.39 -5.86 -19.40099 -5.86211 C -19.41 -5.86 -19.42 -5.86 -19.42565 -5.86487 C -19.43 -5.87 -19.44 -5.87 -19.45014 -5.86853 C -19.46 -5.87 -19.47 -5.87 -19.47446 -5.87301 C -19.48 -5.87 -19.49 -5.88 -19.4986 -5.87829 C -19.51 -5.88 -19.51 -5.88 -19.52257 -5.88431 C -19.53 -5.89 -19.54 -5.89 -19.54637 -5.89104 C -19.55 -5.89 -19.56 -5.9 -19.57001 -5.89842 C -19.59 -5.9 -19.6 -5.91 -19.61683 -5.91506 C -19.63 -5.92 -19.65 -5.93 -19.66312 -5.934" />
    <path d="M -18.90734 -6.08058 L -18.84846 -6.08731 L -18.78825 -6.09381 L -18.72679 -6.10008 L -18.66416 -6.10611 L -18.60042 -6.11189 L -18.53564 -6.11741 L -18.46992 -6.12268 L -18.40332 -6.12767 L -18.33592 -6.13239 L -18.2678 -6.13684 L -18.19905 -6.141 L -18.12974 -6.14487 L -18.05996 -6.14844 L -17.98978 -6.15172 L -18.05082 -6.15325 L -18.11119 -6.15501 L -18.17084 -6.15702 L -18.22971 -6.15927 L -18.28775 -6.16175 L -18.3449 -6.16447 L -18.4011 -6.16742 L -18.45632 -6.1706 L -18.51048 -6.174 L -18.56355 -6.17763 L -18.61547 -6.18148 L -18.66619 -6.18555 L -18.71567 -6.18982 L -18.76385 -6.19431 L -18.7682 -6.18567 L -18.77347 -6.1771 L -18.77967 -6.16858 L -18.78679 -6.16014 L -18.79482 -6.15177 L -18.80376 -6.14348 L -18.81361 -6.13527 L -18.82436 -6.12715 L -18.836 -6.11913 L -18.84853 -6.1112 L -18.86194 -6.10338 L -18.87622 -6.09567 L -18.89135 -6.08806 L -18.90734 -6.08058 Z" />
    <path d="M -17.98978 -6.15172 C -17.98 -6.14 -17.98 -6.13 -17.96755 -6.11882 C -17.96 -6.11 -17.95 -6.1 -17.94507 -6.08593 C -17.94 -6.07 -17.93 -6.06 -17.92239 -6.05307 C -17.91 -6.04 -17.91 -6.03 -17.89952 -6.02028 C -17.89 -6.01 -17.88 -6 -17.8765 -5.98755 C -17.87 -5.98 -17.86 -5.97 -17.85334 -5.95491 C -17.85 -5.94 -17.84 -5.93 -17.83007 -5.92237 C -17.82 -5.91 -17.81 -5.9 -17.80671 -5.88994 C -17.8 -5.88 -17.79 -5.87 -17.78325 -5.85763 C -17.78 -5.85 -17.77 -5.84 -17.75973 -5.82543 C -17.75 -5.81 -17.74 -5.8 -17.73614 -5.79334 C -17.73 -5.78 -17.72 -5.77 -17.71248 -5.76136 C -17.7 -5.75 -17.7 -5.74 -17.68876 -5.72948 C -17.68 -5.72 -17.67 -5.71 -17.66499 -5.69769 C -17.66 -5.69 -17.65 -5.68 -17.64114 -5.66598 C -17.63 -5.66 -17.63 -5.64 -17.61722 -5.63433" />
    <path d="M -18.9657 -6.01697 C -18.97 -6.02 -18.97 -6.03 -18.97402 -6.03735 C -18.98 -6.04 -18.98 -6.05 -18.98273 -6.05832 C -18.99 -6.07 -18.99 -6.07 -18.99339 -6.08347 C -19 -6.09 -19 -6.1 -19.00453 -6.10921 C -19.01 -6.12 -19.01 -6.13 -19.01615 -6.13543 C -19.02 -6.14 -19.02 -6.15 -19.02822 -6.16206 C -19.03 -6.17 -19.04 -6.18 -19.04073 -6.18902 C -19.04 -6.2 -19.05 -6.21 -19.05365 -6.21622 C -19.06 -6.23 -19.06 -6.23 -19.06695 -6.24357 C -19.07 -6.25 -19.08 -6.26 -19.08061 -6.271 C -19.08 -6.28 -19.09 -6.29 -19.09346 -6.29622 C -19.1 -6.3 -19.1 -6.31 -19.10659 -6.32144 C -19.11 -6.33 -19.12 -6.34 -19.11999 -6.34664 C -19.12 -6.36 -19.13 -6.36 -19.13366 -6.37179 C -19.14 -6.38 -19.14 -6.39 -19.14757 -6.39686 C -19.15 -6.41 -19.16 -6.41 -19.16172 -6.42183 C -19.17 -6.43 -19.17 -6.44 -19.17611 -6.44669 C -19.18 -6.45 -19.19 -6.46 -19.19073 -6.47142 C -19.2 -6.48 -19.2 -6.49 -19.20752 -6.49923" />
    <path d="M -23.00803 -9.1835 C -23 -9.18 -22.99 -9.18 -22.98552 -9.17617 C -22.98 -9.17 -22.97 -9.17 -22.96562 -9.17043 C -22.96 -9.17 -22.95 -9.17 -22.94549 -9.16536 C -22.94 -9.16 -22.93 -9.16 -22.92515 -9.16098 C -22.92 -9.16 -22.91 -9.16 -22.9046 -9.15732 C -22.9 -9.16 -22.89 -9.16 -22.88386 -9.15442 C -22.88 -9.15 -22.87 -9.15 -22.86295 -9.15233 C -22.86 -9.15 -22.85 -9.15 -22.84189 -9.15109 C -22.83 -9.15 -22.83 -9.15 -22.8207 -9.15073 C -22.81 -9.15 -22.8 -9.15 -22.79646 -9.15147 C -22.79 -9.15 -22.78 -9.15 -22.77212 -9.1535 C -22.76 -9.15 -22.76 -9.16 -22.74776 -9.15689 C -22.74 -9.16 -22.73 -9.16 -22.72344 -9.16171 C -22.72 -9.16 -22.71 -9.17 -22.69926 -9.16804 C -22.69 -9.17 -22.68 -9.17 -22.67529 -9.17593 C -22.67 -9.18 -22.66 -9.18 -22.65163 -9.18546 C -22.64 -9.19 -22.64 -9.19 -22.62835 -9.19668 C -22.62 -9.2 -22.62 -9.2 -22.6149 -9.20408 C -22.61 -9.21 -22.61 -9.21 -22.60165 -9.21208 C -22.6 -9.21 -22.59 -9.22 -22.58864 -9.22069 C -22.58 -9.22 -22.58 -9.23 -22.5759 -9.22989 C -22.57 -9.23 -22.57 -9.24 -22.56346 -9.23967 C -22.56 -9.24 -22.56 -9.25 -22.55134 -9.25004 C -22.55 -9.25 -22.54 -9.26 -22.53956 -9.26098 C -22.54 -9.26 -22.53 -9.27 -22.52815 -9.27247 C -22.52 -9.28 -22.52 -9.28 -22.51714 -9.2845 C -22.51 -9.29 -22.51 -9.29 -22.50653 -9.29704 C -22.5 -9.31 -22.49 -9.31 -22.48663 -9.3236 C -22.47 -9.34 -22.46 -9.36 -22.45237 -9.3818 C -22.38 -9.52 -22.38 -9.68 -22.40118 -9.83663" />
    <path d="M -23.47394 -9.58218 L -23.51519 -9.5772 L -23.55678 -9.57238 L -23.59868 -9.56772 L -23.64086 -9.56323 L -23.6833 -9.55891 L -23.72598 -9.55476 L -23.76886 -9.55078 L -23.81193 -9.54698 L -23.85515 -9.54336 L -23.8985 -9.53991 L -23.94195 -9.53665 L -23.98548 -9.53357 L -24.02906 -9.53068 L -24.07266 -9.52798 L -24.00485 -9.52455 L -23.93719 -9.52079 L -23.86977 -9.51672 L -23.80266 -9.51234 L -23.73595 -9.50766 L -23.66971 -9.50268 L -23.60402 -9.4974 L -23.53896 -9.49184 L -23.47461 -9.48599 L -23.41104 -9.47987 L -23.34832 -9.47348 L -23.28653 -9.46684 L -23.22575 -9.45994 L -23.16604 -9.4528 L -23.19849 -9.46183 L -23.22943 -9.47092 L -23.25883 -9.48007 L -23.28667 -9.48927 L -23.31292 -9.49851 L -23.33755 -9.50779 L -23.36054 -9.51709 L -23.38187 -9.52641 L -23.40151 -9.53574 L -23.41946 -9.54506 L -23.43569 -9.55438 L -23.45019 -9.56367 L -23.46295 -9.57294 L -23.47394 -9.58218 Z" />
    <path d="M -24.07266 -9.52798 C -24.08 -9.52 -24.09 -9.51 -24.10321 -9.50717 C -24.11 -9.5 -24.12 -9.49 -24.13478 -9.48801 C -24.15 -9.48 -24.16 -9.48 -24.1673 -9.47052 C -24.18 -9.46 -24.19 -9.46 -24.20066 -9.4547 C -24.21 -9.45 -24.22 -9.44 -24.23477 -9.44056 C -24.25 -9.44 -24.26 -9.43 -24.26954 -9.42808 C -24.28 -9.42 -24.29 -9.42 -24.30484 -9.41724 C -24.32 -9.41 -24.33 -9.41 -24.34056 -9.408 C -24.35 -9.41 -24.36 -9.4 -24.37657 -9.40033 C -24.39 -9.4 -24.4 -9.4 -24.41274 -9.39417 C -24.42 -9.39 -24.44 -9.39 -24.44894 -9.38947 C -24.46 -9.39 -24.47 -9.39 -24.485 -9.38614 C -24.5 -9.39 -24.51 -9.38 -24.52078 -9.38411 C -24.53 -9.38 -24.54 -9.38 -24.55611 -9.38329 C -24.57 -9.38 -24.58 -9.38 -24.59082 -9.38356 C -24.6 -9.38 -24.61 -9.38 -24.62473 -9.38482 C -24.64 -9.39 -24.65 -9.39 -24.66367 -9.38742 C -24.68 -9.39 -24.69 -9.39 -24.7024 -9.3912 C -24.72 -9.39 -24.73 -9.39 -24.74088 -9.39606 C -24.75 -9.4 -24.77 -9.4 -24.7791 -9.40195 C -24.79 -9.4 -24.8 -9.41 -24.81701 -9.40881 C -24.83 -9.41 -24.84 -9.41 -24.85461 -9.41657 C -24.87 -9.42 -24.88 -9.42 -24.89187 -9.42517 C -24.9 -9.43 -24.92 -9.43 -24.92879 -9.43457 C -24.94 -9.44 -24.95 -9.44 -24.96536 -9.44472 C -24.98 -9.45 -24.99 -9.45 -25.00156 -9.45556 C -25.01 -9.46 -25.03 -9.46 -25.0374 -9.46707 C -25.05 -9.47 -25.06 -9.48 -25.07287 -9.4792 C -25.1 -9.49 -25.12 -9.5 -25.14276 -9.5052 C -25.17 -9.51 -25.19 -9.52 -25.21128 -9.53334" />
    <path d="M -23.1804 -9.75699 C -23.16 -9.76 -23.13 -9.75 -23.10985 -9.7511 C -23.09 -9.75 -23.06 -9.75 -23.04035 -9.74125 C -23.02 -9.74 -22.99 -9.73 -22.97207 -9.72776 C -22.95 -9.72 -22.93 -9.72 -22.90518 -9.71097 C -22.89 -9.71 -22.88 -9.7 -22.87129 -9.70113 C -22.86 -9.7 -22.85 -9.69 -22.83782 -9.69054 C -22.83 -9.69 -22.82 -9.68 -22.80476 -9.67922 C -22.79 -9.68 -22.78 -9.67 -22.77212 -9.66723 C -22.76 -9.66 -22.75 -9.66 -22.7399 -9.6546 C -22.73 -9.65 -22.72 -9.65 -22.70812 -9.64135 C -22.69 -9.63 -22.67 -9.62 -22.64585 -9.61316 C -22.63 -9.6 -22.61 -9.59 -22.58534 -9.58289 C -22.57 -9.57 -22.55 -9.56 -22.5266 -9.55079 C -22.51 -9.54 -22.49 -9.53 -22.46964 -9.51706 C -22.45 -9.51 -22.43 -9.49 -22.41448 -9.48189" />
    <path d="M -23.87723 -9.54158 C -23.87 -9.55 -23.86 -9.56 -23.84491 -9.56581 C -23.83 -9.57 -23.82 -9.58 -23.81158 -9.58888 C -23.8 -9.6 -23.79 -9.6 -23.77728 -9.6107 C -23.77 -9.62 -23.75 -9.62 -23.74207 -9.6312 C -23.73 -9.64 -23.72 -9.64 -23.70599 -9.65031 C -23.69 -9.66 -23.68 -9.66 -23.66912 -9.66797 C -23.66 -9.67 -23.64 -9.68 -23.63151 -9.68414 C -23.62 -9.69 -23.61 -9.69 -23.59322 -9.69876 C -23.58 -9.7 -23.58 -9.7 -23.56817 -9.70737 C -23.56 -9.71 -23.55 -9.71 -23.54292 -9.71531 C -23.53 -9.72 -23.53 -9.72 -23.51749 -9.72257 C -23.51 -9.72 -23.5 -9.73 -23.49191 -9.72915 C -23.48 -9.73 -23.47 -9.73 -23.46618 -9.73506 C -23.46 -9.74 -23.45 -9.74 -23.44034 -9.7403 C -23.43 -9.74 -23.42 -9.74 -23.41441 -9.74486 C -23.41 -9.75 -23.4 -9.75 -23.3884 -9.74876 C -23.38 -9.75 -23.37 -9.75 -23.36234 -9.75199 C -23.35 -9.75 -23.34 -9.75 -23.33625 -9.75458 C -23.33 -9.76 -23.32 -9.76 -23.31015 -9.75652 C -23.3 -9.76 -23.29 -9.76 -23.28407 -9.75783 C -23.28 -9.76 -23.27 -9.76 -23.25804 -9.75852 C -23.25 -9.76 -23.24 -9.76 -23.23206 -9.7586 C -23.22 -9.76 -23.21 -9.76 -23.20617 -9.75808 C -23.2 -9.76 -23.19 -9.76 -23.1804 -9.75699" />
    <path d="M -23.16604 -9.4528 C -23.16 -9.44 -23.15 -9.43 -23.14912 -9.42331 C -23.14 -9.41 -23.14 -9.4 -23.13208 -9.3938 C -23.13 -9.38 -23.12 -9.37 -23.11494 -9.36428 C -23.11 -9.35 -23.1 -9.34 -23.09772 -9.33478 C -23.09 -9.32 -23.09 -9.32 -23.08041 -9.30531 C -23.07 -9.3 -23.07 -9.29 -23.06304 -9.27586 C -23.06 -9.27 -23.05 -9.26 -23.04562 -9.24647 C -23.04 -9.24 -23.03 -9.23 -23.02815 -9.21713 C -23.02 -9.21 -23.02 -9.2 -23.01063 -9.18784 C -23 -9.18 -23 -9.17 -22.99309 -9.15862 C -22.99 -9.15 -22.98 -9.14 -22.97551 -9.12947 C -22.97 -9.12 -22.96 -9.11 -22.95791 -9.10039 C -22.95 -9.09 -22.95 -9.08 -22.94029 -9.07138 C -22.93 -9.06 -22.93 -9.05 -22.92265 -9.04244 C -22.92 -9.03 -22.91 -9.02 -22.90499 -9.01356 C -22.9 -9 -22.89 -8.99 -22.88731 -8.98475" />
    <path d="M -22.53951 -8.64634 C -22.54 -8.66 -22.54 -8.66 -22.53944 -8.67396 C -22.54 -8.68 -22.54 -8.69 -22.53829 -8.7013 C -22.54 -8.71 -22.54 -8.72 -22.53604 -8.72829 C -22.54 -8.74 -22.53 -8.75 -22.53264 -8.75483 C -22.53 -8.76 -22.53 -8.77 -22.52967 -8.7725 C -22.53 -8.78 -22.53 -8.78 -22.52615 -8.78989 C -22.52 -8.8 -22.52 -8.8 -22.52207 -8.80695 C -22.52 -8.81 -22.52 -8.82 -22.51742 -8.82366 C -22.52 -8.83 -22.51 -8.83 -22.51257 -8.83891 C -22.51 -8.84 -22.51 -8.85 -22.50723 -8.85378 C -22.51 -8.86 -22.5 -8.86 -22.5014 -8.86825 C -22.5 -8.87 -22.5 -8.88 -22.49509 -8.88227 C -22.49 -8.89 -22.49 -8.89 -22.48831 -8.89582 C -22.49 -8.9 -22.48 -8.9 -22.48106 -8.90886 C -22.48 -8.91 -22.48 -8.92 -22.47337 -8.92137 C -22.47 -8.93 -22.47 -8.93 -22.46524 -8.93333 C -22.46 -8.94 -22.46 -8.94 -22.45668 -8.94475 C -22.45 -8.95 -22.45 -8.95 -22.44774 -8.95555 C -22.44 -8.96 -22.44 -8.96 -22.43845 -8.96571 C -22.44 -8.97 -22.43 -8.97 -22.42884 -8.97524 C -22.43 -8.98 -22.42 -8.98 -22.41892 -8.98412 C -22.42 -8.99 -22.41 -8.99 -22.40871 -8.99237 C -22.41 -9 -22.4 -9 -22.39825 -8.99998 C -22.39 -9 -22.39 -9 -22.38755 -9.00695 C -22.38 -9.01 -22.38 -9.01 -22.37664 -9.01329 C -22.37 -9.02 -22.37 -9.02 -22.36555 -9.01901 C -22.36 -9.02 -22.36 -9.02 -22.3543 -9.02411 C -22.35 -9.03 -22.35 -9.03 -22.34292 -9.0286 C -22.33 -9.03 -22.31 -9.04 -22.29663 -9.04078 C -22.13 -9.06 -21.98 -8.96 -21.87213 -8.82285 C -21.86 -8.81 -21.86 -8.8 -21.85042 -8.7945 C -21.84 -8.78 -21.84 -8.77 -21.8296 -8.76493 C -21.82 -8.75 -21.82 -8.74 -21.80967 -8.73421 C -21.8 -8.72 -21.8 -8.71 -21.79064 -8.70239 C -21.78 -8.69 -21.78 -8.68 -21.7725 -8.66951 C -21.77 -8.66 -21.76 -8.65 -21.75526 -8.63561 C -21.75 -8.62 -21.74 -8.61 -21.7389 -8.60074 C -21.73 -8.59 -21.73 -8.58 -21.72341 -8.56491" />
    <path d="M -21.75856 -8.56554 C -21.78 -8.59 -21.79 -8.6 -21.81006 -8.6246 C -21.83 -8.64 -21.84 -8.66 -21.86166 -8.68359 C -21.88 -8.7 -21.9 -8.72 -21.91336 -8.7425 C -21.93 -8.76 -21.95 -8.78 -21.96515 -8.80131 C -21.98 -8.82 -22 -8.84 -22.01701 -8.85998 C -22.03 -8.88 -22.05 -8.9 -22.06892 -8.91847 C -22.09 -8.94 -22.1 -8.96 -22.12086 -8.97676 C -22.14 -9 -22.16 -9.02 -22.17279 -9.0348" />
    <path d="M -22.22957 -9.09795 C -22.25 -9.12 -22.27 -9.14 -22.28597 -9.16034 C -22.3 -9.17 -22.31 -9.19 -22.32228 -9.20034 C -22.33 -9.21 -22.35 -9.23 -22.35857 -9.24015 C -22.37 -9.25 -22.38 -9.27 -22.39487 -9.27982 C -22.41 -9.29 -22.42 -9.31 -22.43122 -9.31938" />
    <path d="M -19.62722 -8.83893 C -19.65 -8.85 -19.67 -8.87 -19.69296 -8.8845 C -19.72 -8.9 -19.74 -8.91 -19.75993 -8.92846 C -19.78 -8.94 -19.81 -8.96 -19.82819 -8.97073 C -19.85 -8.98 -19.87 -9 -19.89777 -9.01119 C -19.91 -9.02 -19.92 -9.02 -19.93207 -9.03015 C -19.94 -9.04 -19.96 -9.04 -19.96662 -9.04859 C -19.98 -9.05 -19.99 -9.06 -20.00143 -9.06651 C -20.01 -9.07 -20.02 -9.08 -20.03654 -9.0839 C -20.05 -9.09 -20.06 -9.1 -20.07197 -9.10074 C -20.08 -9.11 -20.1 -9.11 -20.10774 -9.11704 C -20.12 -9.12 -20.13 -9.13 -20.14388 -9.13276 C -20.16 -9.14 -20.17 -9.14 -20.1804 -9.14788 C -20.19 -9.15 -20.2 -9.16 -20.21731 -9.16238 C -20.23 -9.17 -20.24 -9.17 -20.25462 -9.17623 C -20.27 -9.18 -20.28 -9.19 -20.29235 -9.18938 C -20.31 -9.19 -20.32 -9.2 -20.3305 -9.20181 C -20.34 -9.21 -20.36 -9.21 -20.36908 -9.21346 C -20.38 -9.22 -20.4 -9.22 -20.40807 -9.22429 C -20.42 -9.23 -20.43 -9.23 -20.44748 -9.23425 C -20.46 -9.24 -20.47 -9.24 -20.48729 -9.24328" />
    <path d="M -20.84035 -8.59981 C -20.84 -8.61 -20.84 -8.62 -20.83444 -8.6335 C -20.83 -8.64 -20.83 -8.66 -20.82797 -8.66738 C -20.83 -8.68 -20.82 -8.69 -20.82088 -8.70145 C -20.82 -8.71 -20.82 -8.72 -20.81312 -8.73569 C -20.81 -8.74 -20.81 -8.75 -20.80897 -8.75286 C -20.81 -8.76 -20.81 -8.76 -20.80463 -8.77006 C -20.8 -8.78 -20.8 -8.78 -20.80008 -8.78727 C -20.8 -8.79 -20.8 -8.8 -20.79532 -8.80449 C -20.79 -8.81 -20.79 -8.82 -20.79034 -8.82171 C -20.79 -8.83 -20.79 -8.83 -20.78513 -8.83892 C -20.78 -8.84 -20.78 -8.85 -20.77967 -8.85609 C -20.78 -8.86 -20.78 -8.87 -20.77396 -8.87323 C -20.77 -8.88 -20.77 -8.89 -20.76513 -8.89817 C -20.76 -8.91 -20.76 -8.92 -20.75536 -8.92382 C -20.75 -8.93 -20.75 -8.94 -20.7446 -8.94988 C -20.74 -8.96 -20.74 -8.97 -20.73286 -8.97606 C -20.73 -8.98 -20.72 -8.99 -20.72009 -9.00209 C -20.72 -9.01 -20.71 -9.02 -20.70629 -9.02773 C -20.7 -9.04 -20.7 -9.04 -20.69144 -9.05273 C -20.69 -9.06 -20.68 -9.07 -20.67551 -9.07688 C -20.67 -9.08 -20.66 -9.09 -20.6585 -9.09998 C -20.65 -9.11 -20.65 -9.11 -20.6404 -9.12184 C -20.63 -9.13 -20.63 -9.14 -20.62119 -9.14229 C -20.61 -9.15 -20.61 -9.16 -20.60087 -9.16116 C -20.59 -9.17 -20.59 -9.17 -20.57945 -9.17832 C -20.57 -9.18 -20.56 -9.19 -20.55692 -9.19364 C -20.55 -9.2 -20.54 -9.2 -20.53331 -9.207 C -20.53 -9.21 -20.52 -9.21 -20.50861 -9.21831 C -20.5 -9.22 -20.49 -9.23 -20.48016 -9.2283 C -20.47 -9.23 -20.46 -9.23 -20.4519 -9.23531" />
    <path d="M -19.83 -8.97182 C -19.82 -8.97 -19.82 -8.96 -19.80857 -8.95391 C -19.8 -8.95 -19.79 -8.94 -19.78737 -8.93581 C -19.78 -8.93 -19.77 -8.92 -19.7664 -8.91754 C -19.76 -8.91 -19.75 -8.91 -19.74566 -8.89911 C -19.74 -8.89 -19.73 -8.89 -19.72513 -8.88054 C -19.72 -8.87 -19.71 -8.87 -19.7048 -8.86183 C -19.7 -8.86 -19.69 -8.85 -19.68465 -8.84298 C -19.68 -8.84 -19.67 -8.83 -19.66468 -8.82399" />
    <path d="M -22.60042 -11.00781 C -22.61 -11.02 -22.61 -11.04 -22.61873 -11.05695 C -22.62 -11.07 -22.63 -11.09 -22.63706 -11.10621 C -22.64 -11.12 -22.65 -11.14 -22.65543 -11.15558 C -22.66 -11.17 -22.67 -11.19 -22.67388 -11.20504 C -22.68 -11.22 -22.69 -11.24 -22.69242 -11.25458 C -22.7 -11.27 -22.7 -11.29 -22.71109 -11.30417 C -22.72 -11.32 -22.72 -11.34 -22.72991 -11.35381 C -22.74 -11.37 -22.74 -11.39 -22.74891 -11.40348" />
    <path d="M -20.44587 -12.36858 C -20.44 -12.37 -20.43 -12.38 -20.42299 -12.38462 C -20.42 -12.39 -20.41 -12.4 -20.39994 -12.40105 C -20.39 -12.41 -20.38 -12.42 -20.3668 -12.42515 C -20.36 -12.43 -20.34 -12.44 -20.33342 -12.44994 C -20.32 -12.46 -20.31 -12.47 -20.29982 -12.47534 C -20.29 -12.48 -20.28 -12.49 -20.26603 -12.5013 C -20.25 -12.51 -20.24 -12.52 -20.23208 -12.52777 C -20.22 -12.54 -20.21 -12.55 -20.19799 -12.55468 C -20.19 -12.56 -20.18 -12.57 -20.16378 -12.58199 C -20.15 -12.59 -20.14 -12.6 -20.12948 -12.60965 C -20.12 -12.62 -20.11 -12.63 -20.09511 -12.63762 C -20.08 -12.65 -20.07 -12.66 -20.06067 -12.66584 C -20.05 -12.68 -20.04 -12.68 -20.0262 -12.69429 C -20.01 -12.7 -20 -12.71 -19.9917 -12.72292 C -19.98 -12.73 -19.97 -12.74 -19.95719 -12.75171 C -19.95 -12.76 -19.93 -12.77 -19.92268 -12.78061 C -19.91 -12.79 -19.9 -12.8 -19.88818 -12.80961 C -19.88 -12.82 -19.87 -12.83 -19.85371 -12.83868" />
    <path d="M 8.81033 -8.29738 C 8.81 -8.3 8.82 -8.31 8.81768 -8.31474 C 8.82 -8.32 8.82 -8.32 8.82316 -8.32911 C 8.82 -8.33 8.83 -8.34 8.82776 -8.34278 C 8.83 -8.35 8.83 -8.35 8.83016 -8.35091 C 8.83 -8.35 8.83 -8.36 8.83219 -8.35867 C 8.83 -8.36 8.83 -8.36 8.83387 -8.36625 C 8.83 -8.37 8.83 -8.37 8.83512 -8.37337 C 8.84 -8.38 8.84 -8.38 8.83596 -8.38002 C 8.84 -8.38 8.84 -8.38 8.83637 -8.38615 C 8.84 -8.39 8.84 -8.39 8.8364 -8.39036 C 8.84 -8.39 8.84 -8.39 8.83621 -8.39426 C 8.84 -8.4 8.84 -8.4 8.83579 -8.39786 C 8.84 -8.4 8.84 -8.4 8.83515 -8.40114 C 8.83 -8.4 8.83 -8.4 8.8343 -8.4041 C 8.83 -8.41 8.83 -8.41 8.83325 -8.40675 C 8.83 -8.41 8.83 -8.41 8.832 -8.40908 C 8.83 -8.41 8.83 -8.41 8.83056 -8.41109 C 8.83 -8.41 8.83 -8.41 8.82706 -8.41427 C 8.83 -8.42 8.82 -8.42 8.82289 -8.4162 C 8.82 -8.42 8.82 -8.42 8.81782 -8.41694 C 8.82 -8.42 8.81 -8.42 8.81218 -8.41644 C 8.81 -8.42 8.81 -8.42 8.80606 -8.41477 C 8.8 -8.41 8.8 -8.41 8.79953 -8.41205 C 8.8 -8.41 8.8 -8.41 8.79372 -8.40897 C 8.79 -8.41 8.79 -8.41 8.7877 -8.40524 C 8.79 -8.4 8.78 -8.4 8.7815 -8.40091 C 8.78 -8.4 8.78 -8.4 8.77514 -8.39602 C 8.77 -8.39 8.77 -8.39 8.76204 -8.38471 C 8.76 -8.38 8.75 -8.38 8.74855 -8.37157 C 8.74 -8.37 8.74 -8.36 8.73288 -8.35474" />
    <path d="M 7.36685 -9.54207 C 7.36 -9.55 7.36 -9.55 7.35954 -9.55984 C 7.36 -9.57 7.35 -9.57 7.35102 -9.57716 C 7.35 -9.58 7.34 -9.59 7.34121 -9.5939 C 7.34 -9.6 7.33 -9.6 7.33002 -9.60994 C 7.33 -9.61 7.33 -9.61 7.32445 -9.61698 C 7.32 -9.62 7.32 -9.62 7.31857 -9.62382 C 7.32 -9.63 7.31 -9.63 7.31239 -9.63046 C 7.31 -9.63 7.31 -9.63 7.3059 -9.63685 C 7.3 -9.64 7.3 -9.64 7.29739 -9.64449 C 7.29 -9.65 7.29 -9.65 7.2884 -9.65169 C 7.29 -9.65 7.28 -9.66 7.2787 -9.65862 C 7.28 -9.66 7.27 -9.66 7.26853 -9.66504 C 7.27 -9.67 7.26 -9.67 7.25792 -9.6709 C 7.25 -9.67 7.25 -9.67 7.2469 -9.67618 C 7.24 -9.68 7.24 -9.68 7.23848 -9.67972 C 7.24 -9.68 7.23 -9.68 7.22986 -9.68291 C 7.23 -9.68 7.22 -9.68 7.22108 -9.68577 C 7.22 -9.69 7.22 -9.69 7.21214 -9.68828 C 7.21 -9.69 7.21 -9.69 7.20305 -9.69045 C 7.2 -9.69 7.2 -9.69 7.19385 -9.69227 C 7.19 -9.69 7.19 -9.69 7.18454 -9.69376 C 7.18 -9.69 7.18 -9.69 7.17515 -9.6949 C 7.17 -9.7 7.17 -9.7 7.16542 -9.69574 C 7.16 -9.7 7.16 -9.7 7.15562 -9.69624 C 7.15 -9.7 7.15 -9.7 7.14578 -9.6964 C 7.14 -9.7 7.14 -9.7 7.13592 -9.69624 C 7.12 -9.7 7.11 -9.69 7.09395 -9.69226 C 7.08 -9.69 7.07 -9.69 7.0524 -9.68352 C 7.01 -9.67 6.96 -9.65 6.91892 -9.62825 C 6.76 -9.54 6.64 -9.41 6.52994 -9.26294" />
    <path d="M 7.38535 -9.32037 C 7.39 -9.33 7.39 -9.33 7.38768 -9.34163 C 7.39 -9.35 7.39 -9.36 7.38931 -9.36283 C 7.39 -9.37 7.39 -9.38 7.3902 -9.38395 C 7.39 -9.39 7.39 -9.4 7.39033 -9.40495 C 7.39 -9.41 7.39 -9.42 7.38981 -9.4224 C 7.39 -9.43 7.39 -9.43 7.38869 -9.43982 C 7.39 -9.45 7.39 -9.45 7.38692 -9.45717 C 7.39 -9.46 7.39 -9.47 7.38447 -9.47445 C 7.38 -9.48 7.38 -9.49 7.38129 -9.49162 C 7.38 -9.5 7.38 -9.5 7.37733 -9.50864 C 7.38 -9.51 7.37 -9.52 7.37253 -9.52548 C 7.37 -9.53 7.37 -9.54 7.36685 -9.54207" />
    <path d="M 18.17598 -8.8034 C 18.2 -8.84 18.22 -8.88 18.24889 -8.91822 C 18.27 -8.96 18.3 -9 18.32028 -9.03398 C 18.34 -9.07 18.37 -9.11 18.3901 -9.15075 C 18.41 -9.19 18.44 -9.23 18.45825 -9.2686 C 18.47 -9.3 18.49 -9.32 18.50484 -9.35161 C 18.52 -9.38 18.54 -9.41 18.55072 -9.43552 C 18.57 -9.46 18.58 -9.49 18.59581 -9.52027 C 18.61 -9.55 18.63 -9.58 18.64002 -9.60581" />
    <path d="M 16.27415 -8.90063 C 16.27 -8.91 16.27 -8.91 16.27121 -8.9142 C 16.27 -8.92 16.27 -8.92 16.26856 -8.92776 C 16.27 -8.93 16.27 -8.94 16.26618 -8.94127 C 16.27 -8.95 16.26 -8.95 16.26407 -8.95476 C 16.26 -8.96 16.26 -8.96 16.2622 -8.96819 C 16.26 -8.97 16.26 -8.98 16.26056 -8.98159 C 16.26 -8.99 16.26 -8.99 16.25913 -8.99494 C 16.26 -9 16.26 -9 16.25792 -9.00824 C 16.26 -9.01 16.26 -9.02 16.25689 -9.02151 C 16.26 -9.03 16.26 -9.03 16.25605 -9.03475 C 16.26 -9.04 16.26 -9.04 16.25539 -9.04795 C 16.26 -9.05 16.26 -9.06 16.25489 -9.06114 C 16.25 -9.07 16.25 -9.07 16.25454 -9.07433 C 16.25 -9.08 16.25 -9.08 16.25435 -9.08752 C 16.25 -9.09 16.25 -9.1 16.25431 -9.10073 C 16.25 -9.11 16.25 -9.11 16.25441 -9.11398 C 16.25 -9.13 16.25 -9.14 16.25535 -9.14975" />
    <path d="M 16.04429 -8.55451 C 16.08 -8.61 16.12 -8.67 16.15879 -8.72782 C 16.2 -8.79 16.24 -8.84 16.27415 -8.90063" />
    <path d="M 19.74874 9.29139 A 5 0.86005 180 0 0 29.74874 9.29139" />
    <path d="M -29.54155 1.02237 A 5 0.86005 180 0 0 -24.84426 1.63725" />
    <path d="M 26.5165 15.50604 A 2.5 0.43002 180 0 0 27.24874 15.20196 L 27.24874 10.03621" />
    <path d="M 22.24874 15.20196 A 2.5 0.43002 180 0 0 26.5165 15.50604" />
    <path d="M -22.98097 6.992 A 2.5 0.43002 180 0 0 -22.24874 6.68793 L -22.24874 1.9116" />
    <path d="M -27.24874 6.68793 A 2.5 0.43002 180 0 0 -22.98097 6.992" />
    <path d="M -45 -8.75696 L -45 -4.81658" />
    <path d="M 45 -8.75696 L 45 -4.81658" />
    <path d="M 19.98638 -4.21229 L 19.8489 -4.32866" />
    <path d="M 19.74874 2.13862 L 19.74874 9.29139" />
    <path d="M 29.74874 0.99116 L 29.74874 9.29139" />
    <path d="M 22.24874 15.20196 L 22.24874 10.03621" />
    <path d="M -27.24874 6.68793 L -27.24874 1.52218" />
</svg>