<svg version="1.1" xmlns="http://www.w3.org/2000/svg" viewBox="-46.000001000000005 -18.99942836916705 92.00000200000001 37.517003765610625" fill="none" stroke="black" stroke-width="0.6%" vector-effect="non-scaling-stroke">
    <path d="M -31.81981 -15.45486 A 45 8.67335 360 0 1 -29.74874 -15.8296" />
    <path d="M -19.76518 -17.11381 A 45 8.67335 360 0 1 45 -9.32187 A 45 8.67335 360 0 1 -45 -9.32187 A 45 8.67335 360 0 1 -31.81981 -15.45486" />
    <path d="M -45 -5.39687 A 45 8.67335 180 0 0 45 -5.39687" />
    <path d="M 29.74874 -4.55177 A 5 0.96371 360 0 1 19.74874 -4.55177" />
    <path d="M -6.71751 -10.61661 A 9.5 1.83104 360 0 1 9.39635 -9.59162 A 9.5 1.83104 360 1 1 -9.39635 -9.59162 A 9.5 1.83104 360 0 1 -6.71751 -10.61661 Z" />
    <path d="M -19.74874 -14.09197 A 5 0.96371 360 0 1 -29.74874 -14.09197" />
    <path d="M 21.2132 -8.17696 A 5 0.96371 360 0 1 29.74874 -7.49552 L 29.74874 -4.55177" />
    <path d="M 29.74874 -7.49552 A 5 0.96371 360 0 1 19.74874 -7.49552 L 19.74874 -4.55177" />
    <path d="M 19.74874 -7.49552 A 5 0.96371 360 0 1 21.2132 -8.17696" />
    <path d="M -28.28427 -17.71716 A 5 0.96371 360 0 1 -19.74874 -17.03572 L -19.74874 -14.09197" />
    <path d="M -19.74874 -17.03572 A 5 0.96371 360 0 1 -29.74874 -17.03572 L -29.74874 -14.09197" />
    <path d="M -29.74874 -17.03572 A 5 0.96371 360 0 1 -28.28427 -17.71716" />
    <path d="M 19.74874 9.18572 A 5 0.96371 180 0 0 29.74874 9.18572" />
    <path d="M -5.3033 -10.34404 A 7.5 1.44556 360 0 1 7.46374 -9.46384 L 8.03641 -8.34541" />
    <path d="M 7.46374 -9.46384 A 7.5 1.44556 360 1 1 -7.46374 -9.46384 L -8.03641 -8.34541" />
    <path d="M -7.46374 -9.46384 A 7.5 1.44556 360 0 1 -5.3033 -10.34404" />
    <path d="M 26.5165 17.37644 A 2.5 0.48185 180 0 0 27.24874 17.03572 L 27.24874 10.02032" />
    <path d="M 22.24874 17.03572 A 2.5 0.48185 180 0 0 26.5165 17.37644" />
    <path d="M -22.98097 7.83624 A 2.5 0.48185 180 0 0 -22.24874 7.49552 L -22.24874 2.14222" />
    <path d="M -27.24874 7.49552 A 2.5 0.48185 180 0 0 -22.98097 7.83624" />
    <path d="M -45 -9.32187 L -45 -5.39687" />
    <path d="M 45 -9.32187 L 45 -5.39687" />
    <path d="M 19.74874 2.39661 L 19.74874 9.18572" />
    <path d="M 29.74874 1.11085 L 29.74874 9.18572" />
    <path d="M 22.24874 17.03572 L 22.24874 10.02032" />
    <path d="M -27.24874 7.49552 L -27.24874 1.50559" />
</svg>