<svg version="1.1" xmlns="http://www.w3.org/2000/svg" viewBox="-46.000001 -17.86439459213761 92.000002 32.97315439653257" fill="none" stroke="black" stroke-width="0.6%" vector-effect="non-scaling-stroke">
    <path d="M -31.81981 -14.81835 A 45 6.98562 360 0 1 45 -9.87877 A 45 6.98562 360 0 1 -45 -9.87877 A 45 6.98562 360 0 1 -31.81981 -14.81835 Z" />
    <path d="M -45 -5.92726 A 45 6.98562 180 0 0 45 -5.92726" />
    <path d="M -10.96016 -8.50667 L -10.72718 -8.53923 L -10.47608 -8.56747 L -10.21236 -8.59078 L -9.94178 -8.60863 L -9.67028 -8.62065 L -9.40379 -8.62657 L -9.14817 -8.62626 L -8.90899 -8.61972 L -8.69151 -8.6071 L -8.50047 -8.58868 L -8.34008 -8.56485 L -8.21383 -8.53615 L -8.12449 -8.50319 L -8.07402 -8.4667 L -8.06359 -8.44679 L -8.06384 -8.42628 L -8.07476 -8.40527 L -8.0963 -8.38389 L -8.12833 -8.36227 L -8.17066 -8.34053 L -8.22304 -8.3188 L -8.28517 -8.29721 L -8.3567 -8.27587 L -8.4372 -8.25492 L -8.5262 -8.23448 L -8.62319 -8.21466 L -8.7276 -8.19559 L -8.83883 -8.17736 L -9.07181 -8.1448 L -9.32291 -8.11656 L -9.58663 -8.09326 L -9.85721 -8.0754 L -10.12871 -8.06338 L -10.3952 -8.05746 L -10.65082 -8.05778 L -10.89 -8.06431 L -11.10748 -8.07693 L -11.29852 -8.09536 L -11.45891 -8.11918 L -11.58516 -8.14789 L -11.6745 -8.18084 L -11.72497 -8.21733 L -11.7354 -8.23724 L -11.73515 -8.25776 L -11.72423 -8.27877 L -11.70269 -8.30014 L -11.67066 -8.32176 L -11.62833 -8.3435 L -11.57595 -8.36523 L -11.51382 -8.38682 L -11.44229 -8.40816 L -11.36179 -8.42911 L -11.27279 -8.44955 L -11.1758 -8.46937 L -11.07139 -8.48844 L -10.96016 -8.50667 Z" />
    <path d="M 19.74874 7.7934 A 5 0.77618 180 0 0 29.74874 7.7934" />
    <path d="M -29.74874 0.10961 A 5 0.77618 180 0 0 -19.96122 0.33348" />
    <path d="M 26.5165 13.99509 A 2.5 0.38809 180 0 0 27.24874 13.72067 L 27.24874 8.4656" />
    <path d="M 22.24874 13.72067 A 2.5 0.38809 180 0 0 26.5165 13.99509" />
    <path d="M -22.98097 6.3113 A 2.5 0.38809 180 0 0 -22.24874 6.03688 L -22.24874 0.78181" />
    <path d="M -27.24874 6.03688 A 2.5 0.38809 180 0 0 -22.98097 6.3113" />
    <path d="M -45 -9.87877 L -45 -5.92726" />
    <path d="M 45 -9.87877 L 45 -5.92726" />
    <path d="M 19.74874 0.3497 L 19.74874 7.7934" />
    <path d="M 29.74874 -0.68587 L 29.74874 7.7934" />
    <path d="M -29.74874 -0.68587 L -29.74874 0.10961" />
    <path d="M 22.24874 13.72067 L 22.24874 8.4656" />
    <path d="M -27.24874 6.03688 L -27.24874 0.78181" />
</svg>