<svg version="1.1" xmlns="http://www.w3.org/2000/svg" viewBox="-46.000001000000005 -15.497261919051212 92.00000200000001 30.606397302150782" fill="none" stroke="black" stroke-width="0.6%" vector-effect="non-scaling-stroke">
    <path d="M -21.2132 -13.17211 A 5 0.77625 180 0 0 -19.82971 -13.58187 A 5 0.77625 180 1 0 -29.66776 -13.58187 A 5 0.77625 180 0 0 -21.2132 -13.17211 Z" />
    <path d="M -22.98097 -11.28122 A 2.5 0.38813 180 0 0 -22.28923 -11.4861 L -19.82971 -13.58187" />
    <path d="M -27.20825 -11.4861 A 2.5 0.38813 180 0 0 -22.98097 -11.28122" />
    <path d="M -22.98097 -9.49506 A 2.5 0.38813 180 0 0 -22.24874 -9.76951 L -22.24874 -11.5206" />
    <path d="M -27.24874 -9.76951 A 2.5 0.38813 180 0 0 -22.98097 -9.49506" />
    <path d="M -28.28427 -10.3184 A 5 0.77625 360 0 1 -27.24874 -10.44176" />
    <path d="M -22.24874 -10.44176 A 5 0.77625 360 0 1 -19.74874 -9.76951 A 5 0.77625 360 0 1 -29.74874 -9.76951 A 5 0.77625 360 0 1 -28.28427 -10.3184" />
    <path d="M -19.74874 -3.84226 A 5 0.77625 360 0 1 -29.74874 -3.84226" />
    <path d="M -31.81981 -4.94004 A 45 6.98628 360 0 1 -29.74874 -5.24189" />
    <path d="M -19.74874 -6.27756 A 45 6.98628 360 0 1 19.96283 -6.26121" />
    <path d="M 29.01395 -5.34024 A 45 6.98628 360 0 1 45 0 A 45 6.98628 360 0 1 -45 0 L -45 3.9515 A 45 6.98628 180 0 0 45 3.9515" />
    <path d="M -45 0 A 45 6.98628 360 0 1 -31.81981 -4.94004" />
    <path d="M 29.74874 3.84226 A 5 0.77625 360 0 1 19.74874 3.84226" />
    <path d="M -7.42462 -1.15268 A 10.5 1.63013 360 0 1 10.5 0 A 10.5 1.63013 360 0 1 -10.5 0 A 10.5 1.63013 360 0 1 -7.42462 -1.15268 Z" />
    <path d="M 21.2132 -2.63389 A 5 0.77625 360 0 1 22.24874 -2.75725" />
    <path d="M 27.24874 -2.75725 A 5 0.77625 360 0 1 29.74874 -2.08499 L 29.74874 3.84226" />
    <path d="M 29.74874 -2.08499 A 5 0.77625 360 0 1 19.74874 -2.08499 L 19.74874 3.84226" />
    <path d="M 19.74874 -2.08499 A 5 0.77625 360 0 1 21.2132 -2.63389" />
    <path d="M 26.5165 -1.81055 A 2.5 0.38813 180 0 0 27.24874 -2.08499 L 27.24874 -3.83608" />
    <path d="M 22.24874 -2.08499 A 2.5 0.38813 180 0 0 26.5165 -1.81055" />
    <path d="M 26.5165 13.99545 A 2.5 0.38813 180 0 0 27.24874 13.72101 L 27.24874 9.51135" />
    <path d="M 22.24874 13.72101 A 2.5 0.38813 180 0 0 26.5165 13.99545" />
    <path d="M 26.5165 -3.59671 A 2.5 0.38813 180 0 0 27.20825 -3.80158 L 29.66776 -5.89736 A 5 0.77625 180 1 0 19.82971 -5.89736 A 5 0.77625 180 0 0 28.28427 -5.4876 A 5 0.77625 180 0 0 29.66776 -5.89736" />
    <path d="M 22.28923 -3.80158 A 2.5 0.38813 180 0 0 26.5165 -3.59671" />
    <path d="M -5.3033 -0.82334 A 7.5 1.16438 360 0 1 7.5 0 L 7.5 1.14085" />
    <path d="M 7.5 0 A 7.5 1.16438 360 0 1 -7.5 0 L -7.5 1.14085" />
    <path d="M -7.5 0 A 7.5 1.16438 360 0 1 -5.3033 -0.82334" />
    <path d="M -27.20825 -11.4861 L -29.66776 -13.58187" />
    <path d="M -27.24874 -9.76951 L -27.24874 -11.5206" />
    <path d="M -29.74874 -9.76951 L -29.74874 -3.84226" />
    <path d="M -19.74874 -9.76951 L -19.74874 -3.84226" />
    <path d="M 45 0 L 45 3.9515" />
    <path d="M 22.24874 13.72101 L 22.24874 10.02415" />
    <path d="M 22.24874 -2.08499 L 22.24874 -3.83608" />
    <path d="M 22.28923 -3.80158 L 19.82971 -5.89736" />
</svg>