<svg version="1.1" xmlns="http://www.w3.org/2000/svg" viewBox="-46.000001 -16.87651717656815 92.000002 31.985276980963107" fill="none" stroke="black" stroke-width="0.6%" vector-effect="non-scaling-stroke">
    <path d="M -31.81981 -13.83048 A 45 6.98562 360 0 1 45 -8.8909 A 45 6.98562 360 0 1 -45 -8.8909 A 45 6.98562 360 0 1 -31.81981 -13.83048 Z" />
    <path d="M -45 -4.93939 A 45 6.98562 180 0 0 45 -4.93939" />
    <path d="M 28.28427 -4.50016 A 5 0.77618 180 0 0 29.74874 -5.049 L 29.74874 -6.03688 A 5 0.77618 360 0 1 28.28427 -5.48804 A 5 0.77618 360 0 1 19.74874 -6.03688 A 5 0.77618 360 0 1 29.74874 -6.03688" />
    <path d="M 19.74874 -5.049 A 5 0.77618 180 0 0 28.28427 -4.50016" />
    <path d="M -5.3033 -9.71416 A 7.5 1.16427 360 0 1 7.5 -8.8909 A 7.5 1.16427 360 0 1 -7.5 -8.8909 A 7.5 1.16427 360 0 1 -5.3033 -9.71416 Z" />
    <path d="M -21.2132 -12.18395 A 5 0.77618 180 0 0 -19.74874 -12.73279 L -19.74874 -13.72067 A 5 0.77618 360 0 1 -21.2132 -13.17183 A 5 0.77618 360 0 1 -29.74874 -13.72067 A 5 0.77618 360 0 1 -19.74874 -13.72067" />
    <path d="M -29.74874 -12.73279 A 5 0.77618 180 0 0 -21.2132 -12.18395" />
    <path d="M 19.74874 8.78128 A 5 0.77618 180 0 0 29.74874 8.78128" />
    <path d="M -29.74874 1.09749 A 5 0.77618 180 0 0 -19.96122 1.32136" />
    <path d="M 26.5165 13.99509 A 2.5 0.38809 180 0 0 27.24874 13.72067 L 27.24874 9.45347" />
    <path d="M 22.24874 13.72067 A 2.5 0.38809 180 0 0 26.5165 13.99509" />
    <path d="M -22.98097 6.3113 A 2.5 0.38809 180 0 0 -22.24874 6.03688 L -22.24874 1.76968" />
    <path d="M -27.24874 6.03688 A 2.5 0.38809 180 0 0 -22.98097 6.3113" />
    <path d="M -45 -8.8909 L -45 -4.93939" />
    <path d="M 45 -8.8909 L 45 -4.93939" />
    <path d="M 19.74874 -5.049 L 19.74874 -6.03688" />
    <path d="M -29.74874 -12.73279 L -29.74874 -13.72067" />
    <path d="M 19.74874 1.33758 L 19.74874 8.78128" />
    <path d="M 29.74874 0.30201 L 29.74874 8.78128" />
    <path d="M -29.74874 0.30201 L -29.74874 1.09749" />
    <path d="M 22.24874 13.72067 L 22.24874 9.45347" />
    <path d="M -27.24874 6.03688 L -27.24874 1.76968" />
</svg>